dosis_extra-light.sfdir
StartChar: exclam
Encoding: 33 33 214
Width: 193
Flags: W
LayerCount: 2
Back
Fore
SplineSet
123 717 m 0,0,1
 123 581 123 581 117.5 440 c 128,-1,2
 112 299 112 299 112 163 c 0,3,4
 112 155 112 155 106.5 151 c 128,-1,5
 101 147 101 147 96 147 c 256,6,7
 91 147 91 147 86 151 c 128,-1,8
 81 155 81 155 81 163 c 0,9,10
 81 299 81 299 75.5 440 c 128,-1,11
 70 581 70 581 70 717 c 0,12,13
 70 732 70 732 77.5 740 c 128,-1,14
 85 748 85 748 96 748 c 256,15,16
 107 748 107 748 115 740 c 128,-1,17
 123 732 123 732 123 717 c 0,0,1
97 66 m 0,18,19
 111 66 111 66 121.5 55.5 c 128,-1,20
 132 45 132 45 132 30 c 0,21,22
 132 16 132 16 121.5 5 c 128,-1,23
 111 -6 111 -6 97 -6 c 0,24,25
 81 -6 81 -6 71 5 c 128,-1,26
 61 16 61 16 61 30 c 0,27,28
 61 45 61 45 71 55.5 c 128,-1,29
 81 66 81 66 97 66 c 0,18,19
EndSplineSet
EndChar
StartChar: quotedbl
Encoding: 34 34 331
Width: 255
Flags: W
LayerCount: 2
Back
Fore
SplineSet
67 768 m 256,0,1
 75 768 75 768 83.5 763.5 c 128,-1,2
 92 759 92 759 92 751 c 2,3,-1
 82 599 l 2,4,5
 82 592 82 592 78.5 586.5 c 128,-1,6
 75 581 75 581 67 581 c 256,7,8
 59 581 59 581 56 586.5 c 128,-1,9
 53 592 53 592 53 599 c 2,10,-1
 43 751 l 2,11,12
 43 759 43 759 51 763.5 c 128,-1,13
 59 768 59 768 67 768 c 256,0,1
187 768 m 256,14,15
 195 768 195 768 203.5 763.5 c 128,-1,16
 212 759 212 759 212 751 c 2,17,-1
 202 599 l 2,18,19
 202 592 202 592 198.5 586.5 c 128,-1,20
 195 581 195 581 187 581 c 256,21,22
 179 581 179 581 176 586.5 c 128,-1,23
 173 592 173 592 173 599 c 2,24,-1
 163 751 l 2,25,26
 163 759 163 759 171 763.5 c 128,-1,27
 179 768 179 768 187 768 c 256,14,15
EndSplineSet
EndChar
StartChar: numbersign
Encoding: 35 35 290
Width: 547
Flags: W
LayerCount: 2
Back
Fore
SplineSet
322 51 m 2,0,1
 319 36 319 36 305 36 c 0,2,3
 289 36 289 36 289 55 c 2,4,-1
 321 268 l 1,5,-1
 187 268 l 1,6,-1
 155 52 l 2,7,8
 153 43 153 43 149 39.5 c 128,-1,9
 145 36 145 36 140 36 c 0,10,11
 133 36 133 36 128 41 c 128,-1,12
 123 46 123 46 123 55 c 2,13,-1
 154 268 l 1,14,-1
 50 268 l 2,15,16
 32 268 32 268 32 283 c 0,17,18
 32 289 32 289 35.5 293.5 c 128,-1,19
 39 298 39 298 44 298 c 2,20,-1
 160 298 l 1,21,-1
 186 475 l 1,22,-1
 81 475 l 2,23,24
 63 475 63 475 63 491 c 0,25,26
 63 505 63 505 75 505 c 2,27,-1
 191 505 l 1,28,-1
 221 703 l 2,29,30
 223 713 223 713 233 713 c 256,31,32
 243 713 243 713 247.5 707 c 128,-1,33
 252 701 252 701 252 693 c 2,34,-1
 223 505 l 1,35,-1
 358 505 l 1,36,-1
 388 703 l 2,37,38
 390 713 390 713 400 713 c 256,39,40
 410 713 410 713 414.5 707 c 128,-1,41
 419 701 419 701 419 693 c 2,42,-1
 390 505 l 1,43,-1
 497 505 l 2,44,45
 503 505 503 505 509.5 501.5 c 128,-1,46
 516 498 516 498 516 490 c 0,47,48
 516 485 516 485 512 480 c 128,-1,49
 508 475 508 475 503 475 c 2,50,-1
 386 475 l 1,51,-1
 359 298 l 1,52,-1
 466 298 l 2,53,54
 472 298 472 298 478.5 294 c 128,-1,55
 485 290 485 290 485 282 c 0,56,57
 485 277 485 277 481 272.5 c 128,-1,58
 477 268 477 268 472 268 c 2,59,-1
 354 268 l 1,60,-1
 322 51 l 2,0,1
192 298 m 1,61,-1
 326 298 l 1,62,-1
 353 475 l 1,63,-1
 219 475 l 1,64,-1
 192 298 l 1,61,-1
EndSplineSet
EndChar
StartChar: dollar
Encoding: 36 36 190
Width: 484
Flags: W
LayerCount: 2
Back
Fore
SplineSet
238 375 m 1,0,1
 205 386 205 386 173.5 398 c 128,-1,2
 142 410 142 410 117.5 429.5 c 128,-1,3
 93 449 93 449 77.5 479.5 c 128,-1,4
 62 510 62 510 62 558 c 0,5,6
 62 605 62 605 78 635.5 c 128,-1,7
 94 666 94 666 119.5 684.5 c 128,-1,8
 145 703 145 703 176.5 710.5 c 128,-1,9
 208 718 208 718 238 720 c 1,10,-1
 238 751 l 2,11,12
 238 758 238 758 243 763 c 128,-1,13
 248 768 248 768 256 768 c 0,14,15
 263 768 263 768 268.5 763 c 128,-1,16
 274 758 274 758 274 751 c 2,17,-1
 274 721 l 1,18,19
 302 720 302 720 328 714.5 c 128,-1,20
 354 709 354 709 374 701.5 c 128,-1,21
 394 694 394 694 405.5 685.5 c 128,-1,22
 417 677 417 677 417 669 c 0,23,24
 417 663 417 663 411.5 655 c 128,-1,25
 406 647 406 647 399 647 c 0,26,27
 394 647 394 647 385 652 c 128,-1,28
 376 657 376 657 361 664 c 128,-1,29
 346 671 346 671 324.5 676.5 c 128,-1,30
 303 682 303 682 274 684 c 1,31,-1
 274 402 l 1,32,33
 304 391 304 391 333 377 c 128,-1,34
 362 363 362 363 384.5 339.5 c 128,-1,35
 407 316 407 316 421 281.5 c 128,-1,36
 435 247 435 247 435 195 c 0,37,38
 435 105 435 105 390 59.5 c 128,-1,39
 345 14 345 14 274 6 c 1,40,-1
 274 -35 l 2,41,42
 274 -42 274 -42 268.5 -47 c 128,-1,43
 263 -52 263 -52 256 -52 c 0,44,45
 248 -52 248 -52 243 -47 c 128,-1,46
 238 -42 238 -42 238 -35 c 2,47,-1
 238 4 l 1,48,49
 190 4 190 4 153.5 16 c 128,-1,50
 117 28 117 28 93 44.5 c 128,-1,51
 69 61 69 61 56.5 78 c 128,-1,52
 44 95 44 95 44 105 c 0,53,54
 44 113 44 113 50 119.5 c 128,-1,55
 56 126 56 126 61 126 c 0,56,57
 68 126 68 126 77 112.5 c 128,-1,58
 86 99 86 99 104 83 c 128,-1,59
 122 67 122 67 153.5 53.5 c 128,-1,60
 185 40 185 40 238 40 c 1,61,-1
 238 375 l 1,0,1
399 192 m 0,62,63
 399 231 399 231 389 259 c 128,-1,64
 379 287 379 287 361.5 306.5 c 128,-1,65
 344 326 344 326 321.5 339 c 128,-1,66
 299 352 299 352 274 362 c 1,67,-1
 274 43 l 1,68,69
 399 61 399 61 399 192 c 0,62,63
98 561 m 0,70,71
 98 525 98 525 109.5 501.5 c 128,-1,72
 121 478 121 478 140.5 461.5 c 128,-1,73
 160 445 160 445 185 434 c 128,-1,74
 210 423 210 423 238 414 c 1,75,-1
 238 684 l 1,76,77
 212 682 212 682 186.5 675.5 c 128,-1,78
 161 669 161 669 141.5 655 c 128,-1,79
 122 641 122 641 110 618 c 128,-1,80
 98 595 98 595 98 561 c 0,70,71
EndSplineSet
EndChar
StartChar: percent
Encoding: 37 37 319
Width: 741
Flags: W
LayerCount: 2
Back
Fore
SplineSet
161 362 m 256,0,1
 137 362 137 362 116 367.5 c 128,-1,2
 95 373 95 373 79.5 386 c 128,-1,3
 64 399 64 399 55 419.5 c 128,-1,4
 46 440 46 440 46 469 c 2,5,-1
 46 624 l 2,6,7
 46 682 46 682 79 706.5 c 128,-1,8
 112 731 112 731 161 731 c 256,9,10
 210 731 210 731 243 706.5 c 128,-1,11
 276 682 276 682 276 624 c 2,12,-1
 276 469 l 2,13,14
 276 440 276 440 267 419.5 c 128,-1,15
 258 399 258 399 242.5 386 c 128,-1,16
 227 373 227 373 206 367.5 c 128,-1,17
 185 362 185 362 161 362 c 256,0,1
243 624 m 2,18,19
 243 663 243 663 221 681.5 c 128,-1,20
 199 700 199 700 161 700 c 256,21,22
 123 700 123 700 101.5 681.5 c 128,-1,23
 80 663 80 663 80 624 c 2,24,-1
 80 469 l 2,25,26
 80 430 80 430 101.5 411.5 c 128,-1,27
 123 393 123 393 161 393 c 256,28,29
 199 393 199 393 221 411.5 c 128,-1,30
 243 430 243 430 243 469 c 2,31,-1
 243 624 l 2,18,19
580 -3 m 256,32,33
 556 -3 556 -3 535 2.5 c 128,-1,34
 514 8 514 8 498.5 21 c 128,-1,35
 483 34 483 34 474 54.5 c 128,-1,36
 465 75 465 75 465 104 c 2,37,-1
 465 259 l 2,38,39
 465 317 465 317 498 341.5 c 128,-1,40
 531 366 531 366 580 366 c 256,41,42
 629 366 629 366 662 341.5 c 128,-1,43
 695 317 695 317 695 259 c 2,44,-1
 695 104 l 2,45,46
 695 75 695 75 686 54.5 c 128,-1,47
 677 34 677 34 661.5 21 c 128,-1,48
 646 8 646 8 625 2.5 c 128,-1,49
 604 -3 604 -3 580 -3 c 256,32,33
662 259 m 2,50,51
 662 298 662 298 640 316.5 c 128,-1,52
 618 335 618 335 580 335 c 256,53,54
 542 335 542 335 520.5 316.5 c 128,-1,55
 499 298 499 298 499 259 c 2,56,-1
 499 104 l 2,57,58
 499 65 499 65 520.5 46.5 c 128,-1,59
 542 28 542 28 580 28 c 256,60,61
 618 28 618 28 640 46.5 c 128,-1,62
 662 65 662 65 662 104 c 2,63,-1
 662 259 l 2,50,51
196 -9 m 2,64,65
 190 -20 190 -20 179 -20 c 0,66,67
 173 -20 173 -20 168 -16 c 128,-1,68
 163 -12 163 -12 163 -5 c 0,69,70
 163 1 163 1 165 4 c 2,71,-1
 556 760 l 2,72,73
 560 768 560 768 569 768 c 0,74,75
 575 768 575 768 581 762.5 c 128,-1,76
 587 757 587 757 587 749 c 0,77,78
 587 744 587 744 584 738 c 2,79,-1
 196 -9 l 2,64,65
EndSplineSet
Ligature2: "'frac' Diagonal Fractions in Latin lookup 9 subtable" zero slash zero
EndChar
StartChar: ampersand
Encoding: 38 38 142
Width: 595
Flags: W
LayerCount: 2
Back
Fore
SplineSet
263 748 m 0,0,1
 302 748 302 748 330 737 c 128,-1,2
 358 726 358 726 376 712 c 128,-1,3
 394 698 394 698 402.5 683 c 128,-1,4
 411 668 411 668 411 661 c 0,5,6
 411 645 411 645 394 645 c 0,7,8
 387 645 387 645 380 656 c 128,-1,9
 373 667 373 667 360 680.5 c 128,-1,10
 347 694 347 694 325 705 c 128,-1,11
 303 716 303 716 267 716 c 0,12,13
 206 716 206 716 172 678.5 c 128,-1,14
 138 641 138 641 138 580 c 0,15,16
 138 552 138 552 145 528.5 c 128,-1,17
 152 505 152 505 164 483 c 128,-1,18
 176 461 176 461 192.5 441 c 128,-1,19
 209 421 209 421 227 401 c 2,20,-1
 450 154 l 1,21,22
 462 181 462 181 469 209 c 128,-1,23
 476 237 476 237 480.5 264 c 128,-1,24
 485 291 485 291 487 315.5 c 128,-1,25
 489 340 489 340 489 359 c 0,26,27
 489 371 489 371 493 375.5 c 128,-1,28
 497 380 497 380 506 380 c 0,29,30
 521 380 521 380 521 357 c 0,31,32
 521 343 521 343 519.5 318 c 128,-1,33
 518 293 518 293 513.5 261.5 c 128,-1,34
 509 230 509 230 499.5 195 c 128,-1,35
 490 160 490 160 474 127 c 1,36,-1
 571 21 l 2,37,38
 576 14 576 14 576 10 c 0,39,40
 576 3 576 3 571 -1.5 c 128,-1,41
 566 -6 566 -6 560 -6 c 256,42,43
 554 -6 554 -6 548 0 c 2,44,-1
 458 97 l 1,45,46
 429 51 429 51 381 20.5 c 128,-1,47
 333 -10 333 -10 260 -10 c 0,48,49
 207 -10 207 -10 166 7 c 128,-1,50
 125 24 125 24 97.5 52.5 c 128,-1,51
 70 81 70 81 55.5 119 c 128,-1,52
 41 157 41 157 41 199 c 0,53,54
 41 239 41 239 53.5 271 c 128,-1,55
 66 303 66 303 86 327.5 c 128,-1,56
 106 352 106 352 131 369 c 128,-1,57
 156 386 156 386 182 397 c 1,58,59
 167 415 167 415 151.5 435 c 128,-1,60
 136 455 136 455 123.5 478 c 128,-1,61
 111 501 111 501 103.5 527 c 128,-1,62
 96 553 96 553 96 583 c 0,63,64
 96 623 96 623 109.5 653.5 c 128,-1,65
 123 684 123 684 146 705 c 128,-1,66
 169 726 169 726 199 737 c 128,-1,67
 229 748 229 748 263 748 c 0,0,1
266 25 m 0,68,69
 330 25 330 25 370 52.5 c 128,-1,70
 410 80 410 80 434 122 c 1,71,-1
 203 371 l 1,72,73
 184 361 184 361 162 347.5 c 128,-1,74
 140 334 140 334 121.5 314 c 128,-1,75
 103 294 103 294 90.5 267 c 128,-1,76
 78 240 78 240 78 203 c 0,77,78
 78 168 78 168 90.5 136 c 128,-1,79
 103 104 103 104 127 79 c 128,-1,80
 151 54 151 54 186 39.5 c 128,-1,81
 221 25 221 25 266 25 c 0,68,69
EndSplineSet
EndChar
StartChar: quotesingle
Encoding: 39 39 338
Width: 135
Flags: W
LayerCount: 2
Back
Fore
SplineSet
67 768 m 256,0,1
 75 768 75 768 83.5 763.5 c 128,-1,2
 92 759 92 759 92 751 c 2,3,-1
 82 599 l 2,4,5
 82 592 82 592 78.5 586.5 c 128,-1,6
 75 581 75 581 67 581 c 256,7,8
 59 581 59 581 56 586.5 c 128,-1,9
 53 592 53 592 53 599 c 2,10,-1
 43 751 l 2,11,12
 43 759 43 759 51 763.5 c 128,-1,13
 59 768 59 768 67 768 c 256,0,1
EndSplineSet
EndChar
StartChar: parenleft
Encoding: 40 40 316
Width: 278
Flags: W
LayerCount: 2
Back
Fore
SplineSet
241 -20 m 0,0,1
 162 -20 162 -20 114.5 23 c 128,-1,2
 67 66 67 66 67 143 c 2,3,-1
 67 591 l 2,4,5
 67 625 67 625 79.5 657 c 128,-1,6
 92 689 92 689 115 714 c 128,-1,7
 138 739 138 739 170 753.5 c 128,-1,8
 202 768 202 768 241 768 c 0,9,10
 248 768 248 768 253 763 c 128,-1,11
 258 758 258 758 258 751 c 0,12,13
 258 743 258 743 253 738 c 128,-1,14
 248 733 248 733 241 733 c 0,15,16
 208 733 208 733 182.5 720.5 c 128,-1,17
 157 708 157 708 139 688 c 128,-1,18
 121 668 121 668 112 642.5 c 128,-1,19
 103 617 103 617 103 591 c 2,20,-1
 103 143 l 2,21,22
 103 104 103 104 116 79 c 128,-1,23
 129 54 129 54 149 39.5 c 128,-1,24
 169 25 169 25 193.5 20 c 128,-1,25
 218 15 218 15 241 15 c 0,26,27
 251 15 251 15 254.5 9 c 128,-1,28
 258 3 258 3 258 -2 c 0,29,30
 258 -10 258 -10 252.5 -15 c 128,-1,31
 247 -20 247 -20 241 -20 c 0,0,1
EndSplineSet
EndChar
StartChar: parenright
Encoding: 41 41 317
Width: 278
Flags: W
LayerCount: 2
Back
Fore
SplineSet
37 -20 m 0,0,1
 31 -20 31 -20 25.5 -15 c 128,-1,2
 20 -10 20 -10 20 -2 c 0,3,4
 20 3 20 3 23.5 9 c 128,-1,5
 27 15 27 15 37 15 c 0,6,7
 60 15 60 15 84.5 20 c 128,-1,8
 109 25 109 25 129 39.5 c 128,-1,9
 149 54 149 54 162 79 c 128,-1,10
 175 104 175 104 175 143 c 2,11,-1
 175 591 l 2,12,13
 175 617 175 617 166 642.5 c 128,-1,14
 157 668 157 668 139 688 c 128,-1,15
 121 708 121 708 95.5 720.5 c 128,-1,16
 70 733 70 733 37 733 c 0,17,18
 30 733 30 733 25 738 c 128,-1,19
 20 743 20 743 20 751 c 0,20,21
 20 758 20 758 25 763 c 128,-1,22
 30 768 30 768 37 768 c 0,23,24
 76 768 76 768 108 753.5 c 128,-1,25
 140 739 140 739 163 714 c 128,-1,26
 186 689 186 689 198.5 657 c 128,-1,27
 211 625 211 625 211 591 c 2,28,-1
 211 143 l 2,29,30
 211 66 211 66 163.5 23 c 128,-1,31
 116 -20 116 -20 37 -20 c 0,0,1
EndSplineSet
EndChar
StartChar: asterisk
Encoding: 42 42 152
Width: 416
Flags: W
LayerCount: 2
Back
Fore
SplineSet
317 435 m 2,0,1
 320 430 320 430 320 426 c 0,2,3
 320 418 320 418 314 412.5 c 128,-1,4
 308 407 308 407 300 407 c 0,5,6
 293 407 293 407 287 414 c 2,7,-1
 208 529 l 1,8,-1
 128 413 l 2,9,10
 123 407 123 407 117 407 c 256,11,12
 111 407 111 407 103.5 412 c 128,-1,13
 96 417 96 417 96 425 c 0,14,15
 96 431 96 431 100 436 c 2,16,-1
 184 546 l 1,17,-1
 50 586 l 2,18,19
 39 589 39 589 39 602 c 0,20,21
 39 610 39 610 44 616 c 128,-1,22
 49 622 49 622 57 622 c 0,23,24
 60 622 60 622 62 621 c 2,25,-1
 195 574 l 1,26,-1
 190 714 l 2,27,28
 190 722 190 722 195.5 726.5 c 128,-1,29
 201 731 201 731 208 731 c 256,30,31
 215 731 215 731 220.5 726.5 c 128,-1,32
 226 722 226 722 226 714 c 2,33,-1
 221 573 l 1,34,-1
 354 621 l 2,35,36
 356 622 356 622 360 622 c 0,37,38
 367 622 367 622 372 615.5 c 128,-1,39
 377 609 377 609 377 602 c 0,40,41
 377 589 377 589 365 586 c 2,42,-1
 232 547 l 1,43,-1
 317 435 l 2,0,1
EndSplineSet
EndChar
StartChar: plus
Encoding: 43 43 324
Width: 427
Flags: W
LayerCount: 2
Back
Fore
SplineSet
214 63 m 0,0,1
 206 63 206 63 201 67.5 c 128,-1,2
 196 72 196 72 196 80 c 2,3,-1
 196 223 l 1,4,-1
 53 223 l 2,5,6
 36 223 36 223 36 240 c 0,7,8
 36 248 36 248 40.5 253 c 128,-1,9
 45 258 45 258 53 258 c 2,10,-1
 196 258 l 1,11,-1
 196 400 l 2,12,13
 196 407 196 407 201 412.5 c 128,-1,14
 206 418 206 418 214 418 c 256,15,16
 222 418 222 418 226.5 412.5 c 128,-1,17
 231 407 231 407 231 400 c 2,18,-1
 231 258 l 1,19,-1
 373 258 l 2,20,21
 380 258 380 258 385.5 253 c 128,-1,22
 391 248 391 248 391 240 c 256,23,24
 391 232 391 232 385.5 227.5 c 128,-1,25
 380 223 380 223 373 223 c 2,26,-1
 231 223 l 1,27,-1
 231 80 l 2,28,29
 231 63 231 63 214 63 c 0,0,1
EndSplineSet
EndChar
StartChar: comma
Encoding: 44 44 178
Width: 162
Flags: W
LayerCount: 2
Back
Fore
SplineSet
80 66 m 0,0,1
 93 66 93 66 104.5 57 c 128,-1,2
 116 48 116 48 116 29 c 0,3,4
 116 27 116 27 115.5 22.5 c 128,-1,5
 115 18 115 18 112 8 c 128,-1,6
 109 -2 109 -2 102.5 -19.5 c 128,-1,7
 96 -37 96 -37 85 -66 c 0,8,9
 80 -77 80 -77 69 -77 c 0,10,11
 63 -77 63 -77 58 -73.5 c 128,-1,12
 53 -70 53 -70 53 -64 c 0,13,14
 53 -59 53 -59 54 -56 c 2,15,-1
 72 -5 l 1,16,17
 60 -2 60 -2 52.5 8 c 128,-1,18
 45 18 45 18 45 30 c 0,19,20
 45 45 45 45 55 55.5 c 128,-1,21
 65 66 65 66 80 66 c 0,0,1
EndSplineSet
EndChar
StartChar: period
Encoding: 46 46 320
Width: 161
Flags: W
LayerCount: 2
Back
Fore
SplineSet
81 66 m 0,0,1
 95 66 95 66 105.5 55.5 c 128,-1,2
 116 45 116 45 116 30 c 0,3,4
 116 16 116 16 105.5 5 c 128,-1,5
 95 -6 95 -6 81 -6 c 0,6,7
 65 -6 65 -6 55 5 c 128,-1,8
 45 16 45 16 45 30 c 0,9,10
 45 45 45 45 55 55.5 c 128,-1,11
 65 66 65 66 81 66 c 0,0,1
EndSplineSet
EndChar
StartChar: slash
Encoding: 47 47 363
Width: 468
Flags: W
LayerCount: 2
Back
Fore
SplineSet
55 -9 m 2,0,1
 49 -20 49 -20 38 -20 c 0,2,3
 32 -20 32 -20 27 -16 c 128,-1,4
 22 -12 22 -12 22 -5 c 0,5,6
 22 1 22 1 24 4 c 2,7,-1
 415 760 l 2,8,9
 419 768 419 768 428 768 c 0,10,11
 434 768 434 768 440 762.5 c 128,-1,12
 446 757 446 757 446 749 c 0,13,14
 446 744 446 744 443 738 c 2,15,-1
 55 -9 l 2,0,1
EndSplineSet
EndChar
StartChar: zero
Encoding: 48 48 415
Width: 521
Flags: W
LayerCount: 2
Back
Fore
SplineSet
260 -6 m 256,0,1
 219 -6 219 -6 183 5 c 128,-1,2
 147 16 147 16 121 40.5 c 128,-1,3
 95 65 95 65 80 104.5 c 128,-1,4
 65 144 65 144 65 200 c 2,5,-1
 65 525 l 2,6,7
 65 581 65 581 80 620.5 c 128,-1,8
 95 660 95 660 121 684.5 c 128,-1,9
 147 709 147 709 183 720 c 128,-1,10
 219 731 219 731 260 731 c 256,11,12
 301 731 301 731 337 720 c 128,-1,13
 373 709 373 709 399.5 684.5 c 128,-1,14
 426 660 426 660 441 620.5 c 128,-1,15
 456 581 456 581 456 525 c 2,16,-1
 456 200 l 2,17,18
 456 144 456 144 441 104.5 c 128,-1,19
 426 65 426 65 399.5 40.5 c 128,-1,20
 373 16 373 16 337 5 c 128,-1,21
 301 -6 301 -6 260 -6 c 256,0,1
420 525 m 2,22,23
 420 613 420 613 377.5 654 c 128,-1,24
 335 695 335 695 260 695 c 256,25,26
 185 695 185 695 143 654 c 128,-1,27
 101 613 101 613 101 525 c 2,28,-1
 101 200 l 2,29,30
 101 112 101 112 143 71 c 128,-1,31
 185 30 185 30 260 30 c 256,32,33
 335 30 335 30 377.5 71 c 128,-1,34
 420 112 420 112 420 200 c 2,35,-1
 420 525 l 2,22,23
261 393 m 0,36,37
 274 393 274 393 283 384 c 128,-1,38
 292 375 292 375 292 362 c 256,39,40
 292 349 292 349 283 339.5 c 128,-1,41
 274 330 274 330 261 330 c 0,42,43
 247 330 247 330 238 339.5 c 128,-1,44
 229 349 229 349 229 362 c 256,45,46
 229 375 229 375 238 384 c 128,-1,47
 247 393 247 393 261 393 c 0,36,37
EndSplineSet
EndChar
StartChar: one
Encoding: 49 49 301
Width: 209
Flags: W
LayerCount: 2
Back
Fore
SplineSet
95 714 m 2,0,1
 99 721 99 721 103.5 726 c 128,-1,2
 108 731 108 731 118 731 c 0,3,4
 134 731 134 731 134 714 c 2,5,-1
 134 18 l 2,6,7
 134 9 134 9 128.5 4.5 c 128,-1,8
 123 0 123 0 116 0 c 256,9,10
 109 0 109 0 103.5 4.5 c 128,-1,11
 98 9 98 9 98 18 c 2,12,-1
 98 639 l 1,13,-1
 55 559 l 2,14,15
 48 546 48 546 37 546 c 0,16,17
 29 546 29 546 24 551 c 128,-1,18
 19 556 19 556 19 563 c 0,19,20
 19 568 19 568 23 575.5 c 128,-1,21
 27 583 27 583 29 586 c 2,22,-1
 95 714 l 2,0,1
EndSplineSet
Substitution2: "'lnum' Lining Figures in Latin lookup 8 subtable" one.lnum
Substitution2: "'aalt' Access All Alternates in Latin lookup 0 subtable" one.lnum
EndChar
StartChar: two
Encoding: 50 50 379
Width: 461
Flags: W
LayerCount: 2
Back
Fore
SplineSet
56 574 m 0,0,1
 56 607 56 607 69 635.5 c 128,-1,2
 82 664 82 664 105 685 c 128,-1,3
 128 706 128 706 160 718.5 c 128,-1,4
 192 731 192 731 231 731 c 0,5,6
 274 731 274 731 309 715.5 c 128,-1,7
 344 700 344 700 368.5 674.5 c 128,-1,8
 393 649 393 649 406 615 c 128,-1,9
 419 581 419 581 419 544 c 0,10,11
 419 490 419 490 393.5 448 c 128,-1,12
 368 406 368 406 329.5 370.5 c 128,-1,13
 291 335 291 335 246.5 304.5 c 128,-1,14
 202 274 202 274 163.5 244 c 128,-1,15
 125 214 125 214 99.5 183 c 128,-1,16
 74 152 74 152 74 115 c 2,17,-1
 74 36 l 1,18,-1
 412 36 l 2,19,20
 419 36 419 36 424 31 c 128,-1,21
 429 26 429 26 429 18 c 0,22,23
 429 11 429 11 424 5.5 c 128,-1,24
 419 0 419 0 412 0 c 2,25,-1
 56 0 l 2,26,27
 50 0 50 0 44 5 c 128,-1,28
 38 10 38 10 38 18 c 2,29,-1
 38 115 l 2,30,31
 38 157 38 157 63.5 192 c 128,-1,32
 89 227 89 227 127.5 258.5 c 128,-1,33
 166 290 166 290 210.5 320.5 c 128,-1,34
 255 351 255 351 293.5 384.5 c 128,-1,35
 332 418 332 418 357.5 456.5 c 128,-1,36
 383 495 383 495 383 543 c 0,37,38
 383 570 383 570 373.5 597.5 c 128,-1,39
 364 625 364 625 345 646.5 c 128,-1,40
 326 668 326 668 297 681.5 c 128,-1,41
 268 695 268 695 229 695 c 0,42,43
 170 695 170 695 131 661.5 c 128,-1,44
 92 628 92 628 92 563 c 0,45,46
 92 557 92 557 87.5 551.5 c 128,-1,47
 83 546 83 546 73 546 c 0,48,49
 56 546 56 546 56 574 c 0,0,1
EndSplineSet
EndChar
StartChar: three
Encoding: 51 51 372
Width: 473
Flags: W
LayerCount: 2
Back
Fore
SplineSet
230 369 m 0,0,1
 220 369 220 369 215.5 374.5 c 128,-1,2
 211 380 211 380 211 387 c 256,3,4
 211 394 211 394 215.5 399.5 c 128,-1,5
 220 405 220 405 229 405 c 0,6,7
 300 405 300 405 335 437 c 128,-1,8
 370 469 370 469 370 548 c 0,9,10
 370 620 370 620 338.5 657.5 c 128,-1,11
 307 695 307 695 233 695 c 0,12,13
 186 695 186 695 157.5 681.5 c 128,-1,14
 129 668 129 668 113.5 649 c 128,-1,15
 98 630 98 630 92.5 608 c 128,-1,16
 87 586 87 586 87 570 c 0,17,18
 87 546 87 546 69 546 c 0,19,20
 61 546 61 546 56 552.5 c 128,-1,21
 51 559 51 559 51 576 c 0,22,23
 51 594 51 594 58 620 c 128,-1,24
 65 646 65 646 85.5 671 c 128,-1,25
 106 696 106 696 142 713.5 c 128,-1,26
 178 731 178 731 236 731 c 0,27,28
 274 731 274 731 305.5 721.5 c 128,-1,29
 337 712 337 712 359.5 691.5 c 128,-1,30
 382 671 382 671 394 638 c 128,-1,31
 406 605 406 605 406 557 c 0,32,33
 406 484 406 484 381 443.5 c 128,-1,34
 356 403 356 403 322 386 c 1,35,36
 367 367 367 367 395.5 327.5 c 128,-1,37
 424 288 424 288 424 219 c 2,38,-1
 424 200 l 2,39,40
 424 144 424 144 408.5 104.5 c 128,-1,41
 393 65 393 65 367 40.5 c 128,-1,42
 341 16 341 16 305.5 5 c 128,-1,43
 270 -6 270 -6 230 -6 c 0,44,45
 180 -6 180 -6 143.5 8.5 c 128,-1,46
 107 23 107 23 82 46 c 128,-1,47
 57 69 57 69 45 96.5 c 128,-1,48
 33 124 33 124 33 151 c 0,49,50
 33 168 33 168 37 173.5 c 128,-1,51
 41 179 41 179 49 179 c 0,52,53
 60 179 60 179 64 172.5 c 128,-1,54
 68 166 68 166 68 158 c 0,55,56
 68 143 68 143 74.5 121 c 128,-1,57
 81 99 81 99 98 78.5 c 128,-1,58
 115 58 115 58 146 44 c 128,-1,59
 177 30 177 30 226 30 c 0,60,61
 303 30 303 30 345.5 71 c 128,-1,62
 388 112 388 112 388 200 c 2,63,-1
 388 219 l 2,64,65
 388 294 388 294 345.5 331.5 c 128,-1,66
 303 369 303 369 230 369 c 0,0,1
EndSplineSet
EndChar
StartChar: four
Encoding: 52 52 224
Width: 417
Flags: W
LayerCount: 2
Back
Fore
SplineSet
289 178 m 1,0,-1
 28 178 l 2,1,2
 19 178 19 178 15 183.5 c 128,-1,3
 11 189 11 189 11 196 c 256,4,5
 11 203 11 203 14 208 c 2,6,-1
 271 717 l 2,7,8
 278 731 278 731 291 731 c 0,9,10
 298 731 298 731 303 726.5 c 128,-1,11
 308 722 308 722 308 715 c 0,12,13
 308 710 308 710 305 704 c 2,14,-1
 57 214 l 1,15,-1
 289 214 l 1,16,-1
 289 448 l 2,17,18
 289 457 289 457 294.5 461 c 128,-1,19
 300 465 300 465 307 465 c 256,20,21
 314 465 314 465 319.5 461 c 128,-1,22
 325 457 325 457 325 448 c 2,23,-1
 325 214 l 1,24,-1
 384 214 l 2,25,26
 393 214 393 214 397.5 208.5 c 128,-1,27
 402 203 402 203 402 196 c 256,28,29
 402 189 402 189 397.5 183.5 c 128,-1,30
 393 178 393 178 384 178 c 2,31,-1
 325 178 l 1,32,-1
 325 18 l 2,33,34
 325 9 325 9 319.5 4.5 c 128,-1,35
 314 0 314 0 307 0 c 256,36,37
 300 0 300 0 294.5 4.5 c 128,-1,38
 289 9 289 9 289 18 c 2,39,-1
 289 178 l 1,0,-1
EndSplineSet
EndChar
StartChar: five
Encoding: 53 53 218
Width: 459
Flags: W
LayerCount: 2
Back
Fore
SplineSet
228 419 m 2,0,1
 269 419 269 419 304.5 408.5 c 128,-1,2
 340 398 340 398 366.5 374 c 128,-1,3
 393 350 393 350 408 312 c 128,-1,4
 423 274 423 274 423 219 c 2,5,-1
 423 200 l 2,6,7
 423 144 423 144 408 104.5 c 128,-1,8
 393 65 393 65 366.5 40.5 c 128,-1,9
 340 16 340 16 304 5 c 128,-1,10
 268 -6 268 -6 227 -6 c 0,11,12
 181 -6 181 -6 144.5 7 c 128,-1,13
 108 20 108 20 83 42.5 c 128,-1,14
 58 65 58 65 45 95 c 128,-1,15
 32 125 32 125 32 159 c 0,16,17
 32 170 32 170 37 174.5 c 128,-1,18
 42 179 42 179 49 179 c 256,19,20
 56 179 56 179 62 174.5 c 128,-1,21
 68 170 68 170 68 161 c 0,22,23
 68 130 68 130 80.5 105.5 c 128,-1,24
 93 81 93 81 114.5 64.5 c 128,-1,25
 136 48 136 48 165 39 c 128,-1,26
 194 30 194 30 227 30 c 0,27,28
 302 30 302 30 344.5 71 c 128,-1,29
 387 112 387 112 387 200 c 2,30,-1
 387 219 l 2,31,32
 387 303 387 303 345 343 c 128,-1,33
 303 383 303 383 228 383 c 2,34,-1
 93 383 l 2,35,36
 76 383 76 383 72 387.5 c 128,-1,37
 68 392 68 392 68 397 c 0,38,39
 68 399 68 399 68.5 405.5 c 128,-1,40
 69 412 69 412 69 414 c 2,41,-1
 87 713 l 2,42,43
 89 731 89 731 105 731 c 2,44,-1
 372 731 l 2,45,46
 380 731 380 731 383.5 725.5 c 128,-1,47
 387 720 387 720 387 713 c 256,48,49
 387 706 387 706 383.5 700.5 c 128,-1,50
 380 695 380 695 372 695 c 2,51,-1
 123 695 l 1,52,-1
 104 419 l 1,53,-1
 228 419 l 2,0,1
EndSplineSet
EndChar
StartChar: six
Encoding: 54 54 360
Width: 504
Flags: W
LayerCount: 2
Back
Fore
SplineSet
261 425 m 0,0,1
 302 425 302 425 337.5 415.5 c 128,-1,2
 373 406 373 406 399.5 383.5 c 128,-1,3
 426 361 426 361 441 323 c 128,-1,4
 456 285 456 285 456 229 c 2,5,-1
 456 200 l 2,6,7
 456 144 456 144 441 104.5 c 128,-1,8
 426 65 426 65 399.5 40.5 c 128,-1,9
 373 16 373 16 337.5 5 c 128,-1,10
 302 -6 302 -6 261 -6 c 256,11,12
 220 -6 220 -6 184 5 c 128,-1,13
 148 16 148 16 121.5 40.5 c 128,-1,14
 95 65 95 65 80 104.5 c 128,-1,15
 65 144 65 144 65 200 c 2,16,-1
 65 525 l 2,17,18
 65 581 65 581 80 620.5 c 128,-1,19
 95 660 95 660 121 684.5 c 128,-1,20
 147 709 147 709 183 720 c 128,-1,21
 219 731 219 731 260 731 c 0,22,23
 306 731 306 731 342.5 717.5 c 128,-1,24
 379 704 379 704 404 681.5 c 128,-1,25
 429 659 429 659 442.5 629 c 128,-1,26
 456 599 456 599 456 566 c 0,27,28
 456 555 456 555 451 550.5 c 128,-1,29
 446 546 446 546 439 546 c 256,30,31
 432 546 432 546 426 550.5 c 128,-1,32
 420 555 420 555 420 564 c 0,33,34
 420 594 420 594 407.5 618 c 128,-1,35
 395 642 395 642 373 659 c 128,-1,36
 351 676 351 676 322 685.5 c 128,-1,37
 293 695 293 695 260 695 c 0,38,39
 185 695 185 695 143 654 c 128,-1,40
 101 613 101 613 101 525 c 2,41,-1
 101 351 l 1,42,43
 127 389 127 389 168.5 407 c 128,-1,44
 210 425 210 425 261 425 c 0,0,1
101 200 m 2,45,46
 101 112 101 112 143.5 71 c 128,-1,47
 186 30 186 30 261 30 c 256,48,49
 336 30 336 30 378 71 c 128,-1,50
 420 112 420 112 420 200 c 2,51,-1
 420 229 l 2,52,53
 420 316 420 316 378 352.5 c 128,-1,54
 336 389 336 389 261 389 c 0,55,56
 188 389 188 389 144.5 354.5 c 128,-1,57
 101 320 101 320 101 238 c 2,58,-1
 101 200 l 2,45,46
EndSplineSet
EndChar
StartChar: seven
Encoding: 55 55 356
Width: 442
Flags: W
LayerCount: 2
Back
Fore
SplineSet
424 641 m 2,0,1
 424 636 424 636 422 633 c 2,2,-1
 104 10 l 2,3,4
 99 0 99 0 89 0 c 0,5,6
 81 0 81 0 75 3.5 c 128,-1,7
 69 7 69 7 69 15 c 0,8,9
 69 20 69 20 72 26 c 2,10,-1
 388 646 l 1,11,-1
 388 695 l 1,12,-1
 69 695 l 1,13,-1
 69 564 l 2,14,15
 69 556 69 556 63.5 551 c 128,-1,16
 58 546 58 546 51 546 c 0,17,18
 43 546 43 546 38 551 c 128,-1,19
 33 556 33 556 33 564 c 2,20,-1
 33 713 l 2,21,22
 33 720 33 720 38.5 725.5 c 128,-1,23
 44 731 44 731 51 731 c 2,24,-1
 406 731 l 2,25,26
 412 731 412 731 418 725.5 c 128,-1,27
 424 720 424 720 424 713 c 2,28,-1
 424 641 l 2,0,1
EndSplineSet
EndChar
StartChar: eight
Encoding: 56 56 202
Width: 489
Flags: W
LayerCount: 2
Back
Fore
SplineSet
245 731 m 0,0,1
 282 731 282 731 314.5 722.5 c 128,-1,2
 347 714 347 714 371 694 c 128,-1,3
 395 674 395 674 408.5 640.5 c 128,-1,4
 422 607 422 607 422 557 c 0,5,6
 422 491 422 491 398.5 453 c 128,-1,7
 375 415 375 415 337 398 c 1,8,9
 384 378 384 378 412 334 c 128,-1,10
 440 290 440 290 440 212 c 2,11,-1
 440 200 l 2,12,13
 440 144 440 144 425 105 c 128,-1,14
 410 66 410 66 383.5 41 c 128,-1,15
 357 16 357 16 321.5 5 c 128,-1,16
 286 -6 286 -6 245 -6 c 256,17,18
 204 -6 204 -6 168 5 c 128,-1,19
 132 16 132 16 105.5 41 c 128,-1,20
 79 66 79 66 64 105 c 128,-1,21
 49 144 49 144 49 200 c 2,22,-1
 49 212 l 2,23,24
 49 290 49 290 77.5 334 c 128,-1,25
 106 378 106 378 153 398 c 1,26,27
 115 415 115 415 91.5 453 c 128,-1,28
 68 491 68 491 68 557 c 0,29,30
 68 607 68 607 81.5 640.5 c 128,-1,31
 95 674 95 674 119 694 c 128,-1,32
 143 714 143 714 175 722.5 c 128,-1,33
 207 731 207 731 245 731 c 0,0,1
404 212 m 2,34,35
 404 299 404 299 362 339 c 128,-1,36
 320 379 320 379 245 379 c 256,37,38
 170 379 170 379 127.5 339 c 128,-1,39
 85 299 85 299 85 212 c 2,40,-1
 85 200 l 2,41,42
 85 112 85 112 128 71 c 128,-1,43
 171 30 171 30 246 30 c 256,44,45
 321 30 321 30 362.5 71.5 c 128,-1,46
 404 113 404 113 404 200 c 2,47,-1
 404 212 l 2,34,35
245 695 m 256,48,49
 179 695 179 695 141.5 663.5 c 128,-1,50
 104 632 104 632 104 557 c 256,51,52
 104 482 104 482 141.5 449 c 128,-1,53
 179 416 179 416 245 416 c 256,54,55
 311 416 311 416 348.5 449 c 128,-1,56
 386 482 386 482 386 557 c 256,57,58
 386 632 386 632 348.5 663.5 c 128,-1,59
 311 695 311 695 245 695 c 256,48,49
EndSplineSet
EndChar
StartChar: nine
Encoding: 57 57 285
Width: 504
Flags: W
LayerCount: 2
Back
Fore
SplineSet
243 300 m 0,0,1
 202 300 202 300 166 309.5 c 128,-1,2
 130 319 130 319 104 341.5 c 128,-1,3
 78 364 78 364 63 402 c 128,-1,4
 48 440 48 440 48 496 c 2,5,-1
 48 525 l 2,6,7
 48 581 48 581 63 620.5 c 128,-1,8
 78 660 78 660 104 684.5 c 128,-1,9
 130 709 130 709 166 720 c 128,-1,10
 202 731 202 731 243 731 c 256,11,12
 284 731 284 731 320 720 c 128,-1,13
 356 709 356 709 382.5 684.5 c 128,-1,14
 409 660 409 660 424 620.5 c 128,-1,15
 439 581 439 581 439 525 c 2,16,-1
 439 200 l 2,17,18
 439 144 439 144 424 104.5 c 128,-1,19
 409 65 409 65 382.5 40.5 c 128,-1,20
 356 16 356 16 320.5 5 c 128,-1,21
 285 -6 285 -6 244 -6 c 0,22,23
 198 -6 198 -6 161.5 7.5 c 128,-1,24
 125 21 125 21 100 43.5 c 128,-1,25
 75 66 75 66 61.5 96 c 128,-1,26
 48 126 48 126 48 159 c 0,27,28
 48 170 48 170 53 174.5 c 128,-1,29
 58 179 58 179 65 179 c 256,30,31
 72 179 72 179 78 174.5 c 128,-1,32
 84 170 84 170 84 161 c 0,33,34
 84 131 84 131 96.5 107 c 128,-1,35
 109 83 109 83 131 66 c 128,-1,36
 153 49 153 49 182 39.5 c 128,-1,37
 211 30 211 30 244 30 c 0,38,39
 319 30 319 30 361 71 c 128,-1,40
 403 112 403 112 403 200 c 2,41,-1
 403 374 l 1,42,43
 377 336 377 336 335.5 318 c 128,-1,44
 294 300 294 300 243 300 c 0,0,1
403 525 m 2,45,46
 403 613 403 613 360.5 654 c 128,-1,47
 318 695 318 695 243 695 c 256,48,49
 168 695 168 695 126 654 c 128,-1,50
 84 613 84 613 84 525 c 2,51,-1
 84 496 l 2,52,53
 84 409 84 409 126 372.5 c 128,-1,54
 168 336 168 336 243 336 c 0,55,56
 279 336 279 336 308.5 344 c 128,-1,57
 338 352 338 352 359 370 c 128,-1,58
 380 388 380 388 391.5 417 c 128,-1,59
 403 446 403 446 403 487 c 2,60,-1
 403 525 l 2,45,46
EndSplineSet
EndChar
StartChar: colon
Encoding: 58 58 177
Width: 193
Flags: W
LayerCount: 2
Back
Fore
SplineSet
97 66 m 0,0,1
 111 66 111 66 121.5 55.5 c 128,-1,2
 132 45 132 45 132 30 c 0,3,4
 132 16 132 16 121.5 5 c 128,-1,5
 111 -6 111 -6 97 -6 c 0,6,7
 81 -6 81 -6 71 5 c 128,-1,8
 61 16 61 16 61 30 c 0,9,10
 61 45 61 45 71 55.5 c 128,-1,11
 81 66 81 66 97 66 c 0,0,1
97 422 m 0,12,13
 111 422 111 422 121.5 411.5 c 128,-1,14
 132 401 132 401 132 386 c 0,15,16
 132 372 132 372 121.5 361 c 128,-1,17
 111 350 111 350 97 350 c 0,18,19
 81 350 81 350 71 361 c 128,-1,20
 61 372 61 372 61 386 c 0,21,22
 61 401 61 401 71 411.5 c 128,-1,23
 81 422 81 422 97 422 c 0,12,13
EndSplineSet
EndChar
StartChar: semicolon
Encoding: 59 59 355
Width: 195
Flags: W
LayerCount: 2
Back
Fore
SplineSet
98 422 m 0,0,1
 112 422 112 422 122.5 411.5 c 128,-1,2
 133 401 133 401 133 386 c 0,3,4
 133 372 133 372 122.5 361 c 128,-1,5
 112 350 112 350 98 350 c 0,6,7
 82 350 82 350 72 361 c 128,-1,8
 62 372 62 372 62 386 c 0,9,10
 62 401 62 401 72 411.5 c 128,-1,11
 82 422 82 422 98 422 c 0,0,1
96 66 m 0,12,13
 109 66 109 66 120.5 57 c 128,-1,14
 132 48 132 48 132 29 c 0,15,16
 132 27 132 27 131.5 22.5 c 128,-1,17
 131 18 131 18 128 8 c 128,-1,18
 125 -2 125 -2 118.5 -19.5 c 128,-1,19
 112 -37 112 -37 101 -66 c 0,20,21
 96 -77 96 -77 85 -77 c 0,22,23
 79 -77 79 -77 74 -73.5 c 128,-1,24
 69 -70 69 -70 69 -64 c 0,25,26
 69 -59 69 -59 70 -56 c 2,27,-1
 88 -5 l 1,28,29
 76 -2 76 -2 68.5 8 c 128,-1,30
 61 18 61 18 61 30 c 0,31,32
 61 45 61 45 71 55.5 c 128,-1,33
 81 66 81 66 96 66 c 0,12,13
EndSplineSet
EndChar
StartChar: less
Encoding: 60 60 269
Width: 395
Flags: W
LayerCount: 2
Back
Fore
SplineSet
76 277 m 1,0,-1
 334 106 l 2,1,2
 343 101 343 101 343 91 c 0,3,4
 343 83 343 83 337 78.5 c 128,-1,5
 331 74 331 74 324 74 c 0,6,7
 319 74 319 74 315 77 c 2,8,-1
 40 259 l 2,9,10
 36 261 36 261 33 266 c 128,-1,11
 30 271 30 271 30 277 c 256,12,13
 30 283 30 283 33.5 288.5 c 128,-1,14
 37 294 37 294 40 296 c 2,15,-1
 315 478 l 2,16,17
 319 481 319 481 324 481 c 0,18,19
 331 481 331 481 337 476.5 c 128,-1,20
 343 472 343 472 343 464 c 0,21,22
 343 454 343 454 334 449 c 2,23,-1
 76 277 l 1,0,-1
EndSplineSet
EndChar
StartChar: equal
Encoding: 61 61 211
Width: 431
Flags: W
LayerCount: 2
Back
Fore
SplineSet
73 176 m 0,0,1
 73 184 73 184 77.5 189 c 128,-1,2
 82 194 82 194 90 194 c 2,3,-1
 340 194 l 2,4,5
 347 194 347 194 352.5 189 c 128,-1,6
 358 184 358 184 358 176 c 256,7,8
 358 168 358 168 352.5 163.5 c 128,-1,9
 347 159 347 159 340 159 c 2,10,-1
 90 159 l 2,11,12
 73 159 73 159 73 176 c 0,0,1
73 379 m 0,13,14
 73 387 73 387 77.5 392 c 128,-1,15
 82 397 82 397 90 397 c 2,16,-1
 340 397 l 2,17,18
 347 397 347 397 352.5 392 c 128,-1,19
 358 387 358 387 358 379 c 256,20,21
 358 371 358 371 352.5 366.5 c 128,-1,22
 347 362 347 362 340 362 c 2,23,-1
 90 362 l 2,24,25
 73 362 73 362 73 379 c 0,13,14
EndSplineSet
EndChar
StartChar: greater
Encoding: 62 62 236
Width: 395
Flags: W
LayerCount: 2
Back
Fore
SplineSet
61 449 m 2,0,1
 52 454 52 454 52 464 c 0,2,3
 52 472 52 472 58 476.5 c 128,-1,4
 64 481 64 481 71 481 c 0,5,6
 75 481 75 481 80 478 c 2,7,-1
 355 296 l 2,8,9
 358 294 358 294 361.5 288.5 c 128,-1,10
 365 283 365 283 365 277 c 256,11,12
 365 271 365 271 362 266 c 128,-1,13
 359 261 359 261 355 259 c 2,14,-1
 80 77 l 2,15,16
 75 74 75 74 71 74 c 0,17,18
 64 74 64 74 58 78.5 c 128,-1,19
 52 83 52 83 52 91 c 0,20,21
 52 101 52 101 61 106 c 2,22,-1
 319 277 l 1,23,-1
 61 449 l 2,0,1
EndSplineSet
EndChar
StartChar: question
Encoding: 63 63 329
Width: 383
Flags: W
LayerCount: 2
Back
Fore
SplineSet
345 566 m 0,0,1
 345 515 345 515 328.5 478.5 c 128,-1,2
 312 442 312 442 289.5 414.5 c 128,-1,3
 267 387 267 387 243 365.5 c 128,-1,4
 219 344 219 344 204 325 c 0,5,6
 194 313 194 313 188.5 298 c 128,-1,7
 183 283 183 283 180.5 263.5 c 128,-1,8
 178 244 178 244 177.5 219.5 c 128,-1,9
 177 195 177 195 177 164 c 0,10,11
 177 155 177 155 171.5 151 c 128,-1,12
 166 147 166 147 160 147 c 256,13,14
 154 147 154 147 148.5 151 c 128,-1,15
 143 155 143 155 143 164 c 0,16,17
 143 209 143 209 145 239 c 128,-1,18
 147 269 147 269 151.5 289 c 128,-1,19
 156 309 156 309 162.5 321.5 c 128,-1,20
 169 334 169 334 178 345 c 0,21,22
 194 364 194 364 217 384 c 128,-1,23
 240 404 240 404 260.5 429 c 128,-1,24
 281 454 281 454 295.5 487 c 128,-1,25
 310 520 310 520 310 565 c 0,26,27
 310 634 310 634 272.5 673.5 c 128,-1,28
 235 713 235 713 160 713 c 0,29,30
 128 713 128 713 107.5 706.5 c 128,-1,31
 87 700 87 700 74 692.5 c 128,-1,32
 61 685 61 685 53 679 c 128,-1,33
 45 673 45 673 39 673 c 0,34,35
 34 673 34 673 29.5 677.5 c 128,-1,36
 25 682 25 682 25 690 c 0,37,38
 25 699 25 699 36.5 709.5 c 128,-1,39
 48 720 48 720 67.5 728.5 c 128,-1,40
 87 737 87 737 112 742.5 c 128,-1,41
 137 748 137 748 164 748 c 0,42,43
 210 748 210 748 244.5 734 c 128,-1,44
 279 720 279 720 301 695 c 128,-1,45
 323 670 323 670 334 637 c 128,-1,46
 345 604 345 604 345 566 c 0,0,1
160 66 m 0,47,48
 174 66 174 66 184.5 55.5 c 128,-1,49
 195 45 195 45 195 30 c 0,50,51
 195 16 195 16 185 5 c 128,-1,52
 175 -6 175 -6 160 -6 c 0,53,54
 144 -6 144 -6 134 5 c 128,-1,55
 124 16 124 16 124 30 c 0,56,57
 124 45 124 45 134.5 55.5 c 128,-1,58
 145 66 145 66 160 66 c 0,47,48
EndSplineSet
EndChar
StartChar: at
Encoding: 64 64 153
Width: 707
Flags: W
LayerCount: 2
Back
Fore
SplineSet
236 374 m 0,0,1
 236 383 236 383 247 390 c 128,-1,2
 258 397 258 397 275 402.5 c 128,-1,3
 292 408 292 408 313.5 411 c 128,-1,4
 335 414 335 414 355 414 c 0,5,6
 421 414 421 414 454.5 381.5 c 128,-1,7
 488 349 488 349 488 289 c 2,8,-1
 488 125 l 2,9,10
 490 104 490 104 510 89 c 128,-1,11
 530 74 530 74 553 74 c 0,12,13
 575 74 575 74 589 89 c 128,-1,14
 603 104 603 104 611 127 c 128,-1,15
 619 150 619 150 622 178 c 128,-1,16
 625 206 625 206 625 233 c 0,17,18
 625 299 625 299 609 351 c 128,-1,19
 593 403 593 403 560 439.5 c 128,-1,20
 527 476 527 476 477 495.5 c 128,-1,21
 427 515 427 515 360 515 c 0,22,23
 285 515 285 515 234.5 490.5 c 128,-1,24
 184 466 184 466 153 425 c 128,-1,25
 122 384 122 384 108.5 331 c 128,-1,26
 95 278 95 278 95 221 c 0,27,28
 95 168 95 168 107 118.5 c 128,-1,29
 119 69 119 69 146.5 30.5 c 128,-1,30
 174 -8 174 -8 219 -31.5 c 128,-1,31
 264 -55 264 -55 329 -55 c 0,32,33
 363 -55 363 -55 387.5 -50 c 128,-1,34
 412 -45 412 -45 429.5 -38.5 c 128,-1,35
 447 -32 447 -32 457.5 -27 c 128,-1,36
 468 -22 468 -22 475 -22 c 0,37,38
 481 -22 481 -22 485.5 -26.5 c 128,-1,39
 490 -31 490 -31 490 -36 c 0,40,41
 490 -44 490 -44 476 -53.5 c 128,-1,42
 462 -63 462 -63 439 -71 c 128,-1,43
 416 -79 416 -79 386.5 -84.5 c 128,-1,44
 357 -90 357 -90 326 -90 c 0,45,46
 275 -90 275 -90 227 -72 c 128,-1,47
 179 -54 179 -54 142 -16.5 c 128,-1,48
 105 21 105 21 83 80 c 128,-1,49
 61 139 61 139 61 220 c 0,50,51
 61 288 61 288 77.5 348.5 c 128,-1,52
 94 409 94 409 130.5 454 c 128,-1,53
 167 499 167 499 224.5 525.5 c 128,-1,54
 282 552 282 552 363 552 c 0,55,56
 507 552 507 552 583 472 c 128,-1,57
 659 392 659 392 659 234 c 0,58,59
 659 198 659 198 654 163 c 128,-1,60
 649 128 649 128 637 101 c 128,-1,61
 625 74 625 74 604 57.5 c 128,-1,62
 583 41 583 41 551 41 c 0,63,64
 516 41 516 41 490 60 c 128,-1,65
 464 79 464 79 457 102 c 1,66,67
 431 77 431 77 405.5 64.5 c 128,-1,68
 380 52 380 52 336 52 c 0,69,70
 309 52 309 52 286 57.5 c 128,-1,71
 263 63 263 63 246 75 c 128,-1,72
 229 87 229 87 219.5 107.5 c 128,-1,73
 210 128 210 128 210 158 c 0,74,75
 210 192 210 192 223 213 c 128,-1,76
 236 234 236 234 261 246 c 128,-1,77
 286 258 286 258 322 262.5 c 128,-1,78
 358 267 358 267 404 267 c 2,79,-1
 453 267 l 1,80,-1
 453 288 l 2,81,82
 453 335 453 335 427.5 357 c 128,-1,83
 402 379 402 379 346 379 c 0,84,85
 321 379 321 379 305.5 375.5 c 128,-1,86
 290 372 290 372 280.5 367.5 c 128,-1,87
 271 363 271 363 265 359.5 c 128,-1,88
 259 356 259 356 253 356 c 0,89,90
 245 356 245 356 240.5 362.5 c 128,-1,91
 236 369 236 369 236 374 c 0,0,1
453 233 m 1,92,-1
 405 233 l 2,93,94
 371 233 371 233 342 231 c 128,-1,95
 313 229 313 229 291.5 221.5 c 128,-1,96
 270 214 270 214 257.5 199 c 128,-1,97
 245 184 245 184 245 157 c 0,98,99
 245 118 245 118 270.5 101.5 c 128,-1,100
 296 85 296 85 334 85 c 0,101,102
 363 85 363 85 385.5 92.5 c 128,-1,103
 408 100 408 100 423 112 c 128,-1,104
 438 124 438 124 445.5 138.5 c 128,-1,105
 453 153 453 153 453 166 c 2,106,-1
 453 233 l 1,92,-1
EndSplineSet
EndChar
StartChar: A
Encoding: 65 65 1
Width: 521
Flags: W
LayerCount: 2
Back
Fore
SplineSet
43 0 m 0,0,1
 36 0 36 0 30.5 4 c 128,-1,2
 25 8 25 8 25 16 c 0,3,4
 25 20 25 20 26 22 c 2,5,-1
 243 723 l 2,6,7
 247 737 247 737 261 737 c 256,8,9
 275 737 275 737 280 723 c 2,10,-1
 495 22 l 2,11,12
 495 20 495 20 495.5 19.5 c 128,-1,13
 496 19 496 19 496 17 c 0,14,15
 496 10 496 10 490 5 c 128,-1,16
 484 0 484 0 476 0 c 0,17,18
 464 0 464 0 460 13 c 2,19,-1
 409 177 l 1,20,-1
 111 177 l 1,21,-1
 61 13 l 2,22,23
 57 0 57 0 43 0 c 0,0,1
398 213 m 1,24,-1
 261 661 l 1,25,-1
 122 213 l 1,26,-1
 398 213 l 1,24,-1
EndSplineSet
EndChar
StartChar: B
Encoding: 66 66 13
Width: 527
Flags: W
LayerCount: 2
Back
Fore
SplineSet
83 713 m 2,0,1
 83 722 83 722 88.5 726.5 c 128,-1,2
 94 731 94 731 101 731 c 2,3,-1
 251 731 l 2,4,5
 294 731 294 731 331.5 724.5 c 128,-1,6
 369 718 369 718 397 700 c 128,-1,7
 425 682 425 682 440.5 649 c 128,-1,8
 456 616 456 616 456 564 c 0,9,10
 456 499 456 499 432.5 456 c 128,-1,11
 409 413 409 413 371 396 c 1,12,13
 394 386 394 386 413 372 c 128,-1,14
 432 358 432 358 445.5 337 c 128,-1,15
 459 316 459 316 466.5 287.5 c 128,-1,16
 474 259 474 259 474 220 c 2,17,-1
 474 203 l 2,18,19
 474 147 474 147 459 108 c 128,-1,20
 444 69 444 69 417.5 45 c 128,-1,21
 391 21 391 21 355 10.5 c 128,-1,22
 319 0 319 0 278 0 c 2,23,-1
 101 0 l 2,24,25
 93 0 93 0 88 5 c 128,-1,26
 83 10 83 10 83 17 c 2,27,-1
 83 713 l 2,0,1
278 36 m 2,28,29
 353 36 353 36 395.5 75.5 c 128,-1,30
 438 115 438 115 438 203 c 2,31,-1
 438 220 l 2,32,33
 438 307 438 307 395.5 342.5 c 128,-1,34
 353 378 353 378 278 378 c 2,35,-1
 119 378 l 1,36,-1
 119 36 l 1,37,-1
 278 36 l 2,28,29
119 414 m 1,38,-1
 258 414 l 2,39,40
 299 414 299 414 329.5 421 c 128,-1,41
 360 428 360 428 380 445.5 c 128,-1,42
 400 463 400 463 410 491.5 c 128,-1,43
 420 520 420 520 420 564 c 0,44,45
 420 606 420 606 407.5 631.5 c 128,-1,46
 395 657 395 657 373 671 c 128,-1,47
 351 685 351 685 320 690 c 128,-1,48
 289 695 289 695 253 695 c 2,49,-1
 119 695 l 1,50,-1
 119 414 l 1,38,-1
EndSplineSet
EndChar
StartChar: C
Encoding: 67 67 14
Width: 512
Flags: W
LayerCount: 2
Back
Fore
SplineSet
112 200 m 2,0,1
 112 112 112 112 154 71 c 128,-1,2
 196 30 196 30 278 30 c 0,3,4
 327 30 327 30 356 43 c 128,-1,5
 385 56 385 56 401 76 c 128,-1,6
 417 96 417 96 422.5 118.5 c 128,-1,7
 428 141 428 141 431 161 c 0,8,9
 432 168 432 168 435 173.5 c 128,-1,10
 438 179 438 179 449 179 c 0,11,12
 458 179 458 179 462.5 173 c 128,-1,13
 467 167 467 167 467 150 c 0,14,15
 467 121 467 121 454.5 93 c 128,-1,16
 442 65 442 65 417.5 43 c 128,-1,17
 393 21 393 21 356.5 7.5 c 128,-1,18
 320 -6 320 -6 272 -6 c 0,19,20
 232 -6 232 -6 196.5 5 c 128,-1,21
 161 16 161 16 134 40.5 c 128,-1,22
 107 65 107 65 91.5 104.5 c 128,-1,23
 76 144 76 144 76 200 c 2,24,-1
 76 525 l 2,25,26
 76 581 76 581 92 620.5 c 128,-1,27
 108 660 108 660 135 684.5 c 128,-1,28
 162 709 162 709 198 720 c 128,-1,29
 234 731 234 731 275 731 c 0,30,31
 323 731 323 731 359 717.5 c 128,-1,32
 395 704 395 704 419 682 c 128,-1,33
 443 660 443 660 455 631.5 c 128,-1,34
 467 603 467 603 467 574 c 0,35,36
 467 557 467 557 462.5 551.5 c 128,-1,37
 458 546 458 546 449 546 c 0,38,39
 436 546 436 546 433.5 552.5 c 128,-1,40
 431 559 431 559 431 564 c 0,41,42
 430 582 430 582 423.5 604.5 c 128,-1,43
 417 627 417 627 400 647.5 c 128,-1,44
 383 668 383 668 353 681.5 c 128,-1,45
 323 695 323 695 274 695 c 0,46,47
 195 695 195 695 153.5 654 c 128,-1,48
 112 613 112 613 112 525 c 2,49,-1
 112 200 l 2,0,1
EndSplineSet
EndChar
StartChar: D
Encoding: 68 68 21
Width: 550
Flags: W
LayerCount: 2
Back
Fore
SplineSet
278 731 m 2,0,1
 319 731 319 731 355 720 c 128,-1,2
 391 709 391 709 417.5 684.5 c 128,-1,3
 444 660 444 660 459 620.5 c 128,-1,4
 474 581 474 581 474 525 c 2,5,-1
 474 206 l 2,6,7
 474 150 474 150 459 110.5 c 128,-1,8
 444 71 444 71 417.5 46.5 c 128,-1,9
 391 22 391 22 355 11 c 128,-1,10
 319 0 319 0 278 0 c 2,11,-1
 101 0 l 2,12,13
 93 0 93 0 88 5 c 128,-1,14
 83 10 83 10 83 17 c 2,15,-1
 83 714 l 2,16,17
 83 721 83 721 88 726 c 128,-1,18
 93 731 93 731 101 731 c 2,19,-1
 278 731 l 2,0,1
119 695 m 1,20,-1
 119 36 l 1,21,-1
 278 36 l 2,22,23
 353 36 353 36 395.5 77 c 128,-1,24
 438 118 438 118 438 206 c 2,25,-1
 438 525 l 2,26,27
 438 613 438 613 395.5 654 c 128,-1,28
 353 695 353 695 278 695 c 2,29,-1
 119 695 l 1,20,-1
EndSplineSet
EndChar
StartChar: E
Encoding: 69 69 25
Width: 498
Flags: W
LayerCount: 2
Back
Fore
SplineSet
119 384 m 1,0,-1
 279 384 l 2,1,2
 287 384 287 384 291.5 378.5 c 128,-1,3
 296 373 296 373 296 365 c 0,4,5
 296 359 296 359 292 353.5 c 128,-1,6
 288 348 288 348 279 348 c 2,7,-1
 119 348 l 1,8,-1
 119 36 l 1,9,-1
 457 36 l 2,10,11
 465 36 465 36 469.5 30.5 c 128,-1,12
 474 25 474 25 474 17 c 0,13,14
 474 11 474 11 470 5.5 c 128,-1,15
 466 0 466 0 457 0 c 2,16,-1
 101 0 l 2,17,18
 94 0 94 0 88.5 4.5 c 128,-1,19
 83 9 83 9 83 18 c 2,20,-1
 83 713 l 2,21,22
 83 722 83 722 88.5 726.5 c 128,-1,23
 94 731 94 731 101 731 c 2,24,-1
 457 731 l 2,25,26
 466 731 466 731 470 725.5 c 128,-1,27
 474 720 474 720 474 714 c 0,28,29
 474 706 474 706 469.5 700.5 c 128,-1,30
 465 695 465 695 457 695 c 2,31,-1
 119 695 l 1,32,-1
 119 384 l 1,0,-1
EndSplineSet
EndChar
StartChar: F
Encoding: 70 70 38
Width: 489
Flags: W
LayerCount: 2
Back
Fore
SplineSet
457 731 m 2,0,1
 466 731 466 731 470 725.5 c 128,-1,2
 474 720 474 720 474 714 c 0,3,4
 474 706 474 706 469.5 700.5 c 128,-1,5
 465 695 465 695 457 695 c 2,6,-1
 119 695 l 1,7,-1
 119 384 l 1,8,-1
 279 384 l 2,9,10
 287 384 287 384 291.5 378.5 c 128,-1,11
 296 373 296 373 296 365 c 0,12,13
 296 359 296 359 292 353.5 c 128,-1,14
 288 348 288 348 279 348 c 2,15,-1
 119 348 l 1,16,-1
 119 17 l 2,17,18
 119 8 119 8 113.5 4 c 128,-1,19
 108 0 108 0 101 0 c 256,20,21
 94 0 94 0 88.5 4 c 128,-1,22
 83 8 83 8 83 17 c 2,23,-1
 83 713 l 2,24,25
 83 722 83 722 88.5 726.5 c 128,-1,26
 94 731 94 731 101 731 c 2,27,-1
 457 731 l 2,0,1
EndSplineSet
EndChar
StartChar: G
Encoding: 71 71 39
Width: 531
Flags: W
LayerCount: 2
Back
Fore
SplineSet
272 348 m 2,0,1
 264 348 264 348 259.5 353.5 c 128,-1,2
 255 359 255 359 255 366 c 256,3,4
 255 373 255 373 259.5 378.5 c 128,-1,5
 264 384 264 384 272 384 c 2,6,-1
 450 384 l 2,7,8
 458 384 458 384 462.5 378.5 c 128,-1,9
 467 373 467 373 467 365 c 2,10,-1
 467 200 l 2,11,12
 467 144 467 144 452 104.5 c 128,-1,13
 437 65 437 65 410.5 40.5 c 128,-1,14
 384 16 384 16 348 5 c 128,-1,15
 312 -6 312 -6 271 -6 c 256,16,17
 230 -6 230 -6 194 5 c 128,-1,18
 158 16 158 16 132 40.5 c 128,-1,19
 106 65 106 65 91 104.5 c 128,-1,20
 76 144 76 144 76 200 c 2,21,-1
 76 525 l 2,22,23
 76 581 76 581 91 620.5 c 128,-1,24
 106 660 106 660 132 684.5 c 128,-1,25
 158 709 158 709 194 720 c 128,-1,26
 230 731 230 731 271 731 c 0,27,28
 317 731 317 731 353.5 718 c 128,-1,29
 390 705 390 705 415 683 c 128,-1,30
 440 661 440 661 453.5 630.5 c 128,-1,31
 467 600 467 600 467 566 c 0,32,33
 467 555 467 555 461.5 550.5 c 128,-1,34
 456 546 456 546 449 546 c 256,35,36
 442 546 442 546 437 550.5 c 128,-1,37
 432 555 432 555 431 564 c 0,38,39
 422 632 422 632 379.5 663.5 c 128,-1,40
 337 695 337 695 271 695 c 0,41,42
 196 695 196 695 154 654 c 128,-1,43
 112 613 112 613 112 525 c 2,44,-1
 112 200 l 2,45,46
 112 112 112 112 154 71 c 128,-1,47
 196 30 196 30 271 30 c 256,48,49
 346 30 346 30 388.5 71 c 128,-1,50
 431 112 431 112 431 200 c 2,51,-1
 431 348 l 1,52,-1
 272 348 l 2,0,1
EndSplineSet
EndChar
StartChar: H
Encoding: 72 72 44
Width: 557
Flags: W
LayerCount: 2
Back
Fore
SplineSet
438 361 m 1,0,-1
 119 361 l 1,1,-1
 119 18 l 2,2,3
 119 9 119 9 113.5 4.5 c 128,-1,4
 108 0 108 0 101 0 c 256,5,6
 94 0 94 0 88.5 4.5 c 128,-1,7
 83 9 83 9 83 18 c 2,8,-1
 83 714 l 2,9,10
 83 723 83 723 88.5 727 c 128,-1,11
 94 731 94 731 101 731 c 256,12,13
 108 731 108 731 113.5 727 c 128,-1,14
 119 723 119 723 119 714 c 2,15,-1
 119 397 l 1,16,-1
 438 397 l 1,17,-1
 438 714 l 2,18,19
 438 723 438 723 443.5 727 c 128,-1,20
 449 731 449 731 456 731 c 256,21,22
 463 731 463 731 468.5 727 c 128,-1,23
 474 723 474 723 474 714 c 2,24,-1
 474 18 l 2,25,26
 474 9 474 9 468.5 4.5 c 128,-1,27
 463 0 463 0 456 0 c 256,28,29
 449 0 449 0 443.5 4.5 c 128,-1,30
 438 9 438 9 438 18 c 2,31,-1
 438 361 l 1,0,-1
EndSplineSet
EndChar
StartChar: I
Encoding: 73 73 47
Width: 202
Flags: W
LayerCount: 2
Back
Fore
SplineSet
83 714 m 2,0,1
 83 723 83 723 88.5 727 c 128,-1,2
 94 731 94 731 101 731 c 256,3,4
 108 731 108 731 113.5 727 c 128,-1,5
 119 723 119 723 119 714 c 2,6,-1
 119 18 l 2,7,8
 119 9 119 9 113.5 4.5 c 128,-1,9
 108 0 108 0 101 0 c 256,10,11
 94 0 94 0 88.5 4.5 c 128,-1,12
 83 9 83 9 83 18 c 2,13,-1
 83 714 l 2,0,1
EndSplineSet
EndChar
StartChar: J
Encoding: 74 74 58
Width: 496
Flags: W
LayerCount: 2
Back
Fore
SplineSet
399 731 m 2,0,1
 406 731 406 731 411.5 726.5 c 128,-1,2
 417 722 417 722 417 713 c 2,3,-1
 417 200 l 2,4,5
 417 144 417 144 402 104.5 c 128,-1,6
 387 65 387 65 360.5 40.5 c 128,-1,7
 334 16 334 16 298.5 5 c 128,-1,8
 263 -6 263 -6 222 -6 c 0,9,10
 176 -6 176 -6 139.5 7 c 128,-1,11
 103 20 103 20 78 42 c 128,-1,12
 53 64 53 64 39.5 94 c 128,-1,13
 26 124 26 124 26 159 c 0,14,15
 26 170 26 170 31 174.5 c 128,-1,16
 36 179 36 179 43 179 c 256,17,18
 50 179 50 179 56 174.5 c 128,-1,19
 62 170 62 170 62 161 c 0,20,21
 62 128 62 128 74.5 103 c 128,-1,22
 87 78 87 78 109 62 c 128,-1,23
 131 46 131 46 160 38 c 128,-1,24
 189 30 189 30 222 30 c 0,25,26
 297 30 297 30 339 71 c 128,-1,27
 381 112 381 112 381 200 c 2,28,-1
 381 695 l 1,29,-1
 222 695 l 2,30,31
 214 695 214 695 209.5 700.5 c 128,-1,32
 205 706 205 706 205 714 c 0,33,34
 205 720 205 720 209 725.5 c 128,-1,35
 213 731 213 731 222 731 c 2,36,-1
 399 731 l 2,0,1
EndSplineSet
EndChar
StartChar: K
Encoding: 75 75 60
Width: 508
Flags: W
LayerCount: 2
Back
Fore
SplineSet
215 385 m 1,0,-1
 119 265 l 1,1,-1
 119 18 l 2,2,3
 119 9 119 9 113.5 4.5 c 128,-1,4
 108 0 108 0 101 0 c 256,5,6
 94 0 94 0 88.5 4.5 c 128,-1,7
 83 9 83 9 83 18 c 2,8,-1
 83 714 l 2,9,10
 83 723 83 723 88.5 727 c 128,-1,11
 94 731 94 731 101 731 c 256,12,13
 108 731 108 731 113.5 727 c 128,-1,14
 119 723 119 723 119 714 c 2,15,-1
 119 322 l 1,16,-1
 442 725 l 2,17,18
 446 731 446 731 456 731 c 0,19,20
 463 731 463 731 468.5 725.5 c 128,-1,21
 474 720 474 720 474 712 c 0,22,23
 474 706 474 706 470 702 c 2,24,-1
 239 415 l 1,25,-1
 497 27 l 2,26,27
 500 22 500 22 500 18 c 0,28,29
 500 10 500 10 494.5 5 c 128,-1,30
 489 0 489 0 481 0 c 0,31,32
 472 0 472 0 466 9 c 2,33,-1
 215 385 l 1,0,-1
EndSplineSet
EndChar
StartChar: L
Encoding: 76 76 62
Width: 452
Flags: W
LayerCount: 2
Back
Fore
SplineSet
101 0 m 2,0,1
 94 0 94 0 88.5 4.5 c 128,-1,2
 83 9 83 9 83 18 c 2,3,-1
 83 714 l 2,4,5
 83 723 83 723 88.5 727 c 128,-1,6
 94 731 94 731 101 731 c 256,7,8
 108 731 108 731 113.5 727 c 128,-1,9
 119 723 119 723 119 714 c 2,10,-1
 119 36 l 1,11,-1
 423 36 l 2,12,13
 431 36 431 36 434.5 30.5 c 128,-1,14
 438 25 438 25 438 18 c 256,15,16
 438 11 438 11 434.5 5.5 c 128,-1,17
 431 0 431 0 423 0 c 2,18,-1
 101 0 l 2,0,1
EndSplineSet
EndChar
StartChar: M
Encoding: 77 77 68
Width: 653
Flags: W
LayerCount: 2
Back
Fore
SplineSet
345 279 m 2,0,1
 335 260 335 260 326 260 c 0,2,3
 316 260 316 260 307 279 c 2,4,-1
 119 643 l 1,5,-1
 119 18 l 2,6,7
 119 9 119 9 113.5 4.5 c 128,-1,8
 108 0 108 0 101 0 c 256,9,10
 94 0 94 0 88.5 4.5 c 128,-1,11
 83 9 83 9 83 18 c 2,12,-1
 83 714 l 2,13,14
 83 724 83 724 88 727.5 c 128,-1,15
 93 731 93 731 101 731 c 0,16,17
 106 731 106 731 110.5 726.5 c 128,-1,18
 115 722 115 722 119.5 716 c 128,-1,19
 124 710 124 710 127 704 c 128,-1,20
 130 698 130 698 132 695 c 2,21,-1
 326 313 l 1,22,-1
 521 695 l 2,23,24
 523 698 523 698 526 704 c 128,-1,25
 529 710 529 710 533.5 716 c 128,-1,26
 538 722 538 722 542.5 726.5 c 128,-1,27
 547 731 547 731 552 731 c 0,28,29
 560 731 560 731 565 727.5 c 128,-1,30
 570 724 570 724 570 714 c 2,31,-1
 570 18 l 2,32,33
 570 9 570 9 564.5 4.5 c 128,-1,34
 559 0 559 0 552 0 c 256,35,36
 545 0 545 0 539.5 4.5 c 128,-1,37
 534 9 534 9 534 18 c 2,38,-1
 534 643 l 1,39,-1
 345 279 l 2,0,1
EndSplineSet
EndChar
StartChar: N
Encoding: 78 78 69
Width: 557
Flags: W
LayerCount: 2
Back
Fore
SplineSet
438 89 m 1,0,-1
 438 714 l 2,1,2
 438 723 438 723 443.5 727 c 128,-1,3
 449 731 449 731 456 731 c 256,4,5
 463 731 463 731 468.5 727 c 128,-1,6
 474 723 474 723 474 714 c 2,7,-1
 474 18 l 2,8,9
 474 9 474 9 468.5 4.5 c 128,-1,10
 463 0 463 0 456 0 c 0,11,12
 446 0 446 0 439 12.5 c 128,-1,13
 432 25 432 25 427 36 c 2,14,-1
 119 643 l 1,15,-1
 119 18 l 2,16,17
 119 9 119 9 113.5 4.5 c 128,-1,18
 108 0 108 0 101 0 c 256,19,20
 94 0 94 0 88.5 4.5 c 128,-1,21
 83 9 83 9 83 18 c 2,22,-1
 83 714 l 2,23,24
 83 724 83 724 88 727.5 c 128,-1,25
 93 731 93 731 101 731 c 0,26,27
 106 731 106 731 110.5 726.5 c 128,-1,28
 115 722 115 722 119.5 716 c 128,-1,29
 124 710 124 710 127 704 c 128,-1,30
 130 698 130 698 132 695 c 2,31,-1
 438 89 l 1,0,-1
EndSplineSet
EndChar
StartChar: P
Encoding: 80 80 87
Width: 513
Flags: W
LayerCount: 2
Back
Fore
SplineSet
83 714 m 2,0,1
 83 729 83 729 101 731 c 2,2,-1
 278 731 l 2,3,4
 319 731 319 731 355 720 c 128,-1,5
 391 709 391 709 417.5 684.5 c 128,-1,6
 444 660 444 660 459 620.5 c 128,-1,7
 474 581 474 581 474 525 c 2,8,-1
 474 513 l 2,9,10
 474 457 474 457 459 417.5 c 128,-1,11
 444 378 444 378 417.5 353 c 128,-1,12
 391 328 391 328 355 317 c 128,-1,13
 319 306 319 306 278 306 c 2,14,-1
 119 306 l 1,15,-1
 119 18 l 2,16,17
 119 9 119 9 113.5 4.5 c 128,-1,18
 108 0 108 0 101 0 c 256,19,20
 94 0 94 0 88.5 4.5 c 128,-1,21
 83 9 83 9 83 18 c 2,22,-1
 83 714 l 2,0,1
119 695 m 1,23,-1
 119 342 l 1,24,-1
 278 342 l 2,25,26
 353 342 353 342 395.5 383.5 c 128,-1,27
 438 425 438 425 438 513 c 2,28,-1
 438 525 l 2,29,30
 438 613 438 613 395.5 654 c 128,-1,31
 353 695 353 695 278 695 c 2,32,-1
 119 695 l 1,23,-1
EndSplineSet
EndChar
StartChar: Q
Encoding: 81 81 88
Width: 543
Flags: W
LayerCount: 2
Back
Fore
SplineSet
254 -5 m 1,0,1
 216 -3 216 -3 183.5 9 c 128,-1,2
 151 21 151 21 127 45.5 c 128,-1,3
 103 70 103 70 89.5 108 c 128,-1,4
 76 146 76 146 76 200 c 2,5,-1
 76 525 l 2,6,7
 76 581 76 581 91 620.5 c 128,-1,8
 106 660 106 660 132 684.5 c 128,-1,9
 158 709 158 709 194 720 c 128,-1,10
 230 731 230 731 271 731 c 256,11,12
 312 731 312 731 348 720 c 128,-1,13
 384 709 384 709 410.5 684.5 c 128,-1,14
 437 660 437 660 452 620.5 c 128,-1,15
 467 581 467 581 467 525 c 2,16,-1
 467 200 l 2,17,18
 467 147 467 147 453.5 109 c 128,-1,19
 440 71 440 71 416.5 46 c 128,-1,20
 393 21 393 21 360.5 9 c 128,-1,21
 328 -3 328 -3 290 -5 c 1,22,-1
 290 -91 l 2,23,24
 290 -100 290 -100 284.5 -104.5 c 128,-1,25
 279 -109 279 -109 272 -109 c 256,26,27
 265 -109 265 -109 259.5 -104.5 c 128,-1,28
 254 -100 254 -100 254 -91 c 2,29,-1
 254 -5 l 1,0,1
431 525 m 2,30,31
 431 613 431 613 388.5 654 c 128,-1,32
 346 695 346 695 271 695 c 256,33,34
 196 695 196 695 154 654 c 128,-1,35
 112 613 112 613 112 525 c 2,36,-1
 112 200 l 2,37,38
 112 117 112 117 149 76 c 128,-1,39
 186 35 186 35 254 30 c 1,40,-1
 254 114 l 2,41,42
 254 123 254 123 259.5 127 c 128,-1,43
 265 131 265 131 272 131 c 256,44,45
 279 131 279 131 284.5 127 c 128,-1,46
 290 123 290 123 290 114 c 2,47,-1
 290 31 l 1,48,49
 356 36 356 36 393.5 77 c 128,-1,50
 431 118 431 118 431 200 c 2,51,-1
 431 525 l 2,30,31
EndSplineSet
EndChar
StartChar: R
Encoding: 82 82 89
Width: 509
Flags: W
LayerCount: 2
Back
Fore
SplineSet
83 714 m 2,0,1
 83 729 83 729 101 731 c 2,2,-1
 268 731 l 2,3,4
 309 731 309 731 346.5 721.5 c 128,-1,5
 384 712 384 712 412.5 690 c 128,-1,6
 441 668 441 668 457.5 631 c 128,-1,7
 474 594 474 594 474 540 c 0,8,9
 474 492 474 492 461 458 c 128,-1,10
 448 424 448 424 425 401.5 c 128,-1,11
 402 379 402 379 371.5 366.5 c 128,-1,12
 341 354 341 354 306 350 c 1,13,-1
 471 29 l 2,14,15
 474 23 474 23 474 18 c 0,16,17
 474 10 474 10 469 5 c 128,-1,18
 464 0 464 0 456 0 c 0,19,20
 445 0 445 0 438.5 12.5 c 128,-1,21
 432 25 432 25 427 36 c 2,22,-1
 267 348 l 1,23,-1
 119 348 l 1,24,-1
 119 18 l 2,25,26
 119 9 119 9 113.5 4.5 c 128,-1,27
 108 0 108 0 101 0 c 256,28,29
 94 0 94 0 88.5 4.5 c 128,-1,30
 83 9 83 9 83 18 c 2,31,-1
 83 714 l 2,0,1
119 695 m 1,32,-1
 119 384 l 1,33,-1
 268 384 l 2,34,35
 305 384 305 384 336.5 393 c 128,-1,36
 368 402 368 402 390.5 420.5 c 128,-1,37
 413 439 413 439 425.5 468.5 c 128,-1,38
 438 498 438 498 438 540 c 256,39,40
 438 582 438 582 425.5 611 c 128,-1,41
 413 640 413 640 390.5 659 c 128,-1,42
 368 678 368 678 336.5 686.5 c 128,-1,43
 305 695 305 695 268 695 c 2,44,-1
 119 695 l 1,32,-1
EndSplineSet
EndChar
StartChar: T
Encoding: 84 84 99
Width: 455
Flags: W
LayerCount: 2
Back
Fore
SplineSet
32 695 m 2,0,1
 24 695 24 695 19 700.5 c 128,-1,2
 14 706 14 706 14 713 c 256,3,4
 14 720 14 720 19 725.5 c 128,-1,5
 24 731 24 731 32 731 c 2,6,-1
 423 731 l 2,7,8
 432 731 432 731 436.5 726 c 128,-1,9
 441 721 441 721 441 714 c 256,10,11
 441 707 441 707 437 701 c 128,-1,12
 433 695 433 695 423 695 c 2,13,-1
 246 695 l 1,14,-1
 246 18 l 2,15,16
 246 9 246 9 240.5 4.5 c 128,-1,17
 235 0 235 0 228 0 c 256,18,19
 221 0 221 0 215.5 4.5 c 128,-1,20
 210 9 210 9 210 18 c 2,21,-1
 210 695 l 1,22,-1
 32 695 l 2,0,1
EndSplineSet
EndChar
StartChar: V
Encoding: 86 86 115
Width: 519
Flags: W
LayerCount: 2
Back
Fore
SplineSet
260 70 m 1,0,-1
 459 718 l 2,1,2
 463 731 463 731 475 731 c 0,3,4
 483 731 483 731 489 726 c 128,-1,5
 495 721 495 721 495 714 c 0,6,7
 495 712 495 712 494.5 711.5 c 128,-1,8
 494 711 494 711 494 709 c 2,9,-1
 279 8 l 2,10,11
 274 -6 274 -6 260 -6 c 256,12,13
 246 -6 246 -6 242 8 c 2,14,-1
 25 709 l 2,15,16
 24 711 24 711 24 715 c 0,17,18
 24 723 24 723 29.5 727 c 128,-1,19
 35 731 35 731 42 731 c 0,20,21
 56 731 56 731 60 718 c 2,22,-1
 260 70 l 1,0,-1
EndSplineSet
EndChar
StartChar: W
Encoding: 87 87 116
Width: 739
Flags: W
LayerCount: 2
Back
Fore
SplineSet
348 455 m 2,0,1
 351 466 351 466 356.5 469 c 128,-1,2
 362 472 362 472 370 472 c 256,3,4
 378 472 378 472 382.5 469 c 128,-1,5
 387 466 387 466 390 455 c 2,6,-1
 498 70 l 1,7,-1
 677 718 l 2,8,9
 679 724 679 724 684.5 727.5 c 128,-1,10
 690 731 690 731 696 731 c 0,11,12
 703 731 703 731 708 727 c 128,-1,13
 713 723 713 723 713 715 c 0,14,15
 713 712 713 712 712 709 c 2,16,-1
 517 8 l 2,17,18
 512 -6 512 -6 498 -6 c 0,19,20
 492 -6 492 -6 487 -3 c 128,-1,21
 482 0 482 0 480 8 c 2,22,-1
 370 400 l 1,23,-1
 261 8 l 2,24,25
 256 -6 256 -6 242 -6 c 0,26,27
 236 -6 236 -6 231 -3 c 128,-1,28
 226 0 226 0 224 8 c 2,29,-1
 27 709 l 2,30,31
 26 712 26 712 26 715 c 0,32,33
 26 723 26 723 31 727 c 128,-1,34
 36 731 36 731 43 731 c 0,35,36
 49 731 49 731 54.5 727.5 c 128,-1,37
 60 724 60 724 62 718 c 2,38,-1
 242 70 l 1,39,-1
 348 455 l 2,0,1
EndSplineSet
EndChar
StartChar: X
Encoding: 88 88 121
Width: 447
Flags: W
LayerCount: 2
Back
Fore
SplineSet
223 405 m 1,0,-1
 371 695 l 2,1,2
 376 706 376 706 383 718.5 c 128,-1,3
 390 731 390 731 401 731 c 0,4,5
 419 731 419 731 419 717 c 0,6,7
 419 710 419 710 414 700 c 2,8,-1
 243 366 l 1,9,-1
 416 29 l 2,10,11
 419 23 419 23 419 18 c 0,12,13
 419 10 419 10 414 5 c 128,-1,14
 409 0 409 0 401 0 c 0,15,16
 390 0 390 0 383.5 12.5 c 128,-1,17
 377 25 377 25 372 36 c 2,18,-1
 223 327 l 1,19,-1
 75 36 l 2,20,21
 70 25 70 25 63.5 12.5 c 128,-1,22
 57 0 57 0 46 0 c 0,23,24
 38 0 38 0 33 5 c 128,-1,25
 28 10 28 10 28 18 c 0,26,27
 28 23 28 23 31 29 c 2,28,-1
 203 366 l 1,29,-1
 33 700 l 2,30,31
 28 710 28 710 28 717 c 0,32,33
 28 731 28 731 46 731 c 0,34,35
 57 731 57 731 64 718.5 c 128,-1,36
 71 706 71 706 76 695 c 2,37,-1
 223 405 l 1,0,-1
EndSplineSet
EndChar
StartChar: Y
Encoding: 89 89 122
Width: 509
Flags: W
LayerCount: 2
Back
Fore
SplineSet
273 279 m 2,0,1
 272 277 272 277 272 273 c 2,2,-1
 272 18 l 2,3,4
 272 9 272 9 266.5 4.5 c 128,-1,5
 261 0 261 0 254 0 c 256,6,7
 247 0 247 0 241.5 4.5 c 128,-1,8
 236 9 236 9 236 18 c 2,9,-1
 236 273 l 2,10,11
 236 277 236 277 235 279 c 2,12,-1
 28 695 l 2,13,14
 22 707 22 707 22 715 c 0,15,16
 22 731 22 731 35 731 c 0,17,18
 46 731 46 731 55 714 c 2,19,-1
 254 313 l 1,20,-1
 454 714 l 2,21,22
 459 723 459 723 464 727 c 128,-1,23
 469 731 469 731 474 731 c 0,24,25
 486 731 486 731 486 715 c 0,26,27
 486 705 486 705 481 695 c 2,28,-1
 273 279 l 2,0,1
EndSplineSet
EndChar
StartChar: Z
Encoding: 90 90 127
Width: 464
Flags: W
LayerCount: 2
Back
Fore
SplineSet
45 0 m 2,0,1
 37 0 37 0 32 4.5 c 128,-1,2
 27 9 27 9 27 17 c 0,3,4
 27 23 27 23 30 29 c 2,5,-1
 380 695 l 1,6,-1
 55 695 l 2,7,8
 46 695 46 695 41.5 700.5 c 128,-1,9
 37 706 37 706 37 713 c 256,10,11
 37 720 37 720 41.5 725.5 c 128,-1,12
 46 731 46 731 55 731 c 2,13,-1
 410 731 l 2,14,15
 428 731 428 731 428 716 c 0,16,17
 428 708 428 708 423 700 c 2,18,-1
 74 36 l 1,19,-1
 420 36 l 2,20,21
 429 36 429 36 433.5 30.5 c 128,-1,22
 438 25 438 25 438 18 c 256,23,24
 438 11 438 11 433.5 5.5 c 128,-1,25
 429 0 429 0 420 0 c 2,26,-1
 45 0 l 2,0,1
EndSplineSet
EndChar
StartChar: bracketleft
Encoding: 91 91 161
Width: 285
Flags: W
LayerCount: 2
Back
Fore
SplineSet
92 -21 m 2,0,1
 85 -21 85 -21 79.5 -16.5 c 128,-1,2
 74 -12 74 -12 74 -4 c 2,3,-1
 74 751 l 2,4,5
 74 758 74 758 79 763 c 128,-1,6
 84 768 84 768 92 768 c 2,7,-1
 248 768 l 2,8,9
 255 768 255 768 260 763 c 128,-1,10
 265 758 265 758 265 751 c 0,11,12
 265 743 265 743 260 738 c 128,-1,13
 255 733 255 733 248 733 c 2,14,-1
 110 733 l 1,15,-1
 110 14 l 1,16,-1
 248 14 l 2,17,18
 255 14 255 14 260 9 c 128,-1,19
 265 4 265 4 265 -4 c 0,20,21
 265 -11 265 -11 260 -16 c 128,-1,22
 255 -21 255 -21 248 -21 c 2,23,-1
 92 -21 l 2,0,1
EndSplineSet
EndChar
StartChar: backslash
Encoding: 92 92 157
Width: 340
Flags: W
LayerCount: 2
Back
Fore
SplineSet
29 727 m 2,0,1
 28 730 28 730 28 735 c 0,2,3
 28 744 28 744 33.5 749 c 128,-1,4
 39 754 39 754 46 754 c 0,5,6
 57 754 57 754 60 745 c 2,7,-1
 312 21 l 2,8,9
 313 19 313 19 313 15 c 0,10,11
 313 8 313 8 308 4 c 128,-1,12
 303 0 303 0 296 0 c 0,13,14
 283 0 283 0 279 12 c 2,15,-1
 29 727 l 2,0,1
EndSplineSet
EndChar
StartChar: bracketright
Encoding: 93 93 162
Width: 285
Flags: W
LayerCount: 2
Back
Fore
SplineSet
37 -21 m 2,0,1
 30 -21 30 -21 25 -16 c 128,-1,2
 20 -11 20 -11 20 -4 c 0,3,4
 20 4 20 4 25 9 c 128,-1,5
 30 14 30 14 37 14 c 2,6,-1
 175 14 l 1,7,-1
 175 733 l 1,8,-1
 37 733 l 2,9,10
 30 733 30 733 25 738 c 128,-1,11
 20 743 20 743 20 751 c 0,12,13
 20 758 20 758 25 763 c 128,-1,14
 30 768 30 768 37 768 c 2,15,-1
 193 768 l 2,16,17
 201 768 201 768 206 763 c 128,-1,18
 211 758 211 758 211 751 c 2,19,-1
 211 -4 l 2,20,21
 211 -12 211 -12 205.5 -16.5 c 128,-1,22
 200 -21 200 -21 193 -21 c 2,23,-1
 37 -21 l 2,0,1
EndSplineSet
EndChar
StartChar: underscore
Encoding: 95 95 392
Width: 345
Flags: W
LayerCount: 2
Back
Fore
SplineSet
-4 -18 m 0,0,1
 -4 -10 -4 -10 0.5 -5 c 128,-1,2
 5 0 5 0 13 0 c 2,3,-1
 333 0 l 2,4,5
 340 0 340 0 345.5 -5 c 128,-1,6
 351 -10 351 -10 351 -18 c 256,7,8
 351 -26 351 -26 345.5 -30.5 c 128,-1,9
 340 -35 340 -35 333 -35 c 2,10,-1
 13 -35 l 2,11,12
 -4 -35 -4 -35 -4 -18 c 0,0,1
EndSplineSet
EndChar
StartChar: grave
Encoding: 96 96 235
Width: 133
Flags: W
LayerCount: 2
Back
Fore
SplineSet
10 658 m 2,0,1
 0 664 0 664 0 676 c 0,2,3
 0 683 0 683 4 688.5 c 128,-1,4
 8 694 8 694 16 694 c 0,5,6
 19 694 19 694 23 692 c 2,7,-1
 125 632 l 2,8,9
 133 628 133 628 133 619 c 0,10,11
 133 611 133 611 127.5 606 c 128,-1,12
 122 601 122 601 114 601 c 0,13,14
 109 601 109 601 105 604 c 2,15,-1
 10 658 l 2,0,1
EndSplineSet
EndChar
StartChar: d
Encoding: 100 100 182
Width: 468
Flags: W
LayerCount: 2
Back
Fore
SplineSet
382 768 m 0,0,1
 399 768 399 768 399 751 c 2,2,-1
 399 18 l 2,3,4
 399 11 399 11 394.5 5.5 c 128,-1,5
 390 0 390 0 382 0 c 256,6,7
 374 0 374 0 369 5.5 c 128,-1,8
 364 11 364 11 364 18 c 2,9,-1
 364 70 l 1,10,11
 347 39 347 39 310.5 16.5 c 128,-1,12
 274 -6 274 -6 228 -6 c 0,13,14
 192 -6 192 -6 160 9 c 128,-1,15
 128 24 128 24 103.5 49.5 c 128,-1,16
 79 75 79 75 64.5 107.5 c 128,-1,17
 50 140 50 140 50 176 c 2,18,-1
 50 298 l 2,19,20
 50 335 50 335 64.5 368 c 128,-1,21
 79 401 79 401 103.5 425.5 c 128,-1,22
 128 450 128 450 160.5 464 c 128,-1,23
 193 478 193 478 230 478 c 0,24,25
 281 478 281 478 314 454.5 c 128,-1,26
 347 431 347 431 364 402 c 1,27,-1
 364 751 l 2,28,29
 364 759 364 759 369 763.5 c 128,-1,30
 374 768 374 768 382 768 c 0,0,1
85 176 m 2,31,32
 85 148 85 148 96.5 121.5 c 128,-1,33
 108 95 108 95 127 74.5 c 128,-1,34
 146 54 146 54 171.5 41.5 c 128,-1,35
 197 29 197 29 226 29 c 0,36,37
 256 29 256 29 281 41.5 c 128,-1,38
 306 54 306 54 324.5 71.5 c 128,-1,39
 343 89 343 89 353.5 107.5 c 128,-1,40
 364 126 364 126 364 139 c 2,41,-1
 364 298 l 2,42,43
 364 332 364 332 352 359 c 128,-1,44
 340 386 340 386 321 404.5 c 128,-1,45
 302 423 302 423 277 433 c 128,-1,46
 252 443 252 443 227 443 c 0,47,48
 198 443 198 443 172 430.5 c 128,-1,49
 146 418 146 418 126.5 398 c 128,-1,50
 107 378 107 378 96 351.5 c 128,-1,51
 85 325 85 325 85 298 c 2,52,-1
 85 176 l 2,31,32
EndSplineSet
EndChar
StartChar: f
Encoding: 102 102 216
Width: 289
Flags: W
LayerCount: 2
Back
Fore
SplineSet
104 472 m 1,0,-1
 257 472 l 2,1,2
 265 472 265 472 270 467 c 128,-1,3
 275 462 275 462 275 455 c 0,4,5
 275 447 275 447 270 442 c 128,-1,6
 265 437 265 437 257 437 c 2,7,-1
 104 437 l 1,8,-1
 104 17 l 2,9,10
 104 9 104 9 98.5 4.5 c 128,-1,11
 93 0 93 0 85 0 c 0,12,13
 69 0 69 0 69 17 c 2,14,-1
 69 590 l 2,15,16
 69 626 69 626 83.5 658.5 c 128,-1,17
 98 691 98 691 122 715 c 128,-1,18
 146 739 146 739 178.5 753.5 c 128,-1,19
 211 768 211 768 247 768 c 2,20,-1
 257 768 l 2,21,22
 265 768 265 768 270 763 c 128,-1,23
 275 758 275 758 275 750 c 256,24,25
 275 742 275 742 270 737.5 c 128,-1,26
 265 733 265 733 257 733 c 2,27,-1
 247 733 l 2,28,29
 217 733 217 733 191 721 c 128,-1,30
 165 709 165 709 145.5 689 c 128,-1,31
 126 669 126 669 115 643.5 c 128,-1,32
 104 618 104 618 104 590 c 2,33,-1
 104 472 l 1,0,-1
EndSplineSet
EndChar
StartChar: h
Encoding: 104 104 242
Width: 482
Flags: W
LayerCount: 2
Back
Fore
SplineSet
104 18 m 2,0,1
 104 11 104 11 99 5.5 c 128,-1,2
 94 0 94 0 86 0 c 256,3,4
 78 0 78 0 73.5 5.5 c 128,-1,5
 69 11 69 11 69 18 c 2,6,-1
 69 751 l 2,7,8
 69 768 69 768 86 768 c 0,9,10
 94 768 94 768 99 763.5 c 128,-1,11
 104 759 104 759 104 751 c 2,12,-1
 104 402 l 1,13,14
 121 431 121 431 154 454.5 c 128,-1,15
 187 478 187 478 238 478 c 0,16,17
 275 478 275 478 307.5 464 c 128,-1,18
 340 450 340 450 364.5 425.5 c 128,-1,19
 389 401 389 401 403.5 368 c 128,-1,20
 418 335 418 335 418 298 c 2,21,-1
 418 18 l 2,22,23
 418 9 418 9 412.5 4.5 c 128,-1,24
 407 0 407 0 400 0 c 0,25,26
 394 0 394 0 388.5 4.5 c 128,-1,27
 383 9 383 9 383 18 c 2,28,-1
 383 298 l 2,29,30
 383 325 383 325 372 351.5 c 128,-1,31
 361 378 361 378 341.5 398 c 128,-1,32
 322 418 322 418 296 430.5 c 128,-1,33
 270 443 270 443 241 443 c 0,34,35
 215 443 215 443 190.5 433 c 128,-1,36
 166 423 166 423 147 404.5 c 128,-1,37
 128 386 128 386 116 359 c 128,-1,38
 104 332 104 332 104 298 c 2,39,-1
 104 18 l 2,0,1
EndSplineSet
EndChar
StartChar: i
Encoding: 105 105 247
Width: 171
Flags: W
LayerCount: 2
Back
Fore
SplineSet
85 472 m 0,0,1
 93 472 93 472 98 467.5 c 128,-1,2
 103 463 103 463 103 455 c 2,3,-1
 103 18 l 2,4,5
 103 11 103 11 98 5.5 c 128,-1,6
 93 0 93 0 85 0 c 0,7,8
 78 0 78 0 73 5.5 c 128,-1,9
 68 11 68 11 68 18 c 2,10,-1
 68 455 l 2,11,12
 68 463 68 463 73 467.5 c 128,-1,13
 78 472 78 472 85 472 c 0,0,1
85 691 m 0,14,15
 98 691 98 691 107 682 c 128,-1,16
 116 673 116 673 116 660 c 256,17,18
 116 647 116 647 107 637.5 c 128,-1,19
 98 628 98 628 85 628 c 0,20,21
 71 628 71 628 62 637.5 c 128,-1,22
 53 647 53 647 53 660 c 256,23,24
 53 673 53 673 62 682 c 128,-1,25
 71 691 71 691 85 691 c 0,14,15
EndSplineSet
EndChar
StartChar: j
Encoding: 106 106 259
Width: 173
Flags: W
LayerCount: 2
Back
Fore
SplineSet
86 472 m 0,0,1
 94 472 94 472 99 467.5 c 128,-1,2
 104 463 104 463 104 455 c 2,3,-1
 104 -48 l 2,4,5
 104 -90 104 -90 98 -124.5 c 128,-1,6
 92 -159 92 -159 77.5 -184 c 128,-1,7
 63 -209 63 -209 39.5 -223 c 128,-1,8
 16 -237 16 -237 -18 -237 c 0,9,10
 -26 -237 -26 -237 -31 -231.5 c 128,-1,11
 -36 -226 -36 -226 -36 -219 c 0,12,13
 -36 -211 -36 -211 -31 -206.5 c 128,-1,14
 -26 -202 -26 -202 -18 -202 c 0,15,16
 11 -202 11 -202 28 -190.5 c 128,-1,17
 45 -179 45 -179 54 -158.5 c 128,-1,18
 63 -138 63 -138 66 -109.5 c 128,-1,19
 69 -81 69 -81 69 -48 c 2,20,-1
 69 455 l 2,21,22
 69 472 69 472 86 472 c 0,0,1
86 691 m 0,23,24
 99 691 99 691 108 682 c 128,-1,25
 117 673 117 673 117 660 c 256,26,27
 117 647 117 647 108 637.5 c 128,-1,28
 99 628 99 628 86 628 c 0,29,30
 72 628 72 628 63 637.5 c 128,-1,31
 54 647 54 647 54 660 c 256,32,33
 54 673 54 673 63 682 c 128,-1,34
 72 691 72 691 86 691 c 0,23,24
EndSplineSet
EndChar
StartChar: k
Encoding: 107 107 261
Width: 437
Flags: W
LayerCount: 2
Back
Fore
SplineSet
86 768 m 0,0,1
 94 768 94 768 99 763.5 c 128,-1,2
 104 759 104 759 104 751 c 2,3,-1
 104 233 l 1,4,-1
 374 468 l 2,5,6
 380 472 380 472 384 472 c 0,7,8
 391 472 391 472 397 468.5 c 128,-1,9
 403 465 403 465 403 456 c 0,10,11
 403 446 403 446 397 441 c 2,12,-1
 236 301 l 1,13,-1
 421 28 l 2,14,15
 424 23 424 23 424 18 c 0,16,17
 424 11 424 11 419.5 5.5 c 128,-1,18
 415 0 415 0 407 0 c 256,19,20
 399 0 399 0 393 9 c 2,21,-1
 209 278 l 1,22,-1
 104 186 l 1,23,-1
 104 18 l 2,24,25
 104 11 104 11 99 5.5 c 128,-1,26
 94 0 94 0 86 0 c 256,27,28
 78 0 78 0 73.5 5.5 c 128,-1,29
 69 11 69 11 69 18 c 2,30,-1
 69 751 l 2,31,32
 69 768 69 768 86 768 c 0,0,1
EndSplineSet
EndChar
StartChar: l
Encoding: 108 108 264
Width: 189
Flags: W
LayerCount: 2
Back
Fore
SplineSet
94 768 m 0,0,1
 102 768 102 768 107 763.5 c 128,-1,2
 112 759 112 759 112 751 c 2,3,-1
 112 18 l 2,4,5
 112 11 112 11 107 5.5 c 128,-1,6
 102 0 102 0 94 0 c 256,7,8
 86 0 86 0 81.5 5.5 c 128,-1,9
 77 11 77 11 77 18 c 2,10,-1
 77 751 l 2,11,12
 77 768 77 768 94 768 c 0,0,1
EndSplineSet
EndChar
StartChar: m
Encoding: 109 109 274
Width: 767
Flags: W
LayerCount: 2
Back
Fore
SplineSet
368 303 m 2,0,1
 368 333 368 333 358 358.5 c 128,-1,2
 348 384 348 384 330.5 402.5 c 128,-1,3
 313 421 313 421 289.5 432 c 128,-1,4
 266 443 266 443 239 443 c 0,5,6
 214 443 214 443 189.5 433 c 128,-1,7
 165 423 165 423 146 404.5 c 128,-1,8
 127 386 127 386 115 359 c 128,-1,9
 103 332 103 332 103 298 c 2,10,-1
 103 18 l 2,11,12
 103 11 103 11 98 5.5 c 128,-1,13
 93 0 93 0 85 0 c 256,14,15
 77 0 77 0 72.5 5.5 c 128,-1,16
 68 11 68 11 68 18 c 2,17,-1
 68 455 l 2,18,19
 68 472 68 472 85 472 c 0,20,21
 93 472 93 472 98 467.5 c 128,-1,22
 103 463 103 463 103 455 c 2,23,-1
 103 402 l 1,24,25
 120 431 120 431 153 454.5 c 128,-1,26
 186 478 186 478 237 478 c 0,27,28
 289 478 289 478 328 450.5 c 128,-1,29
 367 423 367 423 387 378 c 1,30,31
 413 429 413 429 454 453.5 c 128,-1,32
 495 478 495 478 539 478 c 0,33,34
 570 478 570 478 600 466 c 128,-1,35
 630 454 630 454 652.5 431 c 128,-1,36
 675 408 675 408 689 374.5 c 128,-1,37
 703 341 703 341 703 298 c 2,38,-1
 703 18 l 2,39,40
 703 11 703 11 698 5.5 c 128,-1,41
 693 0 693 0 685 0 c 0,42,43
 678 0 678 0 673 5.5 c 128,-1,44
 668 11 668 11 668 18 c 2,45,-1
 668 298 l 2,46,47
 668 334 668 334 656.5 361 c 128,-1,48
 645 388 645 388 626.5 406.5 c 128,-1,49
 608 425 608 425 584.5 434 c 128,-1,50
 561 443 561 443 538 443 c 0,51,52
 513 443 513 443 488.5 433 c 128,-1,53
 464 423 464 423 445 404.5 c 128,-1,54
 426 386 426 386 414.5 360.5 c 128,-1,55
 403 335 403 335 403 304 c 2,56,-1
 403 17 l 2,57,58
 403 8 403 8 397.5 4 c 128,-1,59
 392 0 392 0 385 0 c 0,60,61
 379 0 379 0 373.5 4 c 128,-1,62
 368 8 368 8 368 17 c 2,63,-1
 368 303 l 2,0,1
EndSplineSet
Substitution2: "'ss04' Style Set 4 in Latin lookup 6 subtable" m.ss04
Substitution2: "'salt' Stylistic Alternatives in Latin lookup 2 subtable" m.ss04
Substitution2: "'aalt' Access All Alternates in Latin lookup 0 subtable" m.ss04
EndChar
StartChar: q
Encoding: 113 113 327
Width: 468
Flags: W
LayerCount: 2
Back
Fore
SplineSet
382 472 m 0,0,1
 399 472 399 472 399 455 c 2,2,-1
 399 -219 l 2,3,4
 399 -226 399 -226 394.5 -231.5 c 128,-1,5
 390 -237 390 -237 382 -237 c 256,6,7
 374 -237 374 -237 369 -231.5 c 128,-1,8
 364 -226 364 -226 364 -219 c 2,9,-1
 364 70 l 1,10,11
 347 39 347 39 310.5 16.5 c 128,-1,12
 274 -6 274 -6 228 -6 c 0,13,14
 192 -6 192 -6 160 9 c 128,-1,15
 128 24 128 24 103.5 49.5 c 128,-1,16
 79 75 79 75 64.5 107.5 c 128,-1,17
 50 140 50 140 50 176 c 2,18,-1
 50 298 l 2,19,20
 50 335 50 335 64.5 368 c 128,-1,21
 79 401 79 401 103.5 425.5 c 128,-1,22
 128 450 128 450 160.5 464 c 128,-1,23
 193 478 193 478 230 478 c 0,24,25
 281 478 281 478 314 454.5 c 128,-1,26
 347 431 347 431 364 402 c 1,27,-1
 364 455 l 2,28,29
 364 463 364 463 369 467.5 c 128,-1,30
 374 472 374 472 382 472 c 0,0,1
85 176 m 2,31,32
 85 148 85 148 96.5 121.5 c 128,-1,33
 108 95 108 95 127 74.5 c 128,-1,34
 146 54 146 54 171.5 41.5 c 128,-1,35
 197 29 197 29 226 29 c 0,36,37
 256 29 256 29 281 41.5 c 128,-1,38
 306 54 306 54 324.5 71.5 c 128,-1,39
 343 89 343 89 353.5 107.5 c 128,-1,40
 364 126 364 126 364 139 c 2,41,-1
 364 298 l 2,42,43
 364 332 364 332 352 359 c 128,-1,44
 340 386 340 386 321 404.5 c 128,-1,45
 302 423 302 423 277 433 c 128,-1,46
 252 443 252 443 227 443 c 0,47,48
 198 443 198 443 172 430.5 c 128,-1,49
 146 418 146 418 126.5 398 c 128,-1,50
 107 378 107 378 96 351.5 c 128,-1,51
 85 325 85 325 85 298 c 2,52,-1
 85 176 l 2,31,32
EndSplineSet
Substitution2: "'ss02' Style Set 2 in Latin lookup 4 subtable" q.ss02
Substitution2: "'salt' Stylistic Alternatives in Latin lookup 2 subtable" q.ss02
Substitution2: "'aalt' Access All Alternates in Latin lookup 0 subtable" q.ss02
EndChar
StartChar: r
Encoding: 114 114 339
Width: 308
Flags: W
LayerCount: 2
Back
Fore
SplineSet
242 443 m 2,0,1
 216 443 216 443 191 433 c 128,-1,2
 166 423 166 423 146.5 404.5 c 128,-1,3
 127 386 127 386 115 359 c 128,-1,4
 103 332 103 332 103 298 c 2,5,-1
 103 18 l 2,6,7
 103 11 103 11 98 5.5 c 128,-1,8
 93 0 93 0 85 0 c 256,9,10
 77 0 77 0 72.5 5.5 c 128,-1,11
 68 11 68 11 68 18 c 2,12,-1
 68 455 l 2,13,14
 68 472 68 472 85 472 c 0,15,16
 93 472 93 472 98 467.5 c 128,-1,17
 103 463 103 463 103 455 c 2,18,-1
 103 402 l 1,19,20
 120 431 120 431 154.5 454.5 c 128,-1,21
 189 478 189 478 242 478 c 2,22,-1
 279 478 l 2,23,24
 286 478 286 478 291 473 c 128,-1,25
 296 468 296 468 296 460 c 0,26,27
 296 453 296 453 291 448 c 128,-1,28
 286 443 286 443 279 443 c 2,29,-1
 242 443 l 2,0,1
EndSplineSet
Substitution2: "'ss04' Style Set 4 in Latin lookup 6 subtable" r.ss04
Substitution2: "'salt' Stylistic Alternatives in Latin lookup 2 subtable" r.ss04
Substitution2: "'aalt' Access All Alternates in Latin lookup 0 subtable" r.ss04
EndChar
StartChar: s
Encoding: 115 115 347
Width: 373
Flags: W
LayerCount: 2
Back
Fore
SplineSet
183 29 m 0,0,1
 246 29 246 29 273 53.5 c 128,-1,2
 300 78 300 78 300 112 c 0,3,4
 300 151 300 151 281.5 172 c 128,-1,5
 263 193 263 193 235 205.5 c 128,-1,6
 207 218 207 218 174 226.5 c 128,-1,7
 141 235 141 235 113 248 c 128,-1,8
 85 261 85 261 66.5 284 c 128,-1,9
 48 307 48 307 48 348 c 0,10,11
 48 370 48 370 56.5 393.5 c 128,-1,12
 65 417 65 417 83 435.5 c 128,-1,13
 101 454 101 454 129 466 c 128,-1,14
 157 478 157 478 196 478 c 0,15,16
 218 478 218 478 240 474 c 128,-1,17
 262 470 262 470 279 464 c 128,-1,18
 296 458 296 458 307 450.5 c 128,-1,19
 318 443 318 443 318 436 c 0,20,21
 318 431 318 431 313 423.5 c 128,-1,22
 308 416 308 416 301 416 c 0,23,24
 296 416 296 416 287.5 420 c 128,-1,25
 279 424 279 424 266.5 429.5 c 128,-1,26
 254 435 254 435 236.5 439 c 128,-1,27
 219 443 219 443 197 443 c 0,28,29
 165 443 165 443 143.5 434 c 128,-1,30
 122 425 122 425 108.5 411 c 128,-1,31
 95 397 95 397 89 380.5 c 128,-1,32
 83 364 83 364 83 349 c 0,33,34
 83 316 83 316 101.5 298.5 c 128,-1,35
 120 281 120 281 148 270 c 128,-1,36
 176 259 176 259 209 251 c 128,-1,37
 242 243 242 243 270 228 c 128,-1,38
 298 213 298 213 316.5 186.5 c 128,-1,39
 335 160 335 160 335 114 c 0,40,41
 335 58 335 58 295.5 26 c 128,-1,42
 256 -6 256 -6 184 -6 c 0,43,44
 150 -6 150 -6 123 1 c 128,-1,45
 96 8 96 8 77 17.5 c 128,-1,46
 58 27 58 27 48 38.5 c 128,-1,47
 38 50 38 50 38 59 c 0,48,49
 38 66 38 66 42.5 71 c 128,-1,50
 47 76 47 76 52 76 c 0,51,52
 59 76 59 76 67 68.5 c 128,-1,53
 75 61 75 61 89 52.5 c 128,-1,54
 103 44 103 44 125.5 36.5 c 128,-1,55
 148 29 148 29 183 29 c 0,0,1
EndSplineSet
EndChar
StartChar: t
Encoding: 116 116 367
Width: 272
Flags: W
LayerCount: 2
Back
Fore
SplineSet
66 686 m 2,0,1
 66 694 66 694 71.5 698.5 c 128,-1,2
 77 703 77 703 83 703 c 0,3,4
 90 703 90 703 95.5 698.5 c 128,-1,5
 101 694 101 694 101 686 c 2,6,-1
 101 472 l 1,7,-1
 236 472 l 2,8,9
 243 472 243 472 248 467 c 128,-1,10
 253 462 253 462 253 454 c 0,11,12
 253 447 253 447 248 442 c 128,-1,13
 243 437 243 437 236 437 c 2,14,-1
 101 437 l 1,15,-1
 101 139 l 2,16,17
 101 82 101 82 125.5 58.5 c 128,-1,18
 150 35 150 35 212 35 c 2,19,-1
 235 35 l 2,20,21
 242 35 242 35 247 30.5 c 128,-1,22
 252 26 252 26 252 18 c 256,23,24
 252 10 252 10 247 5 c 128,-1,25
 242 0 242 0 235 0 c 2,26,-1
 212 0 l 2,27,28
 140 0 140 0 103 33 c 128,-1,29
 66 66 66 66 66 139 c 2,30,-1
 66 686 l 2,0,1
EndSplineSet
EndChar
StartChar: u
Encoding: 117 117 383
Width: 483
Flags: W
LayerCount: 2
Back
Fore
SplineSet
242 -6 m 0,0,1
 205 -6 205 -6 172.5 9 c 128,-1,2
 140 24 140 24 116 48.5 c 128,-1,3
 92 73 92 73 78 105.5 c 128,-1,4
 64 138 64 138 64 174 c 2,5,-1
 64 454 l 2,6,7
 64 461 64 461 69 466.5 c 128,-1,8
 74 472 74 472 82 472 c 0,9,10
 89 472 89 472 94 466.5 c 128,-1,11
 99 461 99 461 99 454 c 2,12,-1
 99 174 l 2,13,14
 99 146 99 146 110 120 c 128,-1,15
 121 94 121 94 140.5 73.5 c 128,-1,16
 160 53 160 53 186 41 c 128,-1,17
 212 29 212 29 242 29 c 256,18,19
 272 29 272 29 297.5 41 c 128,-1,20
 323 53 323 53 342.5 73.5 c 128,-1,21
 362 94 362 94 373 120 c 128,-1,22
 384 146 384 146 384 174 c 2,23,-1
 384 455 l 2,24,25
 384 462 384 462 389 467 c 128,-1,26
 394 472 394 472 402 472 c 256,27,28
 410 472 410 472 414.5 467 c 128,-1,29
 419 462 419 462 419 455 c 2,30,-1
 419 174 l 2,31,32
 419 138 419 138 405 105.5 c 128,-1,33
 391 73 391 73 366.5 48 c 128,-1,34
 342 23 342 23 310 8.5 c 128,-1,35
 278 -6 278 -6 242 -6 c 0,0,1
EndSplineSet
Substitution2: "'ss05' Style Set 5 in Latin lookup 7 subtable" u.ss04
Substitution2: "'salt' Stylistic Alternatives in Latin lookup 2 subtable" u.ss04
Substitution2: "'aalt' Access All Alternates in Latin lookup 0 subtable" u.ss04
EndChar
StartChar: v
Encoding: 118 118 398
Width: 392
Flags: W
LayerCount: 2
Back
Fore
SplineSet
354 472 m 0,0,1
 361 472 361 472 367 467.5 c 128,-1,2
 373 463 373 463 373 455 c 0,3,4
 373 451 373 451 371.5 446.5 c 128,-1,5
 370 442 370 442 369 440 c 2,6,-1
 213 6 l 2,7,8
 208 -6 208 -6 196 -6 c 0,9,10
 183 -6 183 -6 179 6 c 2,11,-1
 23 440 l 2,12,13
 22 442 22 442 20.5 446.5 c 128,-1,14
 19 451 19 451 19 454 c 0,15,16
 19 462 19 462 24 467 c 128,-1,17
 29 472 29 472 37 472 c 0,18,19
 49 472 49 472 54 461 c 2,20,-1
 196 68 l 1,21,-1
 337 455 l 2,22,23
 339 461 339 461 341.5 466.5 c 128,-1,24
 344 472 344 472 354 472 c 0,0,1
EndSplineSet
EndChar
StartChar: w
Encoding: 119 119 399
Width: 654
Flags: W
LayerCount: 2
Back
Fore
SplineSet
617 472 m 0,0,1
 625 472 625 472 630 467.5 c 128,-1,2
 635 463 635 463 635 455 c 0,3,4
 635 452 635 452 633.5 447.5 c 128,-1,5
 632 443 632 443 631 441 c 2,6,-1
 474 6 l 2,7,8
 470 -6 470 -6 459 -6 c 0,9,10
 453 -6 453 -6 450.5 -3.5 c 128,-1,11
 448 -1 448 -1 445 5 c 2,12,-1
 328 380 l 1,13,-1
 213 11 l 2,14,15
 207 -6 207 -6 196 -6 c 0,16,17
 189 -6 189 -6 186 -3 c 128,-1,18
 183 0 183 0 179 11 c 2,19,-1
 23 441 l 2,20,21
 22 443 22 443 20.5 447.5 c 128,-1,22
 19 452 19 452 19 454 c 0,23,24
 19 462 19 462 24 467 c 128,-1,25
 29 472 29 472 37 472 c 0,26,27
 49 472 49 472 54 461 c 2,28,-1
 195 70 l 1,29,-1
 310 432 l 2,30,31
 315 445 315 445 328 445 c 256,32,33
 341 445 341 445 346 432 c 2,34,-1
 457 65 l 1,35,-1
 601 461 l 2,36,37
 604 472 604 472 617 472 c 0,0,1
EndSplineSet
EndChar
StartChar: x
Encoding: 120 120 404
Width: 381
Flags: W
LayerCount: 2
Back
Fore
SplineSet
337 478 m 0,0,1
 344 478 344 478 349.5 473 c 128,-1,2
 355 468 355 468 355 460 c 0,3,4
 355 455 355 455 352 451 c 2,5,-1
 212 238 l 1,6,-1
 352 21 l 2,7,8
 355 16 355 16 355 11 c 0,9,10
 355 4 355 4 350 -1 c 128,-1,11
 345 -6 345 -6 337 -6 c 0,12,13
 328 -6 328 -6 323 2 c 2,14,-1
 191 205 l 1,15,-1
 60 2 l 2,16,17
 54 -6 54 -6 45 -6 c 0,18,19
 37 -6 37 -6 32 -1 c 128,-1,20
 27 4 27 4 27 11 c 0,21,22
 27 16 27 16 30 21 c 2,23,-1
 169 238 l 1,24,-1
 30 451 l 2,25,26
 27 455 27 455 27 460 c 0,27,28
 27 468 27 468 32 473 c 128,-1,29
 37 478 37 478 45 478 c 0,30,31
 55 478 55 478 60 470 c 2,32,-1
 191 270 l 1,33,-1
 323 470 l 2,34,35
 328 478 328 478 337 478 c 0,0,1
EndSplineSet
EndChar
StartChar: y
Encoding: 121 121 405
Width: 395
Flags: W
LayerCount: 2
Back
Fore
SplineSet
358 478 m 0,0,1
 365 478 365 478 370.5 473.5 c 128,-1,2
 376 469 376 469 376 461 c 0,3,4
 376 457 376 457 375 455 c 2,5,-1
 215 13 l 2,6,7
 201 -25 201 -25 184.5 -68.5 c 128,-1,8
 168 -112 168 -112 146 -149.5 c 128,-1,9
 124 -187 124 -187 97 -212 c 128,-1,10
 70 -237 70 -237 36 -237 c 0,11,12
 29 -237 29 -237 24 -232.5 c 128,-1,13
 19 -228 19 -228 19 -220 c 0,14,15
 19 -213 19 -213 22.5 -207.5 c 128,-1,16
 26 -202 26 -202 34 -202 c 0,17,18
 61 -202 61 -202 82.5 -182 c 128,-1,19
 104 -162 104 -162 121.5 -130.5 c 128,-1,20
 139 -99 139 -99 153 -61 c 128,-1,21
 167 -23 167 -23 180 13 c 1,22,-1
 20 455 l 2,23,24
 18 459 18 459 18 461 c 0,25,26
 18 468 18 468 23.5 473 c 128,-1,27
 29 478 29 478 37 478 c 0,28,29
 50 478 50 478 53 467 c 2,30,-1
 198 67 l 1,31,-1
 342 467 l 2,32,33
 347 478 347 478 358 478 c 0,0,1
EndSplineSet
EndChar
StartChar: z
Encoding: 122 122 411
Width: 385
Flags: W
LayerCount: 2
Back
Fore
SplineSet
341 35 m 2,0,1
 349 35 349 35 354 30 c 128,-1,2
 359 25 359 25 359 17 c 0,3,4
 359 10 359 10 354 5 c 128,-1,5
 349 0 349 0 341 0 c 2,6,-1
 44 0 l 2,7,8
 36 0 36 0 31 4.5 c 128,-1,9
 26 9 26 9 26 16 c 0,10,11
 26 18 26 18 27 22 c 128,-1,12
 28 26 28 26 30 28 c 2,13,-1
 297 437 l 1,14,-1
 54 437 l 2,15,16
 46 437 46 437 41 442 c 128,-1,17
 36 447 36 447 36 454 c 0,18,19
 36 462 36 462 41 467 c 128,-1,20
 46 472 46 472 54 472 c 2,21,-1
 331 472 l 2,22,23
 339 472 339 472 344 467 c 128,-1,24
 349 462 349 462 349 454 c 0,25,26
 349 448 349 448 346 444 c 2,27,-1
 78 35 l 1,28,-1
 341 35 l 2,0,1
EndSplineSet
EndChar
StartChar: braceleft
Encoding: 123 123 159
Width: 285
Flags: W
LayerCount: 2
Back
Fore
SplineSet
34 384 m 256,0,1
 34 396 34 396 43.5 399 c 128,-1,2
 53 402 53 402 64 403.5 c 128,-1,3
 75 405 75 405 84.5 407.5 c 128,-1,4
 94 410 94 410 94 422 c 0,5,6
 94 429 94 429 90.5 454.5 c 128,-1,7
 87 480 87 480 83.5 510 c 128,-1,8
 80 540 80 540 76.5 568 c 128,-1,9
 73 596 73 596 73 607 c 0,10,11
 73 639 73 639 86.5 668.5 c 128,-1,12
 100 698 100 698 124 720 c 128,-1,13
 148 742 148 742 180 755 c 128,-1,14
 212 768 212 768 248 768 c 0,15,16
 255 768 255 768 260 763 c 128,-1,17
 265 758 265 758 265 751 c 0,18,19
 265 743 265 743 260 738 c 128,-1,20
 255 733 255 733 248 733 c 0,21,22
 217 733 217 733 191.5 722 c 128,-1,23
 166 711 166 711 147.5 693 c 128,-1,24
 129 675 129 675 119 651.5 c 128,-1,25
 109 628 109 628 109 604 c 0,26,27
 109 592 109 592 112.5 565 c 128,-1,28
 116 538 116 538 119.5 508.5 c 128,-1,29
 123 479 123 479 126.5 454 c 128,-1,30
 130 429 130 429 130 422 c 0,31,32
 130 405 130 405 117.5 395.5 c 128,-1,33
 105 386 105 386 96 384 c 1,34,35
 105 381 105 381 117.5 372 c 128,-1,36
 130 363 130 363 130 347 c 0,37,38
 130 338 130 338 126.5 308 c 128,-1,39
 123 278 123 278 119.5 242.5 c 128,-1,40
 116 207 116 207 112.5 174 c 128,-1,41
 109 141 109 141 109 127 c 0,42,43
 109 94 109 94 124.5 72.5 c 128,-1,44
 140 51 140 51 161.5 38 c 128,-1,45
 183 25 183 25 207 20 c 128,-1,46
 231 15 231 15 248 15 c 0,47,48
 258 15 258 15 261.5 9 c 128,-1,49
 265 3 265 3 265 -2 c 0,50,51
 265 -10 265 -10 259.5 -15 c 128,-1,52
 254 -20 254 -20 248 -20 c 0,53,54
 211 -20 211 -20 179 -9 c 128,-1,55
 147 2 147 2 123.5 21.5 c 128,-1,56
 100 41 100 41 86.5 68.5 c 128,-1,57
 73 96 73 96 73 129 c 0,58,59
 73 137 73 137 74.5 155 c 128,-1,60
 76 173 76 173 78.5 196 c 128,-1,61
 81 219 81 219 83.5 243.5 c 128,-1,62
 86 268 86 268 88.5 289.5 c 128,-1,63
 91 311 91 311 92.5 326.5 c 128,-1,64
 94 342 94 342 94 347 c 0,65,66
 94 359 94 359 84.5 361.5 c 128,-1,67
 75 364 75 364 64 365 c 128,-1,68
 53 366 53 366 43.5 369 c 128,-1,69
 34 372 34 372 34 384 c 256,0,1
EndSplineSet
EndChar
StartChar: bar
Encoding: 124 124 158
Width: 184
Flags: W
LayerCount: 2
Back
Fore
SplineSet
92 -21 m 0,0,1
 84 -21 84 -21 79 -16 c 128,-1,2
 74 -11 74 -11 74 -4 c 2,3,-1
 74 751 l 2,4,5
 74 758 74 758 79 763 c 128,-1,6
 84 768 84 768 92 768 c 0,7,8
 99 768 99 768 104.5 763 c 128,-1,9
 110 758 110 758 110 751 c 2,10,-1
 110 -4 l 2,11,12
 110 -11 110 -11 104.5 -16 c 128,-1,13
 99 -21 99 -21 92 -21 c 0,0,1
EndSplineSet
EndChar
StartChar: braceright
Encoding: 125 125 160
Width: 285
Flags: W
LayerCount: 2
Back
Fore
SplineSet
251 384 m 256,0,1
 251 372 251 372 241.5 369 c 128,-1,2
 232 366 232 366 221 365 c 128,-1,3
 210 364 210 364 200.5 361.5 c 128,-1,4
 191 359 191 359 191 347 c 0,5,6
 191 342 191 342 192.5 326.5 c 128,-1,7
 194 311 194 311 196.5 289.5 c 128,-1,8
 199 268 199 268 201.5 243.5 c 128,-1,9
 204 219 204 219 206.5 196 c 128,-1,10
 209 173 209 173 210.5 155 c 128,-1,11
 212 137 212 137 212 129 c 0,12,13
 212 96 212 96 198.5 68.5 c 128,-1,14
 185 41 185 41 161.5 21.5 c 128,-1,15
 138 2 138 2 106 -9 c 128,-1,16
 74 -20 74 -20 37 -20 c 0,17,18
 31 -20 31 -20 25.5 -15 c 128,-1,19
 20 -10 20 -10 20 -2 c 0,20,21
 20 3 20 3 23.5 9 c 128,-1,22
 27 15 27 15 37 15 c 0,23,24
 54 15 54 15 78 20 c 128,-1,25
 102 25 102 25 123.5 38 c 128,-1,26
 145 51 145 51 160.5 72.5 c 128,-1,27
 176 94 176 94 176 127 c 0,28,29
 176 141 176 141 172.5 174 c 128,-1,30
 169 207 169 207 165.5 242.5 c 128,-1,31
 162 278 162 278 158.5 308 c 128,-1,32
 155 338 155 338 155 347 c 0,33,34
 155 363 155 363 167 372 c 128,-1,35
 179 381 179 381 189 384 c 1,36,37
 179 386 179 386 167 395.5 c 128,-1,38
 155 405 155 405 155 422 c 0,39,40
 155 429 155 429 158.5 454 c 128,-1,41
 162 479 162 479 165.5 508.5 c 128,-1,42
 169 538 169 538 172.5 565 c 128,-1,43
 176 592 176 592 176 604 c 0,44,45
 176 628 176 628 166 651.5 c 128,-1,46
 156 675 156 675 137.5 693 c 128,-1,47
 119 711 119 711 93.5 722 c 128,-1,48
 68 733 68 733 37 733 c 0,49,50
 30 733 30 733 25 738 c 128,-1,51
 20 743 20 743 20 751 c 0,52,53
 20 758 20 758 25 763 c 128,-1,54
 30 768 30 768 37 768 c 0,55,56
 73 768 73 768 105 755 c 128,-1,57
 137 742 137 742 161 720 c 128,-1,58
 185 698 185 698 198.5 668.5 c 128,-1,59
 212 639 212 639 212 607 c 0,60,61
 212 596 212 596 208.5 568 c 128,-1,62
 205 540 205 540 201.5 510 c 128,-1,63
 198 480 198 480 194.5 454.5 c 128,-1,64
 191 429 191 429 191 422 c 0,65,66
 191 410 191 410 200.5 407.5 c 128,-1,67
 210 405 210 405 221 403.5 c 128,-1,68
 232 402 232 402 241.5 399 c 128,-1,69
 251 396 251 396 251 384 c 256,0,1
EndSplineSet
EndChar
StartChar: asciitilde
Encoding: 126 126 151
Width: 400
Flags: W
LayerCount: 2
Back
Fore
SplineSet
269 257 m 0,0,1
 286 257 286 257 296 262 c 128,-1,2
 306 267 306 267 312.5 273 c 128,-1,3
 319 279 319 279 323.5 284 c 128,-1,4
 328 289 328 289 334 289 c 0,5,6
 339 289 339 289 343.5 285 c 128,-1,7
 348 281 348 281 348 274 c 0,8,9
 348 262 348 262 339.5 253 c 128,-1,10
 331 244 331 244 318 237 c 128,-1,11
 305 230 305 230 290.5 226.5 c 128,-1,12
 276 223 276 223 264 223 c 0,13,14
 246 223 246 223 231.5 229 c 128,-1,15
 217 235 217 235 202.5 241.5 c 128,-1,16
 188 248 188 248 172 254 c 128,-1,17
 156 260 156 260 135 260 c 0,18,19
 119 260 119 260 108 254.5 c 128,-1,20
 97 249 97 249 89.5 242.5 c 128,-1,21
 82 236 82 236 76.5 230.5 c 128,-1,22
 71 225 71 225 66 225 c 0,23,24
 53 225 53 225 53 242 c 0,25,26
 53 252 53 252 62 261 c 128,-1,27
 71 270 71 270 84 277.5 c 128,-1,28
 97 285 97 285 112.5 289.5 c 128,-1,29
 128 294 128 294 142 294 c 0,30,31
 160 294 160 294 175 288 c 128,-1,32
 190 282 190 282 204.5 275.5 c 128,-1,33
 219 269 219 269 234.5 263 c 128,-1,34
 250 257 250 257 269 257 c 0,0,1
EndSplineSet
EndChar
StartChar: exclamdown
Encoding: 161 161 215
Width: 193
Flags: W
LayerCount: 2
Back
Fore
SplineSet
123 25 m 0,0,1
 123 10 123 10 115 2 c 128,-1,2
 107 -6 107 -6 96 -6 c 256,3,4
 85 -6 85 -6 77.5 2 c 128,-1,5
 70 10 70 10 70 25 c 0,6,7
 70 161 70 161 75.5 302 c 128,-1,8
 81 443 81 443 81 579 c 0,9,10
 81 587 81 587 86 591 c 128,-1,11
 91 595 91 595 96 595 c 256,12,13
 101 595 101 595 106.5 591 c 128,-1,14
 112 587 112 587 112 579 c 0,15,16
 112 443 112 443 117.5 302 c 128,-1,17
 123 161 123 161 123 25 c 0,0,1
97 676 m 0,18,19
 81 676 81 676 71 686.5 c 128,-1,20
 61 697 61 697 61 712 c 0,21,22
 61 726 61 726 71 737 c 128,-1,23
 81 748 81 748 97 748 c 0,24,25
 111 748 111 748 121.5 737 c 128,-1,26
 132 726 132 726 132 712 c 0,27,28
 132 697 132 697 121.5 686.5 c 128,-1,29
 111 676 111 676 97 676 c 0,18,19
EndSplineSet
EndChar
StartChar: cent
Encoding: 162 162 175
Width: 406
Flags: W
LayerCount: 2
Back
Fore
SplineSet
201 40 m 0,0,1
 193 40 193 40 188 45 c 128,-1,2
 183 50 183 50 183 57 c 2,3,-1
 183 177 l 1,4,5
 112 188 112 188 76.5 237.5 c 128,-1,6
 41 287 41 287 41 356 c 2,7,-1
 41 376 l 2,8,9
 41 410 41 410 49.5 440 c 128,-1,10
 58 470 58 470 75.5 493.5 c 128,-1,11
 93 517 93 517 119.5 533 c 128,-1,12
 146 549 146 549 183 555 c 1,13,-1
 183 677 l 2,14,15
 183 684 183 684 188 689 c 128,-1,16
 193 694 193 694 201 694 c 0,17,18
 208 694 208 694 213.5 689 c 128,-1,19
 219 684 219 684 219 677 c 2,20,-1
 219 558 l 1,21,22
 247 558 247 558 273 553 c 128,-1,23
 299 548 299 548 318.5 540 c 128,-1,24
 338 532 338 532 349.5 521.5 c 128,-1,25
 361 511 361 511 361 500 c 0,26,27
 361 492 361 492 355 487 c 128,-1,28
 349 482 349 482 342 482 c 256,29,30
 335 482 335 482 327.5 488.5 c 128,-1,31
 320 495 320 495 307 502.5 c 128,-1,32
 294 510 294 510 273 516.5 c 128,-1,33
 252 523 252 523 219 523 c 1,34,-1
 219 209 l 1,35,36
 252 209 252 209 273 215.5 c 128,-1,37
 294 222 294 222 307 229.5 c 128,-1,38
 320 237 320 237 327.5 243.5 c 128,-1,39
 335 250 335 250 342 250 c 256,40,41
 349 250 349 250 355 245 c 128,-1,42
 361 240 361 240 361 232 c 0,43,44
 361 220 361 220 348.5 209.5 c 128,-1,45
 336 199 336 199 316 191 c 128,-1,46
 296 183 296 183 270.5 178.5 c 128,-1,47
 245 174 245 174 219 174 c 1,48,-1
 219 57 l 2,49,50
 219 50 219 50 213.5 45 c 128,-1,51
 208 40 208 40 201 40 c 0,0,1
76 356 m 2,52,53
 76 298 76 298 102.5 261 c 128,-1,54
 129 224 129 224 183 213 c 1,55,-1
 183 519 l 1,56,57
 129 508 129 508 102.5 470.5 c 128,-1,58
 76 433 76 433 76 376 c 2,59,-1
 76 356 l 2,52,53
EndSplineSet
EndChar
StartChar: sterling
Encoding: 163 163 365
Width: 461
Flags: W
LayerCount: 2
Back
Fore
SplineSet
49 384 m 0,0,1
 49 392 49 392 53.5 397 c 128,-1,2
 58 402 58 402 66 402 c 2,3,-1
 157 402 l 1,4,-1
 184 590 l 2,5,6
 189 626 189 626 207.5 658.5 c 128,-1,7
 226 691 226 691 253.5 715 c 128,-1,8
 281 739 281 739 315.5 753.5 c 128,-1,9
 350 768 350 768 387 768 c 2,10,-1
 399 768 l 2,11,12
 409 768 409 768 414 762.5 c 128,-1,13
 419 757 419 757 419 750 c 0,14,15
 419 744 419 744 414 738.5 c 128,-1,16
 409 733 409 733 399 733 c 2,17,-1
 382 733 l 2,18,19
 352 733 352 733 324 721 c 128,-1,20
 296 709 296 709 274 689 c 128,-1,21
 252 669 252 669 237.5 643.5 c 128,-1,22
 223 618 223 618 219 590 c 2,23,-1
 192 402 l 1,24,-1
 355 402 l 2,25,26
 363 402 363 402 367 396.5 c 128,-1,27
 371 391 371 391 371 384 c 0,28,29
 371 378 371 378 367 372.5 c 128,-1,30
 363 367 363 367 355 367 c 2,31,-1
 187 367 l 1,32,-1
 140 36 l 1,33,-1
 403 36 l 2,34,35
 411 36 411 36 415 30.5 c 128,-1,36
 419 25 419 25 419 18 c 256,37,38
 419 11 419 11 415 5.5 c 128,-1,39
 411 0 411 0 403 0 c 2,40,-1
 43 0 l 2,41,42
 34 0 34 0 29.5 5.5 c 128,-1,43
 25 11 25 11 25 18 c 256,44,45
 25 25 25 25 29.5 30.5 c 128,-1,46
 34 36 34 36 43 36 c 2,47,-1
 106 36 l 1,48,-1
 152 367 l 1,49,-1
 66 367 l 2,50,51
 49 367 49 367 49 384 c 0,0,1
EndSplineSet
EndChar
StartChar: currency
Encoding: 164 164 181
Width: 489
Flags: W
LayerCount: 2
Back
Fore
SplineSet
246 652 m 0,0,1
 277 652 277 652 305 641.5 c 128,-1,2
 333 631 333 631 356 612 c 1,3,-1
 384 640 l 2,4,5
 389 645 389 645 397 645 c 0,6,7
 404 645 404 645 409 640 c 128,-1,8
 414 635 414 635 414 628 c 0,9,10
 414 620 414 620 409 615 c 2,11,-1
 381 587 l 1,12,13
 401 564 401 564 412.5 534.5 c 128,-1,14
 424 505 424 505 424 472 c 0,15,16
 424 440 424 440 412 410.5 c 128,-1,17
 400 381 400 381 380 357 c 1,18,-1
 409 328 l 2,19,20
 414 321 414 321 414 316 c 0,21,22
 414 310 414 310 409 304.5 c 128,-1,23
 404 299 404 299 397 299 c 0,24,25
 389 299 389 299 385 304 c 2,26,-1
 356 332 l 1,27,28
 333 312 333 312 305 301 c 128,-1,29
 277 290 277 290 246 290 c 0,30,31
 213 290 213 290 183.5 302.5 c 128,-1,32
 154 315 154 315 130 337 c 1,33,-1
 97 304 l 2,34,35
 92 299 92 299 85 299 c 256,36,37
 78 299 78 299 73 304 c 128,-1,38
 68 309 68 309 68 316 c 256,39,40
 68 323 68 323 73 328 c 2,41,-1
 107 362 l 1,42,43
 89 385 89 385 79 413 c 128,-1,44
 69 441 69 441 69 472 c 0,45,46
 69 502 69 502 79 530 c 128,-1,47
 89 558 89 558 106 581 c 1,48,-1
 80 608 l 2,49,50
 75 613 75 613 75 621 c 256,51,52
 75 629 75 629 80.5 633.5 c 128,-1,53
 86 638 86 638 93 638 c 256,54,55
 100 638 100 638 105 633 c 2,56,-1
 130 607 l 1,57,58
 153 628 153 628 183 640 c 128,-1,59
 213 652 213 652 246 652 c 0,0,1
386 472 m 0,60,61
 386 499 386 499 375 524.5 c 128,-1,62
 364 550 364 550 345 570 c 128,-1,63
 326 590 326 590 300.5 602 c 128,-1,64
 275 614 275 614 246 614 c 256,65,66
 217 614 217 614 191.5 602 c 128,-1,67
 166 590 166 590 147 570 c 128,-1,68
 128 550 128 550 117.5 524.5 c 128,-1,69
 107 499 107 499 107 472 c 0,70,71
 107 444 107 444 118 418 c 128,-1,72
 129 392 129 392 147.5 372 c 128,-1,73
 166 352 166 352 191.5 340 c 128,-1,74
 217 328 217 328 246 328 c 256,75,76
 275 328 275 328 300.5 340 c 128,-1,77
 326 352 326 352 345 372 c 128,-1,78
 364 392 364 392 375 418 c 128,-1,79
 386 444 386 444 386 472 c 0,60,61
EndSplineSet
EndChar
StartChar: yen
Encoding: 165 165 409
Width: 479
Flags: W
LayerCount: 2
Back
Fore
SplineSet
253 310 m 1,0,-1
 253 232 l 1,1,-1
 384 232 l 2,2,3
 391 232 391 232 396.5 227 c 128,-1,4
 402 222 402 222 402 214 c 256,5,6
 402 206 402 206 396.5 201.5 c 128,-1,7
 391 197 391 197 384 197 c 2,8,-1
 253 197 l 1,9,-1
 253 17 l 2,10,11
 253 10 253 10 248.5 5 c 128,-1,12
 244 0 244 0 236 0 c 256,13,14
 228 0 228 0 223 5 c 128,-1,15
 218 10 218 10 218 17 c 2,16,-1
 218 197 l 1,17,-1
 94 197 l 2,18,19
 77 197 77 197 77 214 c 0,20,21
 77 222 77 222 81.5 227 c 128,-1,22
 86 232 86 232 94 232 c 2,23,-1
 218 232 l 1,24,-1
 218 310 l 1,25,-1
 94 310 l 2,26,27
 77 310 77 310 77 327 c 0,28,29
 77 335 77 335 81.5 340 c 128,-1,30
 86 345 86 345 94 345 c 2,31,-1
 209 345 l 1,32,-1
 29 707 l 2,33,34
 27 711 27 711 27 714 c 0,35,36
 27 720 27 720 32 725.5 c 128,-1,37
 37 731 37 731 45 731 c 0,38,39
 56 731 56 731 62 721 c 2,40,-1
 236 375 l 1,41,-1
 420 721 l 2,42,43
 426 731 426 731 437 731 c 0,44,45
 453 731 453 731 453 714 c 0,46,47
 453 709 453 709 452 707 c 2,48,-1
 262 345 l 1,49,-1
 384 345 l 2,50,51
 391 345 391 345 396.5 340 c 128,-1,52
 402 335 402 335 402 327 c 256,53,54
 402 319 402 319 396.5 314.5 c 128,-1,55
 391 310 391 310 384 310 c 2,56,-1
 253 310 l 1,0,-1
EndSplineSet
EndChar
StartChar: brokenbar
Encoding: 166 166 164
Width: 186
Flags: W
LayerCount: 2
Back
Fore
SplineSet
93 -21 m 0,0,1
 85 -21 85 -21 80 -16 c 128,-1,2
 75 -11 75 -11 75 -4 c 2,3,-1
 75 278 l 2,4,5
 75 285 75 285 80 290 c 128,-1,6
 85 295 85 295 93 295 c 0,7,8
 100 295 100 295 105.5 290 c 128,-1,9
 111 285 111 285 111 278 c 2,10,-1
 111 -4 l 2,11,12
 111 -11 111 -11 105.5 -16 c 128,-1,13
 100 -21 100 -21 93 -21 c 0,0,1
93 452 m 0,14,15
 85 452 85 452 80 457 c 128,-1,16
 75 462 75 462 75 469 c 2,17,-1
 75 751 l 2,18,19
 75 758 75 758 80 763 c 128,-1,20
 85 768 85 768 93 768 c 0,21,22
 100 768 100 768 105.5 763 c 128,-1,23
 111 758 111 758 111 751 c 2,24,-1
 111 469 l 2,25,26
 111 462 111 462 105.5 457 c 128,-1,27
 100 452 100 452 93 452 c 0,14,15
EndSplineSet
EndChar
StartChar: section
Encoding: 167 167 354
Width: 461
Flags: W
LayerCount: 2
Back
Fore
SplineSet
367 113 m 0,0,1
 367 160 367 160 345 184.5 c 128,-1,2
 323 209 323 209 290 223.5 c 128,-1,3
 257 238 257 238 218.5 248.5 c 128,-1,4
 180 259 180 259 147 277 c 128,-1,5
 114 295 114 295 92 326.5 c 128,-1,6
 70 358 70 358 70 415 c 2,7,-1
 70 547 l 2,8,9
 70 603 70 603 86 638.5 c 128,-1,10
 102 674 102 674 126 694.5 c 128,-1,11
 150 715 150 715 178.5 723 c 128,-1,12
 207 731 207 731 233 731 c 0,13,14
 308 731 308 731 346.5 687.5 c 128,-1,15
 385 644 385 644 385 573 c 0,16,17
 385 560 385 560 379 555.5 c 128,-1,18
 373 551 373 551 366 551 c 0,19,20
 358 551 358 551 352.5 556 c 128,-1,21
 347 561 347 561 347 576 c 0,22,23
 347 592 347 592 342.5 612.5 c 128,-1,24
 338 633 338 633 325.5 651.5 c 128,-1,25
 313 670 313 670 291 682.5 c 128,-1,26
 269 695 269 695 235 695 c 0,27,28
 213 695 213 695 190 688 c 128,-1,29
 167 681 167 681 148.5 664 c 128,-1,30
 130 647 130 647 118 618.5 c 128,-1,31
 106 590 106 590 106 547 c 0,32,33
 106 500 106 500 128 475.5 c 128,-1,34
 150 451 150 451 183 436.5 c 128,-1,35
 216 422 216 422 254.5 411 c 128,-1,36
 293 400 293 400 326 382 c 128,-1,37
 359 364 359 364 381 332.5 c 128,-1,38
 403 301 403 301 403 245 c 2,39,-1
 403 115 l 2,40,41
 403 68 403 68 389.5 33.5 c 128,-1,42
 376 -1 376 -1 353 -23 c 128,-1,43
 330 -45 330 -45 298 -55.5 c 128,-1,44
 266 -66 266 -66 230 -66 c 0,45,46
 190 -66 190 -66 157 -53 c 128,-1,47
 124 -40 124 -40 101 -18 c 128,-1,48
 78 4 78 4 65 34 c 128,-1,49
 52 64 52 64 52 99 c 0,50,51
 52 110 52 110 57.5 114.5 c 128,-1,52
 63 119 63 119 71 119 c 0,53,54
 80 119 80 119 84 113.5 c 128,-1,55
 88 108 88 108 88 101 c 0,56,57
 88 84 88 84 93.5 61.5 c 128,-1,58
 99 39 99 39 114 19 c 128,-1,59
 129 -1 129 -1 155.5 -15.5 c 128,-1,60
 182 -30 182 -30 224 -30 c 0,61,62
 292 -30 292 -30 329.5 6.5 c 128,-1,63
 367 43 367 43 367 113 c 0,0,1
367 243 m 2,64,65
 367 282 367 282 353 307 c 128,-1,66
 339 332 339 332 316 347.5 c 128,-1,67
 293 363 293 363 264.5 372.5 c 128,-1,68
 236 382 236 382 207 391.5 c 128,-1,69
 178 401 178 401 151.5 414 c 128,-1,70
 125 427 125 427 106 449 c 1,71,-1
 106 417 l 2,72,73
 106 377 106 377 120 352.5 c 128,-1,74
 134 328 134 328 157 312.5 c 128,-1,75
 180 297 180 297 208.5 287 c 128,-1,76
 237 277 237 277 266 267.5 c 128,-1,77
 295 258 295 258 321.5 245 c 128,-1,78
 348 232 348 232 367 210 c 1,79,-1
 367 243 l 2,64,65
EndSplineSet
EndChar
StartChar: dieresis
Encoding: 168 168 188
Width: 170
Flags: W
LayerCount: 2
Back
Fore
SplineSet
30 659 m 0,0,1
 43 659 43 659 51 651 c 128,-1,2
 59 643 59 643 59 630 c 256,3,4
 59 617 59 617 51 608.5 c 128,-1,5
 43 600 43 600 30 600 c 0,6,7
 16 600 16 600 8 608.5 c 128,-1,8
 0 617 0 617 0 630 c 256,9,10
 0 643 0 643 8 651 c 128,-1,11
 16 659 16 659 30 659 c 0,0,1
141 659 m 0,12,13
 154 659 154 659 162 651 c 128,-1,14
 170 643 170 643 170 630 c 256,15,16
 170 617 170 617 162 608.5 c 128,-1,17
 154 600 154 600 141 600 c 0,18,19
 127 600 127 600 119 608.5 c 128,-1,20
 111 617 111 617 111 630 c 256,21,22
 111 643 111 643 119 651 c 128,-1,23
 127 659 127 659 141 659 c 0,12,13
EndSplineSet
EndChar
StartChar: copyright
Encoding: 169 169 180
Width: 728
Flags: W
LayerCount: 2
Back
Fore
SplineSet
57 358 m 0,0,1
 57 442 57 442 86 503.5 c 128,-1,2
 115 565 115 565 160 605.5 c 128,-1,3
 205 646 205 646 260 665.5 c 128,-1,4
 315 685 315 685 367 685 c 0,5,6
 420 685 420 685 474 665 c 128,-1,7
 528 645 528 645 572 605 c 128,-1,8
 616 565 616 565 643.5 504 c 128,-1,9
 671 443 671 443 671 362 c 0,10,11
 671 278 671 278 642 216.5 c 128,-1,12
 613 155 613 155 568 114.5 c 128,-1,13
 523 74 523 74 468 54.5 c 128,-1,14
 413 35 413 35 361 35 c 0,15,16
 308 35 308 35 254 55 c 128,-1,17
 200 75 200 75 156 115 c 128,-1,18
 112 155 112 155 84.5 216 c 128,-1,19
 57 277 57 277 57 358 c 0,0,1
636 362 m 0,20,21
 636 425 636 425 616.5 477.5 c 128,-1,22
 597 530 597 530 562 568.5 c 128,-1,23
 527 607 527 607 477 628.5 c 128,-1,24
 427 650 427 650 367 650 c 256,25,26
 307 650 307 650 257 628.5 c 128,-1,27
 207 607 207 607 170 568.5 c 128,-1,28
 133 530 133 530 112.5 476.5 c 128,-1,29
 92 423 92 423 92 358 c 0,30,31
 92 295 92 295 111.5 242.5 c 128,-1,32
 131 190 131 190 166 151.5 c 128,-1,33
 201 113 201 113 251 91.5 c 128,-1,34
 301 70 301 70 361 70 c 256,35,36
 421 70 421 70 471 91.5 c 128,-1,37
 521 113 521 113 558 151.5 c 128,-1,38
 595 190 595 190 615.5 243.5 c 128,-1,39
 636 297 636 297 636 362 c 0,20,21
427 467 m 0,40,41
 427 476 427 476 424.5 487 c 128,-1,42
 422 498 422 498 415.5 508 c 128,-1,43
 409 518 409 518 397 525 c 128,-1,44
 385 532 385 532 366 532 c 0,45,46
 336 532 336 532 319.5 512 c 128,-1,47
 303 492 303 492 303 450 c 2,48,-1
 303 283 l 2,49,50
 303 201 303 201 367 201 c 0,51,52
 386 201 386 201 397.5 208 c 128,-1,53
 409 215 409 215 415 225 c 128,-1,54
 421 235 421 235 423.5 246.5 c 128,-1,55
 426 258 426 258 427 268 c 0,56,57
 429 282 429 282 445 282 c 0,58,59
 455 282 455 282 459 277.5 c 128,-1,60
 463 273 463 273 463 260 c 0,61,62
 463 222 463 222 437 195 c 128,-1,63
 411 168 411 168 364 168 c 0,64,65
 324 168 324 168 295.5 194 c 128,-1,66
 267 220 267 220 267 283 c 2,67,-1
 267 450 l 2,68,69
 267 513 267 513 296 539.5 c 128,-1,70
 325 566 325 566 365 566 c 0,71,72
 412 566 412 566 437.5 539 c 128,-1,73
 463 512 463 512 463 475 c 0,74,75
 463 461 463 461 459 457 c 128,-1,76
 455 453 455 453 445 453 c 0,77,78
 427 453 427 453 427 467 c 0,40,41
EndSplineSet
EndChar
StartChar: ordfeminine
Encoding: 170 170 309
Width: 306
Flags: W
LayerCount: 2
Back
Fore
SplineSet
142 731 m 0,0,1
 172 731 172 731 193 721 c 128,-1,2
 214 711 214 711 227 694.5 c 128,-1,3
 240 678 240 678 246 656 c 128,-1,4
 252 634 252 634 252 611 c 2,5,-1
 252 449 l 2,6,7
 252 443 252 443 247 438.5 c 128,-1,8
 242 434 242 434 234 434 c 0,9,10
 227 434 227 434 222 438.5 c 128,-1,11
 217 443 217 443 217 449 c 2,12,-1
 217 477 l 1,13,14
 202 460 202 460 180.5 446.5 c 128,-1,15
 159 433 159 433 130 431 c 0,16,17
 124 431 124 431 117.5 431 c 128,-1,18
 111 431 111 431 105 432 c 0,19,20
 76 437 76 437 57.5 456 c 128,-1,21
 39 475 39 475 39 512 c 0,22,23
 39 562 39 562 79 579 c 128,-1,24
 119 596 119 596 184 596 c 2,25,-1
 216 596 l 1,26,-1
 216 611 l 2,27,28
 216 627 216 627 212 642.5 c 128,-1,29
 208 658 208 658 199 670.5 c 128,-1,30
 190 683 190 683 175.5 691 c 128,-1,31
 161 699 161 699 141 699 c 0,32,33
 110 699 110 699 96 690 c 128,-1,34
 82 681 82 681 75 681 c 0,35,36
 67 681 67 681 63.5 687.5 c 128,-1,37
 60 694 60 694 60 700 c 256,38,39
 60 706 60 706 67.5 711.5 c 128,-1,40
 75 717 75 717 86.5 721.5 c 128,-1,41
 98 726 98 726 112.5 728.5 c 128,-1,42
 127 731 127 731 142 731 c 0,0,1
216 569 m 1,43,-1
 185 569 l 2,44,45
 164 569 164 569 144 567.5 c 128,-1,46
 124 566 124 566 108.5 560 c 128,-1,47
 93 554 93 554 84 543 c 128,-1,48
 75 532 75 532 75 514 c 0,49,50
 75 486 75 486 91.5 473.5 c 128,-1,51
 108 461 108 461 131 461 c 0,52,53
 147 461 147 461 162 467.5 c 128,-1,54
 177 474 177 474 189 483.5 c 128,-1,55
 201 493 201 493 208.5 504.5 c 128,-1,56
 216 516 216 516 216 527 c 2,57,-1
 216 569 l 1,43,-1
EndSplineSet
EndChar
StartChar: guillemotleft
Encoding: 171 171 238
Width: 361
Flags: W
LayerCount: 2
Back
Fore
SplineSet
45 260 m 2,0,1
 40 268 40 268 40 277 c 256,2,3
 40 286 40 286 45 294 c 2,4,-1
 141 472 l 2,5,6
 145 481 145 481 158 481 c 0,7,8
 165 481 165 481 169.5 476 c 128,-1,9
 174 471 174 471 174 464 c 0,10,11
 174 459 174 459 171 455 c 2,12,-1
 75 277 l 1,13,-1
 171 100 l 2,14,15
 174 95 174 95 174 91 c 0,16,17
 174 83 174 83 168.5 78.5 c 128,-1,18
 163 74 163 74 156 74 c 0,19,20
 146 74 146 74 141 83 c 2,21,-1
 45 260 l 2,0,1
191 260 m 2,22,23
 186 268 186 268 186 277 c 256,24,25
 186 286 186 286 191 294 c 2,26,-1
 287 472 l 2,27,28
 291 481 291 481 304 481 c 0,29,30
 311 481 311 481 315.5 476 c 128,-1,31
 320 471 320 471 320 464 c 0,32,33
 320 459 320 459 317 455 c 2,34,-1
 221 277 l 1,35,-1
 317 100 l 2,36,37
 320 95 320 95 320 91 c 0,38,39
 320 83 320 83 314.5 78.5 c 128,-1,40
 309 74 309 74 302 74 c 0,41,42
 292 74 292 74 287 83 c 2,43,-1
 191 260 l 2,22,23
EndSplineSet
EndChar
StartChar: logicalnot
Encoding: 172 172 271
Width: 479
Flags: W
LayerCount: 2
Back
Fore
SplineSet
389 63 m 0,0,1
 381 63 381 63 376 67.5 c 128,-1,2
 371 72 371 72 371 80 c 2,3,-1
 371 223 l 1,4,-1
 78 223 l 2,5,6
 61 223 61 223 61 240 c 0,7,8
 61 248 61 248 65.5 253 c 128,-1,9
 70 258 70 258 78 258 c 2,10,-1
 388 258 l 2,11,12
 395 258 395 258 400.5 253 c 128,-1,13
 406 248 406 248 406 240 c 2,14,-1
 406 80 l 2,15,16
 406 63 406 63 389 63 c 0,0,1
EndSplineSet
EndChar
StartChar: uni00AD
Encoding: 173 173 394
Width: 455
Flags: W
LayerCount: 2
Back
Fore
SplineSet
50 240 m 0,0,1
 50 248 50 248 54.5 253 c 128,-1,2
 59 258 59 258 67 258 c 2,3,-1
 387 258 l 2,4,5
 394 258 394 258 399.5 253 c 128,-1,6
 405 248 405 248 405 240 c 256,7,8
 405 232 405 232 399.5 227.5 c 128,-1,9
 394 223 394 223 387 223 c 2,10,-1
 67 223 l 2,11,12
 50 223 50 223 50 240 c 0,0,1
EndSplineSet
EndChar
StartChar: registered
Encoding: 174 174 345
Width: 728
Flags: W
LayerCount: 2
Back
Fore
SplineSet
57 358 m 0,0,1
 57 442 57 442 86 503.5 c 128,-1,2
 115 565 115 565 160 605.5 c 128,-1,3
 205 646 205 646 260 665.5 c 128,-1,4
 315 685 315 685 367 685 c 0,5,6
 420 685 420 685 474 665 c 128,-1,7
 528 645 528 645 572 605 c 128,-1,8
 616 565 616 565 643.5 504 c 128,-1,9
 671 443 671 443 671 362 c 0,10,11
 671 278 671 278 642 216.5 c 128,-1,12
 613 155 613 155 568 114.5 c 128,-1,13
 523 74 523 74 468 54.5 c 128,-1,14
 413 35 413 35 361 35 c 0,15,16
 308 35 308 35 254 55 c 128,-1,17
 200 75 200 75 156 115 c 128,-1,18
 112 155 112 155 84.5 216 c 128,-1,19
 57 277 57 277 57 358 c 0,0,1
636 362 m 0,20,21
 636 425 636 425 616.5 477.5 c 128,-1,22
 597 530 597 530 562 568.5 c 128,-1,23
 527 607 527 607 477 628.5 c 128,-1,24
 427 650 427 650 367 650 c 256,25,26
 307 650 307 650 257 628.5 c 128,-1,27
 207 607 207 607 170 568.5 c 128,-1,28
 133 530 133 530 112.5 476.5 c 128,-1,29
 92 423 92 423 92 358 c 0,30,31
 92 295 92 295 111.5 242.5 c 128,-1,32
 131 190 131 190 166 151.5 c 128,-1,33
 201 113 201 113 251 91.5 c 128,-1,34
 301 70 301 70 361 70 c 256,35,36
 421 70 421 70 471 91.5 c 128,-1,37
 521 113 521 113 558 151.5 c 128,-1,38
 595 190 595 190 615.5 243.5 c 128,-1,39
 636 297 636 297 636 362 c 0,20,21
275 550 m 2,40,41
 275 562 275 562 288 564 c 2,42,-1
 372 564 l 2,43,44
 393 564 393 564 411 558.5 c 128,-1,45
 429 553 429 553 443 540.5 c 128,-1,46
 457 528 457 528 465 507.5 c 128,-1,47
 473 487 473 487 473 457 c 0,48,49
 473 406 473 406 453 382.5 c 128,-1,50
 433 359 433 359 403 353 c 1,51,-1
 472 194 l 2,52,53
 474 188 474 188 474 187 c 0,54,55
 474 179 474 179 467.5 173.5 c 128,-1,56
 461 168 461 168 453 168 c 0,57,58
 447 168 447 168 443 174 c 128,-1,59
 439 180 439 180 436 187 c 2,60,-1
 363 349 l 1,61,-1
 311 349 l 1,62,-1
 311 183 l 2,63,64
 311 176 311 176 305.5 172.5 c 128,-1,65
 300 169 300 169 293 169 c 256,66,67
 286 169 286 169 280.5 172.5 c 128,-1,68
 275 176 275 176 275 183 c 2,69,-1
 275 550 l 2,40,41
311 530 m 1,70,-1
 311 380 l 1,71,-1
 372 380 l 2,72,73
 401 380 401 380 419 397 c 128,-1,74
 437 414 437 414 437 455 c 256,75,76
 437 496 437 496 419 513 c 128,-1,77
 401 530 401 530 372 530 c 2,78,-1
 311 530 l 1,70,-1
EndSplineSet
EndChar
StartChar: macron
Encoding: 175 175 276
Width: 255
Flags: W
LayerCount: 2
Back
Fore
SplineSet
0 664 m 0,0,1
 0 672 0 672 4.5 677 c 128,-1,2
 9 682 9 682 17 682 c 2,3,-1
 237 682 l 2,4,5
 244 682 244 682 249.5 677 c 128,-1,6
 255 672 255 672 255 664 c 256,7,8
 255 656 255 656 249.5 651.5 c 128,-1,9
 244 647 244 647 237 647 c 2,10,-1
 17 647 l 2,11,12
 0 647 0 647 0 664 c 0,0,1
EndSplineSet
EndChar
StartChar: degree
Encoding: 176 176 187
Width: 429
Flags: W
LayerCount: 2
Back
Fore
SplineSet
214 768 m 256,0,1
 250 768 250 768 282 754 c 128,-1,2
 314 740 314 740 338.5 715.5 c 128,-1,3
 363 691 363 691 377.5 658 c 128,-1,4
 392 625 392 625 392 588 c 0,5,6
 392 552 392 552 377.5 519.5 c 128,-1,7
 363 487 363 487 338.5 461.5 c 128,-1,8
 314 436 314 436 282 421 c 128,-1,9
 250 406 250 406 214 406 c 256,10,11
 178 406 178 406 146 421 c 128,-1,12
 114 436 114 436 90 461 c 128,-1,13
 66 486 66 486 51.5 519 c 128,-1,14
 37 552 37 552 37 588 c 256,15,16
 37 624 37 624 51 656.5 c 128,-1,17
 65 689 65 689 89 714 c 128,-1,18
 113 739 113 739 145.5 753.5 c 128,-1,19
 178 768 178 768 214 768 c 256,0,1
354 588 m 0,20,21
 354 615 354 615 343 640.5 c 128,-1,22
 332 666 332 666 313 686 c 128,-1,23
 294 706 294 706 268.5 718 c 128,-1,24
 243 730 243 730 214 730 c 256,25,26
 185 730 185 730 159.5 718 c 128,-1,27
 134 706 134 706 115 686 c 128,-1,28
 96 666 96 666 85.5 640.5 c 128,-1,29
 75 615 75 615 75 588 c 0,30,31
 75 560 75 560 86 534 c 128,-1,32
 97 508 97 508 115.5 488 c 128,-1,33
 134 468 134 468 159.5 456 c 128,-1,34
 185 444 185 444 214 444 c 256,35,36
 243 444 243 444 268.5 456 c 128,-1,37
 294 468 294 468 313 488 c 128,-1,38
 332 508 332 508 343 534 c 128,-1,39
 354 560 354 560 354 588 c 0,20,21
EndSplineSet
EndChar
StartChar: plusminus
Encoding: 177 177 325
Width: 477
Flags: W
LayerCount: 2
Back
Fore
SplineSet
239 168 m 0,0,1
 231 168 231 168 226 172.5 c 128,-1,2
 221 177 221 177 221 185 c 2,3,-1
 221 328 l 1,4,-1
 78 328 l 2,5,6
 61 328 61 328 61 345 c 0,7,8
 61 353 61 353 65.5 358 c 128,-1,9
 70 363 70 363 78 363 c 2,10,-1
 221 363 l 1,11,-1
 221 505 l 2,12,13
 221 512 221 512 226 517.5 c 128,-1,14
 231 523 231 523 239 523 c 256,15,16
 247 523 247 523 251.5 517.5 c 128,-1,17
 256 512 256 512 256 505 c 2,18,-1
 256 363 l 1,19,-1
 398 363 l 2,20,21
 405 363 405 363 410.5 358 c 128,-1,22
 416 353 416 353 416 345 c 256,23,24
 416 337 416 337 410.5 332.5 c 128,-1,25
 405 328 405 328 398 328 c 2,26,-1
 256 328 l 1,27,-1
 256 185 l 2,28,29
 256 168 256 168 239 168 c 0,0,1
61 85 m 0,30,31
 61 93 61 93 65.5 98 c 128,-1,32
 70 103 70 103 78 103 c 2,33,-1
 398 103 l 2,34,35
 405 103 405 103 410.5 98 c 128,-1,36
 416 93 416 93 416 85 c 256,37,38
 416 77 416 77 410.5 72.5 c 128,-1,39
 405 68 405 68 398 68 c 2,40,-1
 78 68 l 2,41,42
 61 68 61 68 61 85 c 0,30,31
EndSplineSet
EndChar
StartChar: twosuperior
Encoding: 178 178 381
Width: 299
Flags: W
LayerCount: 2
Back
Fore
SplineSet
46 647 m 0,0,1
 46 684 46 684 75.5 707.5 c 128,-1,2
 105 731 105 731 150 731 c 0,3,4
 199 731 199 731 229.5 703 c 128,-1,5
 260 675 260 675 260 634 c 0,6,7
 260 607 260 607 246 586 c 128,-1,8
 232 565 232 565 211 547.5 c 128,-1,9
 190 530 190 530 165.5 515 c 128,-1,10
 141 500 141 500 120 486 c 128,-1,11
 99 472 99 472 85 457.5 c 128,-1,12
 71 443 71 443 71 426 c 2,13,-1
 71 396 l 1,14,-1
 252 396 l 2,15,16
 257 396 257 396 261 391.5 c 128,-1,17
 265 387 265 387 265 381 c 256,18,19
 265 375 265 375 261 370 c 128,-1,20
 257 365 257 365 252 365 c 2,21,-1
 53 365 l 2,22,23
 48 365 48 365 42.5 368.5 c 128,-1,24
 37 372 37 372 37 378 c 2,25,-1
 37 426 l 2,26,27
 37 447 37 447 51 464 c 128,-1,28
 65 481 65 481 86 497 c 128,-1,29
 107 513 107 513 132 528 c 128,-1,30
 157 543 157 543 178 559 c 128,-1,31
 199 575 199 575 213 593 c 128,-1,32
 227 611 227 611 227 633 c 0,33,34
 227 657 227 657 208 678 c 128,-1,35
 189 699 189 699 149 699 c 0,36,37
 119 699 119 699 99.5 684.5 c 128,-1,38
 80 670 80 670 80 640 c 0,39,40
 80 635 80 635 75 631 c 128,-1,41
 70 627 70 627 62 627 c 0,42,43
 46 627 46 627 46 647 c 0,0,1
EndSplineSet
EndChar
StartChar: threesuperior
Encoding: 179 179 376
Width: 306
Flags: W
LayerCount: 2
Back
Fore
SplineSet
148 393 m 0,0,1
 188 393 188 393 209.5 411 c 128,-1,2
 231 429 231 429 231 468 c 2,3,-1
 231 477 l 2,4,5
 231 512 231 512 209 527.5 c 128,-1,6
 187 543 187 543 149 543 c 0,7,8
 141 543 141 543 138 547.5 c 128,-1,9
 135 552 135 552 135 557 c 0,10,11
 135 563 135 563 138 567.5 c 128,-1,12
 141 572 141 572 149 572 c 0,13,14
 184 572 184 572 202 585.5 c 128,-1,15
 220 599 220 599 220 636 c 0,16,17
 220 668 220 668 203.5 684 c 128,-1,18
 187 700 187 700 151 700 c 0,19,20
 128 700 128 700 113.5 694.5 c 128,-1,21
 99 689 99 689 91 681 c 128,-1,22
 83 673 83 673 80 664 c 128,-1,23
 77 655 77 655 77 647 c 0,24,25
 77 631 77 631 61 631 c 0,26,27
 51 631 51 631 47.5 635 c 128,-1,28
 44 639 44 639 44 650 c 0,29,30
 44 660 44 660 48.5 674 c 128,-1,31
 53 688 53 688 65 700.5 c 128,-1,32
 77 713 77 713 98 722 c 128,-1,33
 119 731 119 731 152 731 c 0,34,35
 197 731 197 731 225 711 c 128,-1,36
 253 691 253 691 253 643 c 0,37,38
 253 608 253 608 240 587 c 128,-1,39
 227 566 227 566 207 558 c 1,40,41
 232 549 232 549 248 529.5 c 128,-1,42
 264 510 264 510 264 477 c 2,43,-1
 264 468 l 2,44,45
 264 439 264 439 255 419 c 128,-1,46
 246 399 246 399 230.5 386 c 128,-1,47
 215 373 215 373 194 367.5 c 128,-1,48
 173 362 173 362 149 362 c 0,49,50
 120 362 120 362 98 369.5 c 128,-1,51
 76 377 76 377 62 389 c 128,-1,52
 48 401 48 401 41 416 c 128,-1,53
 34 431 34 431 34 445 c 0,54,55
 34 456 34 456 37.5 459 c 128,-1,56
 41 462 41 462 49 462 c 0,57,58
 60 462 60 462 63.5 458 c 128,-1,59
 67 454 67 454 67 448 c 0,60,61
 67 440 67 440 70.5 430.5 c 128,-1,62
 74 421 74 421 83.5 412.5 c 128,-1,63
 93 404 93 404 108.5 398.5 c 128,-1,64
 124 393 124 393 148 393 c 0,0,1
EndSplineSet
EndChar
StartChar: acute
Encoding: 180 180 136
Width: 133
Flags: W
LayerCount: 2
Back
Fore
SplineSet
28 604 m 2,0,1
 23 601 23 601 19 601 c 0,2,3
 11 601 11 601 5.5 606 c 128,-1,4
 0 611 0 611 0 619 c 0,5,6
 0 628 0 628 8 632 c 2,7,-1
 110 692 l 2,8,9
 114 694 114 694 117 694 c 0,10,11
 125 694 125 694 129 688.5 c 128,-1,12
 133 683 133 683 133 676 c 0,13,14
 133 664 133 664 123 658 c 2,15,-1
 28 604 l 2,0,1
EndSplineSet
EndChar
StartChar: mu
Encoding: 181 181 278
Width: 477
Flags: W
LayerCount: 2
Back
Fore
SplineSet
112 150 m 2,0,1
 112 133 112 133 124 112.5 c 128,-1,2
 136 92 136 92 156 73 c 128,-1,3
 176 54 176 54 202 41.5 c 128,-1,4
 228 29 228 29 256 29 c 0,5,6
 283 29 283 29 307.5 41.5 c 128,-1,7
 332 54 332 54 350.5 74 c 128,-1,8
 369 94 369 94 380 120.5 c 128,-1,9
 391 147 391 147 391 174 c 2,10,-1
 391 454 l 2,11,12
 391 463 391 463 396.5 467.5 c 128,-1,13
 402 472 402 472 408 472 c 0,14,15
 415 472 415 472 420.5 467.5 c 128,-1,16
 426 463 426 463 426 454 c 2,17,-1
 426 174 l 2,18,19
 426 137 426 137 413 104 c 128,-1,20
 400 71 400 71 377 46.5 c 128,-1,21
 354 22 354 22 322.5 8 c 128,-1,22
 291 -6 291 -6 254 -6 c 0,23,24
 203 -6 203 -6 166 17.5 c 128,-1,25
 129 41 129 41 112 70 c 1,26,-1
 112 -220 l 2,27,28
 112 -228 112 -228 107 -232.5 c 128,-1,29
 102 -237 102 -237 94 -237 c 0,30,31
 77 -237 77 -237 77 -220 c 2,32,-1
 77 454 l 2,33,34
 77 461 77 461 81.5 466.5 c 128,-1,35
 86 472 86 472 94 472 c 256,36,37
 102 472 102 472 107 466.5 c 128,-1,38
 112 461 112 461 112 454 c 2,39,-1
 112 150 l 2,0,1
EndSplineSet
EndChar
StartChar: paragraph
Encoding: 182 182 315
Width: 512
Flags: W
LayerCount: 2
Back
Fore
SplineSet
411 731 m 2,0,1
 418 731 418 731 423.5 726.5 c 128,-1,2
 429 722 429 722 429 713 c 2,3,-1
 429 17 l 2,4,5
 429 8 429 8 423.5 4 c 128,-1,6
 418 0 418 0 411 0 c 256,7,8
 404 0 404 0 398.5 4 c 128,-1,9
 393 8 393 8 393 17 c 2,10,-1
 393 695 l 1,11,-1
 318 695 l 1,12,-1
 318 18 l 2,13,14
 318 9 318 9 312.5 4.5 c 128,-1,15
 307 0 307 0 300 0 c 256,16,17
 293 0 293 0 287.5 4.5 c 128,-1,18
 282 9 282 9 282 18 c 2,19,-1
 282 306 l 1,20,-1
 234 306 l 2,21,22
 193 306 193 306 157 317 c 128,-1,23
 121 328 121 328 94.5 353 c 128,-1,24
 68 378 68 378 53 417.5 c 128,-1,25
 38 457 38 457 38 513 c 2,26,-1
 38 525 l 2,27,28
 38 581 38 581 53 620.5 c 128,-1,29
 68 660 68 660 94.5 684.5 c 128,-1,30
 121 709 121 709 157 720 c 128,-1,31
 193 731 193 731 234 731 c 2,32,-1
 411 731 l 2,0,1
EndSplineSet
EndChar
StartChar: periodcentered
Encoding: 183 183 321
Width: 176
Flags: W
LayerCount: 2
Back
Fore
SplineSet
89 336 m 0,0,1
 103 336 103 336 113.5 325.5 c 128,-1,2
 124 315 124 315 124 300 c 0,3,4
 124 286 124 286 113.5 275 c 128,-1,5
 103 264 103 264 89 264 c 0,6,7
 73 264 73 264 63 275 c 128,-1,8
 53 286 53 286 53 300 c 0,9,10
 53 315 53 315 63 325.5 c 128,-1,11
 73 336 73 336 89 336 c 0,0,1
EndSplineSet
EndChar
StartChar: cedilla
Encoding: 184 184 174
Width: 156
Flags: W
LayerCount: 2
Back
Fore
SplineSet
62 -65 m 1,0,1
 113 -67 113 -67 134.5 -88 c 128,-1,2
 156 -109 156 -109 156 -135 c 0,3,4
 156 -163 156 -163 134.5 -185 c 128,-1,5
 113 -207 113 -207 74 -207 c 0,6,7
 65 -207 65 -207 52.5 -205.5 c 128,-1,8
 40 -204 40 -204 28.5 -201 c 128,-1,9
 17 -198 17 -198 8.5 -193.5 c 128,-1,10
 0 -189 0 -189 0 -183 c 0,11,12
 0 -178 0 -178 3.5 -171.5 c 128,-1,13
 7 -165 7 -165 12 -165 c 256,14,15
 17 -165 17 -165 30 -171.5 c 128,-1,16
 43 -178 43 -178 68 -178 c 0,17,18
 100 -178 100 -178 111.5 -165.5 c 128,-1,19
 123 -153 123 -153 123 -137 c 0,20,21
 123 -114 123 -114 104 -104 c 128,-1,22
 85 -94 85 -94 53 -92 c 2,23,-1
 24 -90 l 1,24,-1
 48 9 l 1,25,-1
 80 9 l 1,26,-1
 62 -65 l 1,0,1
EndSplineSet
EndChar
StartChar: onesuperior
Encoding: 185 185 307
Width: 158
Flags: W
LayerCount: 2
Back
Fore
SplineSet
70 674 m 1,0,-1
 47 642 l 2,1,2
 43 636 43 636 37 636 c 256,3,4
 31 636 31 636 27 640.5 c 128,-1,5
 23 645 23 645 23 650 c 0,6,7
 23 654 23 654 25.5 658.5 c 128,-1,8
 28 663 28 663 30 665 c 2,9,-1
 75 724 l 2,10,11
 80 731 80 731 89 731 c 0,12,13
 94 731 94 731 98.5 727.5 c 128,-1,14
 103 724 103 724 103 718 c 2,15,-1
 103 378 l 2,16,17
 103 371 103 371 98 368 c 128,-1,18
 93 365 93 365 87 365 c 0,19,20
 80 365 80 365 75 368 c 128,-1,21
 70 371 70 371 70 378 c 2,22,-1
 70 674 l 1,0,-1
EndSplineSet
EndChar
StartChar: ordmasculine
Encoding: 186 186 310
Width: 320
Flags: W
LayerCount: 2
Back
Fore
SplineSet
160 731 m 0,0,1
 183 731 183 731 204 722 c 128,-1,2
 225 713 225 713 241 697 c 128,-1,3
 257 681 257 681 266.5 660.5 c 128,-1,4
 276 640 276 640 276 616 c 2,5,-1
 276 546 l 2,6,7
 276 523 276 523 266.5 502 c 128,-1,8
 257 481 257 481 241 465 c 128,-1,9
 225 449 225 449 204 439.5 c 128,-1,10
 183 430 183 430 160 430 c 256,11,12
 137 430 137 430 116 439.5 c 128,-1,13
 95 449 95 449 79 465 c 128,-1,14
 63 481 63 481 53.5 502 c 128,-1,15
 44 523 44 523 44 546 c 2,16,-1
 44 616 l 2,17,18
 44 639 44 639 53 660 c 128,-1,19
 62 681 62 681 78 696.5 c 128,-1,20
 94 712 94 712 115 721.5 c 128,-1,21
 136 731 136 731 160 731 c 0,0,1
240 616 m 2,22,23
 240 647 240 647 217 672 c 128,-1,24
 194 697 194 697 160 697 c 256,25,26
 126 697 126 697 103 672 c 128,-1,27
 80 647 80 647 80 616 c 2,28,-1
 80 546 l 2,29,30
 80 530 80 530 86 515 c 128,-1,31
 92 500 92 500 103 488.5 c 128,-1,32
 114 477 114 477 128.5 470 c 128,-1,33
 143 463 143 463 160 463 c 0,34,35
 176 463 176 463 191 470 c 128,-1,36
 206 477 206 477 216.5 488.5 c 128,-1,37
 227 500 227 500 233.5 515 c 128,-1,38
 240 530 240 530 240 546 c 2,39,-1
 240 616 l 2,22,23
EndSplineSet
EndChar
StartChar: guillemotright
Encoding: 187 187 239
Width: 361
Flags: W
LayerCount: 2
Back
Fore
SplineSet
220 83 m 2,0,1
 215 74 215 74 205 74 c 0,2,3
 198 74 198 74 192.5 78.5 c 128,-1,4
 187 83 187 83 187 91 c 0,5,6
 187 95 187 95 190 100 c 2,7,-1
 286 277 l 1,8,-1
 190 455 l 2,9,10
 187 459 187 459 187 464 c 0,11,12
 187 471 187 471 191.5 476 c 128,-1,13
 196 481 196 481 203 481 c 0,14,15
 215 481 215 481 220 472 c 2,16,-1
 316 294 l 2,17,18
 321 286 321 286 321 277 c 256,19,20
 321 268 321 268 316 260 c 2,21,-1
 220 83 l 2,0,1
74 83 m 2,22,23
 69 74 69 74 59 74 c 0,24,25
 52 74 52 74 46.5 78.5 c 128,-1,26
 41 83 41 83 41 91 c 0,27,28
 41 95 41 95 44 100 c 2,29,-1
 140 277 l 1,30,-1
 44 455 l 2,31,32
 41 459 41 459 41 464 c 0,33,34
 41 471 41 471 45.5 476 c 128,-1,35
 50 481 50 481 57 481 c 0,36,37
 69 481 69 481 74 472 c 2,38,-1
 170 294 l 2,39,40
 175 286 175 286 175 277 c 256,41,42
 175 268 175 268 170 260 c 2,43,-1
 74 83 l 2,22,23
EndSplineSet
EndChar
StartChar: onequarter
Encoding: 188 188 306
Width: 579
Flags: W
LayerCount: 2
Back
Fore
SplineSet
82 674 m 1,0,-1
 59 642 l 2,1,2
 55 636 55 636 49 636 c 256,3,4
 43 636 43 636 39 640.5 c 128,-1,5
 35 645 35 645 35 650 c 0,6,7
 35 654 35 654 37.5 658.5 c 128,-1,8
 40 663 40 663 42 665 c 2,9,-1
 87 724 l 2,10,11
 92 731 92 731 101 731 c 0,12,13
 106 731 106 731 110.5 727.5 c 128,-1,14
 115 724 115 724 115 718 c 2,15,-1
 115 378 l 2,16,17
 115 371 115 371 110 368 c 128,-1,18
 105 365 105 365 99 365 c 0,19,20
 92 365 92 365 87 368 c 128,-1,21
 82 371 82 371 82 378 c 2,22,-1
 82 674 l 1,0,-1
102 -9 m 2,23,24
 96 -20 96 -20 85 -20 c 0,25,26
 79 -20 79 -20 74 -16 c 128,-1,27
 69 -12 69 -12 69 -5 c 0,28,29
 69 1 69 1 71 4 c 2,30,-1
 462 760 l 2,31,32
 466 768 466 768 475 768 c 0,33,34
 481 768 481 768 487 762.5 c 128,-1,35
 493 757 493 757 493 749 c 0,36,37
 493 744 493 744 490 738 c 2,38,-1
 102 -9 l 2,23,24
473 86 m 1,39,-1
 329 86 l 2,40,41
 316 86 316 86 316 100 c 0,42,43
 316 102 316 102 318 108 c 2,44,-1
 459 355 l 2,45,46
 465 366 465 366 475 366 c 0,47,48
 481 366 481 366 486.5 362 c 128,-1,49
 492 358 492 358 492 352 c 0,50,51
 492 349 492 349 490 345 c 2,52,-1
 359 118 l 1,53,-1
 473 118 l 1,54,-1
 473 214 l 2,55,56
 473 220 473 220 478 223 c 128,-1,57
 483 226 483 226 489 226 c 0,58,59
 496 226 496 226 501 223 c 128,-1,60
 506 220 506 220 506 214 c 2,61,-1
 506 118 l 1,62,-1
 537 118 l 2,63,64
 544 118 544 118 547.5 113 c 128,-1,65
 551 108 551 108 551 102 c 256,66,67
 551 96 551 96 547 91 c 128,-1,68
 543 86 543 86 537 86 c 2,69,-1
 506 86 l 1,70,-1
 506 13 l 2,71,72
 506 6 506 6 501 3 c 128,-1,73
 496 0 496 0 489 0 c 0,74,75
 483 0 483 0 478 3 c 128,-1,76
 473 6 473 6 473 13 c 2,77,-1
 473 86 l 1,39,-1
EndSplineSet
Ligature2: "'frac' Diagonal Fractions in Latin lookup 9 subtable" one slash four
EndChar
StartChar: onehalf
Encoding: 189 189 304
Width: 608
Flags: W
LayerCount: 2
Back
Fore
SplineSet
86 674 m 1,0,-1
 63 642 l 2,1,2
 59 636 59 636 53 636 c 256,3,4
 47 636 47 636 43 640.5 c 128,-1,5
 39 645 39 645 39 650 c 0,6,7
 39 654 39 654 41.5 658.5 c 128,-1,8
 44 663 44 663 46 665 c 2,9,-1
 91 724 l 2,10,11
 96 731 96 731 105 731 c 0,12,13
 110 731 110 731 114.5 727.5 c 128,-1,14
 119 724 119 724 119 718 c 2,15,-1
 119 378 l 2,16,17
 119 371 119 371 114 368 c 128,-1,18
 109 365 109 365 103 365 c 0,19,20
 96 365 96 365 91 368 c 128,-1,21
 86 371 86 371 86 378 c 2,22,-1
 86 674 l 1,0,-1
352 282 m 0,23,24
 352 319 352 319 381.5 342.5 c 128,-1,25
 411 366 411 366 456 366 c 0,26,27
 505 366 505 366 535.5 338 c 128,-1,28
 566 310 566 310 566 269 c 0,29,30
 566 242 566 242 552 221 c 128,-1,31
 538 200 538 200 517 182.5 c 128,-1,32
 496 165 496 165 471.5 150 c 128,-1,33
 447 135 447 135 426 121 c 128,-1,34
 405 107 405 107 391 92.5 c 128,-1,35
 377 78 377 78 377 61 c 2,36,-1
 377 31 l 1,37,-1
 558 31 l 2,38,39
 563 31 563 31 567 26.5 c 128,-1,40
 571 22 571 22 571 16 c 256,41,42
 571 10 571 10 567 5 c 128,-1,43
 563 0 563 0 558 0 c 2,44,-1
 359 0 l 2,45,46
 354 0 354 0 348.5 3.5 c 128,-1,47
 343 7 343 7 343 13 c 2,48,-1
 343 61 l 2,49,50
 343 82 343 82 357 99 c 128,-1,51
 371 116 371 116 392 132 c 128,-1,52
 413 148 413 148 438 163 c 128,-1,53
 463 178 463 178 484 194 c 128,-1,54
 505 210 505 210 519 228 c 128,-1,55
 533 246 533 246 533 268 c 0,56,57
 533 292 533 292 514 313 c 128,-1,58
 495 334 495 334 455 334 c 0,59,60
 425 334 425 334 405.5 319.5 c 128,-1,61
 386 305 386 305 386 275 c 0,62,63
 386 270 386 270 381 266 c 128,-1,64
 376 262 376 262 368 262 c 0,65,66
 352 262 352 262 352 282 c 0,23,24
90 -9 m 2,67,68
 84 -20 84 -20 73 -20 c 0,69,70
 67 -20 67 -20 62 -16 c 128,-1,71
 57 -12 57 -12 57 -5 c 0,72,73
 57 1 57 1 59 4 c 2,74,-1
 450 760 l 2,75,76
 454 768 454 768 463 768 c 0,77,78
 469 768 469 768 475 762.5 c 128,-1,79
 481 757 481 757 481 749 c 0,80,81
 481 744 481 744 478 738 c 2,82,-1
 90 -9 l 2,67,68
EndSplineSet
Ligature2: "'frac' Diagonal Fractions in Latin lookup 9 subtable" one slash two
EndChar
StartChar: threequarters
Encoding: 190 190 375
Width: 707
Flags: W
LayerCount: 2
Back
Fore
SplineSet
150 393 m 0,0,1
 190 393 190 393 211.5 411 c 128,-1,2
 233 429 233 429 233 468 c 2,3,-1
 233 477 l 2,4,5
 233 512 233 512 211 527.5 c 128,-1,6
 189 543 189 543 151 543 c 0,7,8
 143 543 143 543 140 547.5 c 128,-1,9
 137 552 137 552 137 557 c 0,10,11
 137 563 137 563 140 567.5 c 128,-1,12
 143 572 143 572 151 572 c 0,13,14
 186 572 186 572 204 585.5 c 128,-1,15
 222 599 222 599 222 636 c 0,16,17
 222 668 222 668 205.5 684 c 128,-1,18
 189 700 189 700 153 700 c 0,19,20
 130 700 130 700 115.5 694.5 c 128,-1,21
 101 689 101 689 93 681 c 128,-1,22
 85 673 85 673 82 664 c 128,-1,23
 79 655 79 655 79 647 c 0,24,25
 79 631 79 631 63 631 c 0,26,27
 53 631 53 631 49.5 635 c 128,-1,28
 46 639 46 639 46 650 c 0,29,30
 46 660 46 660 50.5 674 c 128,-1,31
 55 688 55 688 67 700.5 c 128,-1,32
 79 713 79 713 100 722 c 128,-1,33
 121 731 121 731 154 731 c 0,34,35
 199 731 199 731 227 711 c 128,-1,36
 255 691 255 691 255 643 c 0,37,38
 255 608 255 608 242 587 c 128,-1,39
 229 566 229 566 209 558 c 1,40,41
 234 549 234 549 250 529.5 c 128,-1,42
 266 510 266 510 266 477 c 2,43,-1
 266 468 l 2,44,45
 266 439 266 439 257 419 c 128,-1,46
 248 399 248 399 232.5 386 c 128,-1,47
 217 373 217 373 196 367.5 c 128,-1,48
 175 362 175 362 151 362 c 0,49,50
 122 362 122 362 100 369.5 c 128,-1,51
 78 377 78 377 64 389 c 128,-1,52
 50 401 50 401 43 416 c 128,-1,53
 36 431 36 431 36 445 c 0,54,55
 36 456 36 456 39.5 459 c 128,-1,56
 43 462 43 462 51 462 c 0,57,58
 62 462 62 462 65.5 458 c 128,-1,59
 69 454 69 454 69 448 c 0,60,61
 69 440 69 440 72.5 430.5 c 128,-1,62
 76 421 76 421 85.5 412.5 c 128,-1,63
 95 404 95 404 110.5 398.5 c 128,-1,64
 126 393 126 393 150 393 c 0,0,1
602 86 m 1,65,-1
 458 86 l 2,66,67
 445 86 445 86 445 100 c 0,68,69
 445 102 445 102 447 108 c 2,70,-1
 588 355 l 2,71,72
 594 366 594 366 604 366 c 0,73,74
 610 366 610 366 615.5 362 c 128,-1,75
 621 358 621 358 621 352 c 0,76,77
 621 349 621 349 619 345 c 2,78,-1
 488 118 l 1,79,-1
 602 118 l 1,80,-1
 602 214 l 2,81,82
 602 220 602 220 607 223 c 128,-1,83
 612 226 612 226 618 226 c 0,84,85
 625 226 625 226 630 223 c 128,-1,86
 635 220 635 220 635 214 c 2,87,-1
 635 118 l 1,88,-1
 666 118 l 2,89,90
 673 118 673 118 676.5 113 c 128,-1,91
 680 108 680 108 680 102 c 256,92,93
 680 96 680 96 676 91 c 128,-1,94
 672 86 672 86 666 86 c 2,95,-1
 635 86 l 1,96,-1
 635 13 l 2,97,98
 635 6 635 6 630 3 c 128,-1,99
 625 0 625 0 618 0 c 0,100,101
 612 0 612 0 607 3 c 128,-1,102
 602 6 602 6 602 13 c 2,103,-1
 602 86 l 1,65,-1
225 -9 m 2,104,105
 219 -20 219 -20 208 -20 c 0,106,107
 202 -20 202 -20 197 -16 c 128,-1,108
 192 -12 192 -12 192 -5 c 0,109,110
 192 1 192 1 194 4 c 2,111,-1
 585 760 l 2,112,113
 589 768 589 768 598 768 c 0,114,115
 604 768 604 768 610 762.5 c 128,-1,116
 616 757 616 757 616 749 c 0,117,118
 616 744 616 744 613 738 c 2,119,-1
 225 -9 l 2,104,105
EndSplineSet
Ligature2: "'frac' Diagonal Fractions in Latin lookup 9 subtable" three slash four
EndChar
StartChar: questiondown
Encoding: 191 191 330
Width: 383
Flags: W
LayerCount: 2
Back
Fore
SplineSet
38 176 m 0,0,1
 38 227 38 227 54.5 263.5 c 128,-1,2
 71 300 71 300 93.5 327.5 c 128,-1,3
 116 355 116 355 140 376 c 128,-1,4
 164 397 164 397 179 417 c 0,5,6
 198 442 198 442 202 479 c 128,-1,7
 206 516 206 516 206 578 c 0,8,9
 206 587 206 587 211.5 591 c 128,-1,10
 217 595 217 595 223 595 c 256,11,12
 229 595 229 595 234.5 591 c 128,-1,13
 240 587 240 587 240 578 c 0,14,15
 240 533 240 533 238 503 c 128,-1,16
 236 473 236 473 231.5 453 c 128,-1,17
 227 433 227 433 220.5 420 c 128,-1,18
 214 407 214 407 205 397 c 0,19,20
 188 377 188 377 165.5 357.5 c 128,-1,21
 143 338 143 338 122.5 312.5 c 128,-1,22
 102 287 102 287 87.5 254.5 c 128,-1,23
 73 222 73 222 73 177 c 0,24,25
 73 108 73 108 110.5 68.5 c 128,-1,26
 148 29 148 29 223 29 c 0,27,28
 254 29 254 29 275 35 c 128,-1,29
 296 41 296 41 309 48.5 c 128,-1,30
 322 56 322 56 330 62.5 c 128,-1,31
 338 69 338 69 344 69 c 0,32,33
 349 69 349 69 353.5 64.5 c 128,-1,34
 358 60 358 60 358 52 c 0,35,36
 358 43 358 43 346.5 32.5 c 128,-1,37
 335 22 335 22 315.5 13.5 c 128,-1,38
 296 5 296 5 271 -0.5 c 128,-1,39
 246 -6 246 -6 219 -6 c 0,40,41
 172 -6 172 -6 138 8 c 128,-1,42
 104 22 104 22 82 47 c 128,-1,43
 60 72 60 72 49 105 c 128,-1,44
 38 138 38 138 38 176 c 0,0,1
223 676 m 0,45,46
 209 676 209 676 198.5 686.5 c 128,-1,47
 188 697 188 697 188 712 c 0,48,49
 188 726 188 726 198 737 c 128,-1,50
 208 748 208 748 223 748 c 0,51,52
 239 748 239 748 249 737 c 128,-1,53
 259 726 259 726 259 712 c 0,54,55
 259 697 259 697 248.5 686.5 c 128,-1,56
 238 676 238 676 223 676 c 0,45,46
EndSplineSet
EndChar
StartChar: Agrave
Encoding: 192 192 8
Width: 521
Flags: W
LayerCount: 2
Back
Fore
SplineSet
43 0 m 0,0,1
 36 0 36 0 30.5 4 c 128,-1,2
 25 8 25 8 25 16 c 0,3,4
 25 20 25 20 26 22 c 2,5,-1
 243 723 l 2,6,7
 247 737 247 737 261 737 c 256,8,9
 275 737 275 737 280 723 c 2,10,-1
 495 22 l 2,11,12
 495 20 495 20 495.5 19.5 c 128,-1,13
 496 19 496 19 496 17 c 0,14,15
 496 10 496 10 490 5 c 128,-1,16
 484 0 484 0 476 0 c 0,17,18
 464 0 464 0 460 13 c 2,19,-1
 409 177 l 1,20,-1
 111 177 l 1,21,-1
 61 13 l 2,22,23
 57 0 57 0 43 0 c 0,0,1
398 213 m 1,24,-1
 261 661 l 1,25,-1
 122 213 l 1,26,-1
 398 213 l 1,24,-1
204 917 m 2,27,28
 194 923 194 923 194 935 c 0,29,30
 194 942 194 942 198 947.5 c 128,-1,31
 202 953 202 953 210 953 c 0,32,33
 213 953 213 953 217 951 c 2,34,-1
 319 891 l 2,35,36
 327 887 327 887 327 878 c 0,37,38
 327 870 327 870 321.5 865 c 128,-1,39
 316 860 316 860 308 860 c 0,40,41
 303 860 303 860 299 863 c 2,42,-1
 204 917 l 2,27,28
EndSplineSet
EndChar
StartChar: Aacute
Encoding: 193 193 4
Width: 521
Flags: W
LayerCount: 2
Back
Fore
SplineSet
43 0 m 0,0,1
 36 0 36 0 30.5 4 c 128,-1,2
 25 8 25 8 25 16 c 0,3,4
 25 20 25 20 26 22 c 2,5,-1
 243 723 l 2,6,7
 247 737 247 737 261 737 c 256,8,9
 275 737 275 737 280 723 c 2,10,-1
 495 22 l 2,11,12
 495 20 495 20 495.5 19.5 c 128,-1,13
 496 19 496 19 496 17 c 0,14,15
 496 10 496 10 490 5 c 128,-1,16
 484 0 484 0 476 0 c 0,17,18
 464 0 464 0 460 13 c 2,19,-1
 409 177 l 1,20,-1
 111 177 l 1,21,-1
 61 13 l 2,22,23
 57 0 57 0 43 0 c 0,0,1
398 213 m 1,24,-1
 261 661 l 1,25,-1
 122 213 l 1,26,-1
 398 213 l 1,24,-1
222 863 m 2,27,28
 217 860 217 860 213 860 c 0,29,30
 205 860 205 860 199.5 865 c 128,-1,31
 194 870 194 870 194 878 c 0,32,33
 194 887 194 887 202 891 c 2,34,-1
 304 951 l 2,35,36
 308 953 308 953 311 953 c 0,37,38
 319 953 319 953 323 947.5 c 128,-1,39
 327 942 327 942 327 935 c 0,40,41
 327 923 327 923 317 917 c 2,42,-1
 222 863 l 2,27,28
EndSplineSet
EndChar
StartChar: Acircumflex
Encoding: 194 194 6
Width: 521
Flags: W
LayerCount: 2
Back
Fore
SplineSet
43 0 m 0,0,1
 36 0 36 0 30.5 4 c 128,-1,2
 25 8 25 8 25 16 c 0,3,4
 25 20 25 20 26 22 c 2,5,-1
 243 723 l 2,6,7
 247 737 247 737 261 737 c 256,8,9
 275 737 275 737 280 723 c 2,10,-1
 495 22 l 2,11,12
 495 20 495 20 495.5 19.5 c 128,-1,13
 496 19 496 19 496 17 c 0,14,15
 496 10 496 10 490 5 c 128,-1,16
 484 0 484 0 476 0 c 0,17,18
 464 0 464 0 460 13 c 2,19,-1
 409 177 l 1,20,-1
 111 177 l 1,21,-1
 61 13 l 2,22,23
 57 0 57 0 43 0 c 0,0,1
398 213 m 1,24,-1
 261 661 l 1,25,-1
 122 213 l 1,26,-1
 398 213 l 1,24,-1
156 862 m 2,27,28
 154 861 154 861 152 860 c 128,-1,29
 150 859 150 859 148 859 c 0,30,31
 141 859 141 859 135.5 864.5 c 128,-1,32
 130 870 130 870 130 878 c 0,33,34
 130 887 130 887 139 892 c 2,35,-1
 243 948 l 2,36,37
 251 953 251 953 260 953 c 256,38,39
 269 953 269 953 277 948 c 2,40,-1
 381 893 l 2,41,42
 390 888 390 888 390 876 c 0,43,44
 390 869 390 869 385 864.5 c 128,-1,45
 380 860 380 860 373 860 c 0,46,47
 371 860 371 860 368.5 861 c 128,-1,48
 366 862 366 862 364 863 c 2,49,-1
 260 918 l 1,50,-1
 156 862 l 2,27,28
EndSplineSet
EndChar
StartChar: Atilde
Encoding: 195 195 12
Width: 521
Flags: W
LayerCount: 2
Back
Fore
SplineSet
43 0 m 0,0,1
 36 0 36 0 30.5 4 c 128,-1,2
 25 8 25 8 25 16 c 0,3,4
 25 20 25 20 26 22 c 2,5,-1
 243 723 l 2,6,7
 247 737 247 737 261 737 c 256,8,9
 275 737 275 737 280 723 c 2,10,-1
 495 22 l 2,11,12
 495 20 495 20 495.5 19.5 c 128,-1,13
 496 19 496 19 496 17 c 0,14,15
 496 10 496 10 490 5 c 128,-1,16
 484 0 484 0 476 0 c 0,17,18
 464 0 464 0 460 13 c 2,19,-1
 409 177 l 1,20,-1
 111 177 l 1,21,-1
 61 13 l 2,22,23
 57 0 57 0 43 0 c 0,0,1
398 213 m 1,24,-1
 261 661 l 1,25,-1
 122 213 l 1,26,-1
 398 213 l 1,24,-1
329 912 m 0,27,28
 346 912 346 912 356 917 c 128,-1,29
 366 922 366 922 372.5 928 c 128,-1,30
 379 934 379 934 383.5 939 c 128,-1,31
 388 944 388 944 394 944 c 0,32,33
 399 944 399 944 403.5 940 c 128,-1,34
 408 936 408 936 408 929 c 0,35,36
 408 917 408 917 399.5 908 c 128,-1,37
 391 899 391 899 378 892 c 128,-1,38
 365 885 365 885 350.5 881.5 c 128,-1,39
 336 878 336 878 324 878 c 0,40,41
 306 878 306 878 291.5 884 c 128,-1,42
 277 890 277 890 262.5 896.5 c 128,-1,43
 248 903 248 903 232 909 c 128,-1,44
 216 915 216 915 195 915 c 0,45,46
 179 915 179 915 168 909.5 c 128,-1,47
 157 904 157 904 149.5 897.5 c 128,-1,48
 142 891 142 891 136.5 885.5 c 128,-1,49
 131 880 131 880 126 880 c 0,50,51
 113 880 113 880 113 897 c 0,52,53
 113 907 113 907 122 916 c 128,-1,54
 131 925 131 925 144 932.5 c 128,-1,55
 157 940 157 940 172.5 944.5 c 128,-1,56
 188 949 188 949 202 949 c 0,57,58
 220 949 220 949 235 943 c 128,-1,59
 250 937 250 937 264.5 930.5 c 128,-1,60
 279 924 279 924 294.5 918 c 128,-1,61
 310 912 310 912 329 912 c 0,27,28
EndSplineSet
EndChar
StartChar: Adieresis
Encoding: 196 196 7
Width: 521
Flags: W
LayerCount: 2
Back
Fore
SplineSet
43 0 m 0,0,1
 36 0 36 0 30.5 4 c 128,-1,2
 25 8 25 8 25 16 c 0,3,4
 25 20 25 20 26 22 c 2,5,-1
 243 723 l 2,6,7
 247 737 247 737 261 737 c 256,8,9
 275 737 275 737 280 723 c 2,10,-1
 495 22 l 2,11,12
 495 20 495 20 495.5 19.5 c 128,-1,13
 496 19 496 19 496 17 c 0,14,15
 496 10 496 10 490 5 c 128,-1,16
 484 0 484 0 476 0 c 0,17,18
 464 0 464 0 460 13 c 2,19,-1
 409 177 l 1,20,-1
 111 177 l 1,21,-1
 61 13 l 2,22,23
 57 0 57 0 43 0 c 0,0,1
398 213 m 1,24,-1
 261 661 l 1,25,-1
 122 213 l 1,26,-1
 398 213 l 1,24,-1
205 918 m 0,27,28
 218 918 218 918 226 910 c 128,-1,29
 234 902 234 902 234 889 c 256,30,31
 234 876 234 876 226 867.5 c 128,-1,32
 218 859 218 859 205 859 c 0,33,34
 191 859 191 859 183 867.5 c 128,-1,35
 175 876 175 876 175 889 c 256,36,37
 175 902 175 902 183 910 c 128,-1,38
 191 918 191 918 205 918 c 0,27,28
316 918 m 0,39,40
 329 918 329 918 337 910 c 128,-1,41
 345 902 345 902 345 889 c 256,42,43
 345 876 345 876 337 867.5 c 128,-1,44
 329 859 329 859 316 859 c 0,45,46
 302 859 302 859 294 867.5 c 128,-1,47
 286 876 286 876 286 889 c 256,48,49
 286 902 286 902 294 910 c 128,-1,50
 302 918 302 918 316 918 c 0,39,40
EndSplineSet
EndChar
StartChar: Aring
Encoding: 197 197 11
Width: 521
Flags: W
LayerCount: 2
Back
Fore
SplineSet
43 0 m 0,0,1
 36 0 36 0 30.5 4 c 128,-1,2
 25 8 25 8 25 16 c 0,3,4
 25 20 25 20 26 22 c 2,5,-1
 243 723 l 2,6,7
 247 737 247 737 261 737 c 256,8,9
 275 737 275 737 280 723 c 2,10,-1
 495 22 l 2,11,12
 495 20 495 20 495.5 19.5 c 128,-1,13
 496 19 496 19 496 17 c 0,14,15
 496 10 496 10 490 5 c 128,-1,16
 484 0 484 0 476 0 c 0,17,18
 464 0 464 0 460 13 c 2,19,-1
 409 177 l 1,20,-1
 111 177 l 1,21,-1
 61 13 l 2,22,23
 57 0 57 0 43 0 c 0,0,1
398 213 m 1,24,-1
 261 661 l 1,25,-1
 122 213 l 1,26,-1
 398 213 l 1,24,-1
260 1027 m 0,27,28
 278 1027 278 1027 294 1019.5 c 128,-1,29
 310 1012 310 1012 322.5 999.5 c 128,-1,30
 335 987 335 987 342.5 970.5 c 128,-1,31
 350 954 350 954 350 936 c 256,32,33
 350 918 350 918 342.5 901 c 128,-1,34
 335 884 335 884 322.5 871 c 128,-1,35
 310 858 310 858 294 850.5 c 128,-1,36
 278 843 278 843 260 843 c 0,37,38
 241 843 241 843 224.5 850.5 c 128,-1,39
 208 858 208 858 196 871 c 128,-1,40
 184 884 184 884 177 901 c 128,-1,41
 170 918 170 918 170 936 c 256,42,43
 170 954 170 954 177 970 c 128,-1,44
 184 986 184 986 196 999 c 128,-1,45
 208 1012 208 1012 224.5 1019.5 c 128,-1,46
 241 1027 241 1027 260 1027 c 0,27,28
325 936 m 0,47,48
 325 948 325 948 320 959.5 c 128,-1,49
 315 971 315 971 306 980 c 128,-1,50
 297 989 297 989 285 995 c 128,-1,51
 273 1001 273 1001 260 1001 c 0,52,53
 246 1001 246 1001 234 995 c 128,-1,54
 222 989 222 989 213 980 c 128,-1,55
 204 971 204 971 199 959.5 c 128,-1,56
 194 948 194 948 194 936 c 0,57,58
 194 923 194 923 199 910.5 c 128,-1,59
 204 898 204 898 213 888 c 128,-1,60
 222 878 222 878 234 872 c 128,-1,61
 246 866 246 866 260 866 c 0,62,63
 273 866 273 866 285 872 c 128,-1,64
 297 878 297 878 306 888 c 128,-1,65
 315 898 315 898 320 910.5 c 128,-1,66
 325 923 325 923 325 936 c 0,47,48
EndSplineSet
EndChar
StartChar: AE
Encoding: 198 198 2
Width: 680
Flags: W
LayerCount: 2
Back
Fore
SplineSet
398 384 m 1,0,-1
 558 384 l 2,1,2
 566 384 566 384 570.5 378.5 c 128,-1,3
 575 373 575 373 575 365 c 0,4,5
 575 359 575 359 571 353.5 c 128,-1,6
 567 348 567 348 558 348 c 2,7,-1
 398 348 l 1,8,-1
 398 36 l 1,9,-1
 635 36 l 2,10,11
 643 36 643 36 647.5 30.5 c 128,-1,12
 652 25 652 25 652 17 c 0,13,14
 652 11 652 11 648 5.5 c 128,-1,15
 644 0 644 0 635 0 c 2,16,-1
 380 0 l 2,17,18
 373 0 373 0 367.5 4.5 c 128,-1,19
 362 9 362 9 362 18 c 2,20,-1
 362 348 l 1,21,-1
 115 348 l 1,22,-1
 115 23 l 2,23,24
 115 13 115 13 112 6.5 c 128,-1,25
 109 0 109 0 97 0 c 0,26,27
 87 0 87 0 83 6.5 c 128,-1,28
 79 13 79 13 79 23 c 2,29,-1
 79 525 l 2,30,31
 79 581 79 581 94 620.5 c 128,-1,32
 109 660 109 660 135.5 684.5 c 128,-1,33
 162 709 162 709 198 720 c 128,-1,34
 234 731 234 731 275 731 c 2,35,-1
 635 731 l 2,36,37
 644 731 644 731 648 725.5 c 128,-1,38
 652 720 652 720 652 714 c 0,39,40
 652 706 652 706 647.5 700.5 c 128,-1,41
 643 695 643 695 635 695 c 2,42,-1
 398 695 l 1,43,-1
 398 384 l 1,0,-1
115 384 m 1,44,-1
 362 384 l 1,45,-1
 362 695 l 1,46,-1
 275 695 l 2,47,48
 200 695 200 695 157.5 654 c 128,-1,49
 115 613 115 613 115 525 c 2,50,-1
 115 384 l 1,44,-1
EndSplineSet
EndChar
StartChar: Ccedilla
Encoding: 199 199 18
Width: 512
Flags: W
LayerCount: 2
Back
Fore
SplineSet
112 200 m 2,0,1
 112 112 112 112 154 71 c 128,-1,2
 196 30 196 30 278 30 c 0,3,4
 327 30 327 30 356 43 c 128,-1,5
 385 56 385 56 401 76 c 128,-1,6
 417 96 417 96 422.5 118.5 c 128,-1,7
 428 141 428 141 431 161 c 0,8,9
 432 168 432 168 435 173.5 c 128,-1,10
 438 179 438 179 449 179 c 0,11,12
 458 179 458 179 462.5 173 c 128,-1,13
 467 167 467 167 467 150 c 0,14,15
 467 124 467 124 457 98.5 c 128,-1,16
 447 73 447 73 426.5 52 c 128,-1,17
 406 31 406 31 376.5 16.5 c 128,-1,18
 347 2 347 2 308 -3 c 1,19,-1
 293 -65 l 1,20,21
 344 -67 344 -67 365.5 -88 c 128,-1,22
 387 -109 387 -109 387 -135 c 0,23,24
 387 -163 387 -163 365.5 -185 c 128,-1,25
 344 -207 344 -207 305 -207 c 0,26,27
 296 -207 296 -207 283.5 -205.5 c 128,-1,28
 271 -204 271 -204 259.5 -201 c 128,-1,29
 248 -198 248 -198 239.5 -193.5 c 128,-1,30
 231 -189 231 -189 231 -183 c 0,31,32
 231 -178 231 -178 234.5 -171.5 c 128,-1,33
 238 -165 238 -165 243 -165 c 256,34,35
 248 -165 248 -165 261 -171.5 c 128,-1,36
 274 -178 274 -178 299 -178 c 0,37,38
 331 -178 331 -178 342.5 -165.5 c 128,-1,39
 354 -153 354 -153 354 -137 c 0,40,41
 354 -114 354 -114 335 -104 c 128,-1,42
 316 -94 316 -94 284 -92 c 2,43,-1
 255 -90 l 1,44,-1
 276 -6 l 1,45,-1
 272 -6 l 2,46,47
 232 -6 232 -6 196.5 5 c 128,-1,48
 161 16 161 16 134 40.5 c 128,-1,49
 107 65 107 65 91.5 104.5 c 128,-1,50
 76 144 76 144 76 200 c 2,51,-1
 76 525 l 2,52,53
 76 581 76 581 92 620.5 c 128,-1,54
 108 660 108 660 135 684.5 c 128,-1,55
 162 709 162 709 198 720 c 128,-1,56
 234 731 234 731 275 731 c 0,57,58
 323 731 323 731 359 717.5 c 128,-1,59
 395 704 395 704 419 682 c 128,-1,60
 443 660 443 660 455 631.5 c 128,-1,61
 467 603 467 603 467 574 c 0,62,63
 467 557 467 557 462.5 551.5 c 128,-1,64
 458 546 458 546 449 546 c 0,65,66
 436 546 436 546 433.5 552.5 c 128,-1,67
 431 559 431 559 431 564 c 0,68,69
 430 582 430 582 423.5 604.5 c 128,-1,70
 417 627 417 627 400 647.5 c 128,-1,71
 383 668 383 668 353 681.5 c 128,-1,72
 323 695 323 695 274 695 c 0,73,74
 195 695 195 695 153.5 654 c 128,-1,75
 112 613 112 613 112 525 c 2,76,-1
 112 200 l 2,0,1
EndSplineSet
EndChar
StartChar: Eacute
Encoding: 201 201 26
Width: 498
Flags: W
LayerCount: 2
Back
Fore
SplineSet
119 384 m 1,0,-1
 279 384 l 2,1,2
 287 384 287 384 291.5 378.5 c 128,-1,3
 296 373 296 373 296 365 c 0,4,5
 296 359 296 359 292 353.5 c 128,-1,6
 288 348 288 348 279 348 c 2,7,-1
 119 348 l 1,8,-1
 119 36 l 1,9,-1
 457 36 l 2,10,11
 465 36 465 36 469.5 30.5 c 128,-1,12
 474 25 474 25 474 17 c 0,13,14
 474 11 474 11 470 5.5 c 128,-1,15
 466 0 466 0 457 0 c 2,16,-1
 101 0 l 2,17,18
 94 0 94 0 88.5 4.5 c 128,-1,19
 83 9 83 9 83 18 c 2,20,-1
 83 713 l 2,21,22
 83 722 83 722 88.5 726.5 c 128,-1,23
 94 731 94 731 101 731 c 2,24,-1
 457 731 l 2,25,26
 466 731 466 731 470 725.5 c 128,-1,27
 474 720 474 720 474 714 c 0,28,29
 474 706 474 706 469.5 700.5 c 128,-1,30
 465 695 465 695 457 695 c 2,31,-1
 119 695 l 1,32,-1
 119 384 l 1,0,-1
240 863 m 2,33,34
 235 860 235 860 231 860 c 0,35,36
 223 860 223 860 217.5 865 c 128,-1,37
 212 870 212 870 212 878 c 0,38,39
 212 887 212 887 220 891 c 2,40,-1
 322 951 l 2,41,42
 326 953 326 953 329 953 c 0,43,44
 337 953 337 953 341 947.5 c 128,-1,45
 345 942 345 942 345 935 c 0,46,47
 345 923 345 923 335 917 c 2,48,-1
 240 863 l 2,33,34
EndSplineSet
EndChar
StartChar: Ecircumflex
Encoding: 202 202 29
Width: 498
Flags: W
LayerCount: 2
Back
Fore
SplineSet
119 384 m 1,0,-1
 279 384 l 2,1,2
 287 384 287 384 291.5 378.5 c 128,-1,3
 296 373 296 373 296 365 c 0,4,5
 296 359 296 359 292 353.5 c 128,-1,6
 288 348 288 348 279 348 c 2,7,-1
 119 348 l 1,8,-1
 119 36 l 1,9,-1
 457 36 l 2,10,11
 465 36 465 36 469.5 30.5 c 128,-1,12
 474 25 474 25 474 17 c 0,13,14
 474 11 474 11 470 5.5 c 128,-1,15
 466 0 466 0 457 0 c 2,16,-1
 101 0 l 2,17,18
 94 0 94 0 88.5 4.5 c 128,-1,19
 83 9 83 9 83 18 c 2,20,-1
 83 713 l 2,21,22
 83 722 83 722 88.5 726.5 c 128,-1,23
 94 731 94 731 101 731 c 2,24,-1
 457 731 l 2,25,26
 466 731 466 731 470 725.5 c 128,-1,27
 474 720 474 720 474 714 c 0,28,29
 474 706 474 706 469.5 700.5 c 128,-1,30
 465 695 465 695 457 695 c 2,31,-1
 119 695 l 1,32,-1
 119 384 l 1,0,-1
174 862 m 2,33,34
 172 861 172 861 170 860 c 128,-1,35
 168 859 168 859 166 859 c 0,36,37
 159 859 159 859 153.5 864.5 c 128,-1,38
 148 870 148 870 148 878 c 0,39,40
 148 887 148 887 157 892 c 2,41,-1
 261 948 l 2,42,43
 269 953 269 953 278 953 c 256,44,45
 287 953 287 953 295 948 c 2,46,-1
 399 893 l 2,47,48
 408 888 408 888 408 876 c 0,49,50
 408 869 408 869 403 864.5 c 128,-1,51
 398 860 398 860 391 860 c 0,52,53
 389 860 389 860 386.5 861 c 128,-1,54
 384 862 384 862 382 863 c 2,55,-1
 278 918 l 1,56,-1
 174 862 l 2,33,34
EndSplineSet
EndChar
StartChar: Edieresis
Encoding: 203 203 30
Width: 498
Flags: W
LayerCount: 2
Back
Fore
SplineSet
119 384 m 1,0,-1
 279 384 l 2,1,2
 287 384 287 384 291.5 378.5 c 128,-1,3
 296 373 296 373 296 365 c 0,4,5
 296 359 296 359 292 353.5 c 128,-1,6
 288 348 288 348 279 348 c 2,7,-1
 119 348 l 1,8,-1
 119 36 l 1,9,-1
 457 36 l 2,10,11
 465 36 465 36 469.5 30.5 c 128,-1,12
 474 25 474 25 474 17 c 0,13,14
 474 11 474 11 470 5.5 c 128,-1,15
 466 0 466 0 457 0 c 2,16,-1
 101 0 l 2,17,18
 94 0 94 0 88.5 4.5 c 128,-1,19
 83 9 83 9 83 18 c 2,20,-1
 83 713 l 2,21,22
 83 722 83 722 88.5 726.5 c 128,-1,23
 94 731 94 731 101 731 c 2,24,-1
 457 731 l 2,25,26
 466 731 466 731 470 725.5 c 128,-1,27
 474 720 474 720 474 714 c 0,28,29
 474 706 474 706 469.5 700.5 c 128,-1,30
 465 695 465 695 457 695 c 2,31,-1
 119 695 l 1,32,-1
 119 384 l 1,0,-1
223 918 m 0,33,34
 236 918 236 918 244 910 c 128,-1,35
 252 902 252 902 252 889 c 256,36,37
 252 876 252 876 244 867.5 c 128,-1,38
 236 859 236 859 223 859 c 0,39,40
 209 859 209 859 201 867.5 c 128,-1,41
 193 876 193 876 193 889 c 256,42,43
 193 902 193 902 201 910 c 128,-1,44
 209 918 209 918 223 918 c 0,33,34
334 918 m 0,45,46
 347 918 347 918 355 910 c 128,-1,47
 363 902 363 902 363 889 c 256,48,49
 363 876 363 876 355 867.5 c 128,-1,50
 347 859 347 859 334 859 c 0,51,52
 320 859 320 859 312 867.5 c 128,-1,53
 304 876 304 876 304 889 c 256,54,55
 304 902 304 902 312 910 c 128,-1,56
 320 918 320 918 334 918 c 0,45,46
EndSplineSet
EndChar
StartChar: Igrave
Encoding: 204 204 54
Width: 202
Flags: W
LayerCount: 2
Back
Fore
SplineSet
83 714 m 2,0,1
 83 723 83 723 88.5 727 c 128,-1,2
 94 731 94 731 101 731 c 256,3,4
 108 731 108 731 113.5 727 c 128,-1,5
 119 723 119 723 119 714 c 2,6,-1
 119 18 l 2,7,8
 119 9 119 9 113.5 4.5 c 128,-1,9
 108 0 108 0 101 0 c 256,10,11
 94 0 94 0 88.5 4.5 c 128,-1,12
 83 9 83 9 83 18 c 2,13,-1
 83 714 l 2,0,1
44 917 m 2,14,15
 34 923 34 923 34 935 c 0,16,17
 34 942 34 942 38 947.5 c 128,-1,18
 42 953 42 953 50 953 c 0,19,20
 53 953 53 953 57 951 c 2,21,-1
 159 891 l 2,22,23
 167 887 167 887 167 878 c 0,24,25
 167 870 167 870 161.5 865 c 128,-1,26
 156 860 156 860 148 860 c 0,27,28
 143 860 143 860 139 863 c 2,29,-1
 44 917 l 2,14,15
EndSplineSet
EndChar
StartChar: Iacute
Encoding: 205 205 49
Width: 202
Flags: W
LayerCount: 2
Back
Fore
SplineSet
83 714 m 2,0,1
 83 723 83 723 88.5 727 c 128,-1,2
 94 731 94 731 101 731 c 256,3,4
 108 731 108 731 113.5 727 c 128,-1,5
 119 723 119 723 119 714 c 2,6,-1
 119 18 l 2,7,8
 119 9 119 9 113.5 4.5 c 128,-1,9
 108 0 108 0 101 0 c 256,10,11
 94 0 94 0 88.5 4.5 c 128,-1,12
 83 9 83 9 83 18 c 2,13,-1
 83 714 l 2,0,1
62 863 m 2,14,15
 57 860 57 860 53 860 c 0,16,17
 45 860 45 860 39.5 865 c 128,-1,18
 34 870 34 870 34 878 c 0,19,20
 34 887 34 887 42 891 c 2,21,-1
 144 951 l 2,22,23
 148 953 148 953 151 953 c 0,24,25
 159 953 159 953 163 947.5 c 128,-1,26
 167 942 167 942 167 935 c 0,27,28
 167 923 167 923 157 917 c 2,29,-1
 62 863 l 2,14,15
EndSplineSet
EndChar
StartChar: Icircumflex
Encoding: 206 206 51
Width: 202
Flags: W
LayerCount: 2
Back
Fore
SplineSet
83 714 m 2,0,1
 83 723 83 723 88.5 727 c 128,-1,2
 94 731 94 731 101 731 c 256,3,4
 108 731 108 731 113.5 727 c 128,-1,5
 119 723 119 723 119 714 c 2,6,-1
 119 18 l 2,7,8
 119 9 119 9 113.5 4.5 c 128,-1,9
 108 0 108 0 101 0 c 256,10,11
 94 0 94 0 88.5 4.5 c 128,-1,12
 83 9 83 9 83 18 c 2,13,-1
 83 714 l 2,0,1
-3 862 m 2,14,15
 -5 861 -5 861 -7 860 c 128,-1,16
 -9 859 -9 859 -11 859 c 0,17,18
 -18 859 -18 859 -23.5 864.5 c 128,-1,19
 -29 870 -29 870 -29 878 c 0,20,21
 -29 887 -29 887 -20 892 c 2,22,-1
 84 948 l 2,23,24
 92 953 92 953 101 953 c 256,25,26
 110 953 110 953 118 948 c 2,27,-1
 222 893 l 2,28,29
 231 888 231 888 231 876 c 0,30,31
 231 869 231 869 226 864.5 c 128,-1,32
 221 860 221 860 214 860 c 0,33,34
 212 860 212 860 209.5 861 c 128,-1,35
 207 862 207 862 205 863 c 2,36,-1
 101 918 l 1,37,-1
 -3 862 l 2,14,15
EndSplineSet
EndChar
StartChar: Idieresis
Encoding: 207 207 52
Width: 202
Flags: W
LayerCount: 2
Back
Fore
SplineSet
83 714 m 2,0,1
 83 723 83 723 88.5 727 c 128,-1,2
 94 731 94 731 101 731 c 256,3,4
 108 731 108 731 113.5 727 c 128,-1,5
 119 723 119 723 119 714 c 2,6,-1
 119 18 l 2,7,8
 119 9 119 9 113.5 4.5 c 128,-1,9
 108 0 108 0 101 0 c 256,10,11
 94 0 94 0 88.5 4.5 c 128,-1,12
 83 9 83 9 83 18 c 2,13,-1
 83 714 l 2,0,1
46 918 m 0,14,15
 59 918 59 918 67 910 c 128,-1,16
 75 902 75 902 75 889 c 256,17,18
 75 876 75 876 67 867.5 c 128,-1,19
 59 859 59 859 46 859 c 0,20,21
 32 859 32 859 24 867.5 c 128,-1,22
 16 876 16 876 16 889 c 256,23,24
 16 902 16 902 24 910 c 128,-1,25
 32 918 32 918 46 918 c 0,14,15
157 918 m 0,26,27
 170 918 170 918 178 910 c 128,-1,28
 186 902 186 902 186 889 c 256,29,30
 186 876 186 876 178 867.5 c 128,-1,31
 170 859 170 859 157 859 c 0,32,33
 143 859 143 859 135 867.5 c 128,-1,34
 127 876 127 876 127 889 c 256,35,36
 127 902 127 902 135 910 c 128,-1,37
 143 918 143 918 157 918 c 0,26,27
EndSplineSet
EndChar
StartChar: Ntilde
Encoding: 209 209 73
Width: 557
Flags: W
LayerCount: 2
Back
Fore
SplineSet
438 89 m 1,0,-1
 438 714 l 2,1,2
 438 723 438 723 443.5 727 c 128,-1,3
 449 731 449 731 456 731 c 256,4,5
 463 731 463 731 468.5 727 c 128,-1,6
 474 723 474 723 474 714 c 2,7,-1
 474 18 l 2,8,9
 474 9 474 9 468.5 4.5 c 128,-1,10
 463 0 463 0 456 0 c 0,11,12
 446 0 446 0 439 12.5 c 128,-1,13
 432 25 432 25 427 36 c 2,14,-1
 119 643 l 1,15,-1
 119 18 l 2,16,17
 119 9 119 9 113.5 4.5 c 128,-1,18
 108 0 108 0 101 0 c 256,19,20
 94 0 94 0 88.5 4.5 c 128,-1,21
 83 9 83 9 83 18 c 2,22,-1
 83 714 l 2,23,24
 83 724 83 724 88 727.5 c 128,-1,25
 93 731 93 731 101 731 c 0,26,27
 106 731 106 731 110.5 726.5 c 128,-1,28
 115 722 115 722 119.5 716 c 128,-1,29
 124 710 124 710 127 704 c 128,-1,30
 130 698 130 698 132 695 c 2,31,-1
 438 89 l 1,0,-1
347 912 m 0,32,33
 364 912 364 912 374 917 c 128,-1,34
 384 922 384 922 390.5 928 c 128,-1,35
 397 934 397 934 401.5 939 c 128,-1,36
 406 944 406 944 412 944 c 0,37,38
 417 944 417 944 421.5 940 c 128,-1,39
 426 936 426 936 426 929 c 0,40,41
 426 917 426 917 417.5 908 c 128,-1,42
 409 899 409 899 396 892 c 128,-1,43
 383 885 383 885 368.5 881.5 c 128,-1,44
 354 878 354 878 342 878 c 0,45,46
 324 878 324 878 309.5 884 c 128,-1,47
 295 890 295 890 280.5 896.5 c 128,-1,48
 266 903 266 903 250 909 c 128,-1,49
 234 915 234 915 213 915 c 0,50,51
 197 915 197 915 186 909.5 c 128,-1,52
 175 904 175 904 167.5 897.5 c 128,-1,53
 160 891 160 891 154.5 885.5 c 128,-1,54
 149 880 149 880 144 880 c 0,55,56
 131 880 131 880 131 897 c 0,57,58
 131 907 131 907 140 916 c 128,-1,59
 149 925 149 925 162 932.5 c 128,-1,60
 175 940 175 940 190.5 944.5 c 128,-1,61
 206 949 206 949 220 949 c 0,62,63
 238 949 238 949 253 943 c 128,-1,64
 268 937 268 937 282.5 930.5 c 128,-1,65
 297 924 297 924 312.5 918 c 128,-1,66
 328 912 328 912 347 912 c 0,32,33
EndSplineSet
EndChar
StartChar: Ograve
Encoding: 210 210 80
Width: 543
Flags: W
LayerCount: 2
Back
Fore
SplineSet
271 -6 m 256,0,1
 230 -6 230 -6 194 5 c 128,-1,2
 158 16 158 16 132 40.5 c 128,-1,3
 106 65 106 65 91 104.5 c 128,-1,4
 76 144 76 144 76 200 c 2,5,-1
 76 525 l 2,6,7
 76 581 76 581 91 620.5 c 128,-1,8
 106 660 106 660 132 684.5 c 128,-1,9
 158 709 158 709 194 720 c 128,-1,10
 230 731 230 731 271 731 c 256,11,12
 312 731 312 731 348 720 c 128,-1,13
 384 709 384 709 410.5 684.5 c 128,-1,14
 437 660 437 660 452 620.5 c 128,-1,15
 467 581 467 581 467 525 c 2,16,-1
 467 200 l 2,17,18
 467 144 467 144 452 104.5 c 128,-1,19
 437 65 437 65 410.5 40.5 c 128,-1,20
 384 16 384 16 348 5 c 128,-1,21
 312 -6 312 -6 271 -6 c 256,0,1
431 525 m 2,22,23
 431 613 431 613 388.5 654 c 128,-1,24
 346 695 346 695 271 695 c 256,25,26
 196 695 196 695 154 654 c 128,-1,27
 112 613 112 613 112 525 c 2,28,-1
 112 200 l 2,29,30
 112 112 112 112 154 71 c 128,-1,31
 196 30 196 30 271 30 c 256,32,33
 346 30 346 30 388.5 71 c 128,-1,34
 431 112 431 112 431 200 c 2,35,-1
 431 525 l 2,22,23
215 917 m 2,36,37
 205 923 205 923 205 935 c 0,38,39
 205 942 205 942 209 947.5 c 128,-1,40
 213 953 213 953 221 953 c 0,41,42
 224 953 224 953 228 951 c 2,43,-1
 330 891 l 2,44,45
 338 887 338 887 338 878 c 0,46,47
 338 870 338 870 332.5 865 c 128,-1,48
 327 860 327 860 319 860 c 0,49,50
 314 860 314 860 310 863 c 2,51,-1
 215 917 l 2,36,37
EndSplineSet
EndChar
StartChar: Oacute
Encoding: 211 211 76
Width: 543
Flags: W
LayerCount: 2
Back
Fore
SplineSet
271 -6 m 256,0,1
 230 -6 230 -6 194 5 c 128,-1,2
 158 16 158 16 132 40.5 c 128,-1,3
 106 65 106 65 91 104.5 c 128,-1,4
 76 144 76 144 76 200 c 2,5,-1
 76 525 l 2,6,7
 76 581 76 581 91 620.5 c 128,-1,8
 106 660 106 660 132 684.5 c 128,-1,9
 158 709 158 709 194 720 c 128,-1,10
 230 731 230 731 271 731 c 256,11,12
 312 731 312 731 348 720 c 128,-1,13
 384 709 384 709 410.5 684.5 c 128,-1,14
 437 660 437 660 452 620.5 c 128,-1,15
 467 581 467 581 467 525 c 2,16,-1
 467 200 l 2,17,18
 467 144 467 144 452 104.5 c 128,-1,19
 437 65 437 65 410.5 40.5 c 128,-1,20
 384 16 384 16 348 5 c 128,-1,21
 312 -6 312 -6 271 -6 c 256,0,1
431 525 m 2,22,23
 431 613 431 613 388.5 654 c 128,-1,24
 346 695 346 695 271 695 c 256,25,26
 196 695 196 695 154 654 c 128,-1,27
 112 613 112 613 112 525 c 2,28,-1
 112 200 l 2,29,30
 112 112 112 112 154 71 c 128,-1,31
 196 30 196 30 271 30 c 256,32,33
 346 30 346 30 388.5 71 c 128,-1,34
 431 112 431 112 431 200 c 2,35,-1
 431 525 l 2,22,23
233 863 m 2,36,37
 228 860 228 860 224 860 c 0,38,39
 216 860 216 860 210.5 865 c 128,-1,40
 205 870 205 870 205 878 c 0,41,42
 205 887 205 887 213 891 c 2,43,-1
 315 951 l 2,44,45
 319 953 319 953 322 953 c 0,46,47
 330 953 330 953 334 947.5 c 128,-1,48
 338 942 338 942 338 935 c 0,49,50
 338 923 338 923 328 917 c 2,51,-1
 233 863 l 2,36,37
EndSplineSet
EndChar
StartChar: Ocircumflex
Encoding: 212 212 78
Width: 543
Flags: W
LayerCount: 2
Back
Fore
SplineSet
271 -6 m 256,0,1
 230 -6 230 -6 194 5 c 128,-1,2
 158 16 158 16 132 40.5 c 128,-1,3
 106 65 106 65 91 104.5 c 128,-1,4
 76 144 76 144 76 200 c 2,5,-1
 76 525 l 2,6,7
 76 581 76 581 91 620.5 c 128,-1,8
 106 660 106 660 132 684.5 c 128,-1,9
 158 709 158 709 194 720 c 128,-1,10
 230 731 230 731 271 731 c 256,11,12
 312 731 312 731 348 720 c 128,-1,13
 384 709 384 709 410.5 684.5 c 128,-1,14
 437 660 437 660 452 620.5 c 128,-1,15
 467 581 467 581 467 525 c 2,16,-1
 467 200 l 2,17,18
 467 144 467 144 452 104.5 c 128,-1,19
 437 65 437 65 410.5 40.5 c 128,-1,20
 384 16 384 16 348 5 c 128,-1,21
 312 -6 312 -6 271 -6 c 256,0,1
431 525 m 2,22,23
 431 613 431 613 388.5 654 c 128,-1,24
 346 695 346 695 271 695 c 256,25,26
 196 695 196 695 154 654 c 128,-1,27
 112 613 112 613 112 525 c 2,28,-1
 112 200 l 2,29,30
 112 112 112 112 154 71 c 128,-1,31
 196 30 196 30 271 30 c 256,32,33
 346 30 346 30 388.5 71 c 128,-1,34
 431 112 431 112 431 200 c 2,35,-1
 431 525 l 2,22,23
167 862 m 2,36,37
 165 861 165 861 163 860 c 128,-1,38
 161 859 161 859 159 859 c 0,39,40
 152 859 152 859 146.5 864.5 c 128,-1,41
 141 870 141 870 141 878 c 0,42,43
 141 887 141 887 150 892 c 2,44,-1
 254 948 l 2,45,46
 262 953 262 953 271 953 c 256,47,48
 280 953 280 953 288 948 c 2,49,-1
 392 893 l 2,50,51
 401 888 401 888 401 876 c 0,52,53
 401 869 401 869 396 864.5 c 128,-1,54
 391 860 391 860 384 860 c 0,55,56
 382 860 382 860 379.5 861 c 128,-1,57
 377 862 377 862 375 863 c 2,58,-1
 271 918 l 1,59,-1
 167 862 l 2,36,37
EndSplineSet
EndChar
StartChar: Otilde
Encoding: 213 213 86
Width: 543
Flags: W
LayerCount: 2
Back
Fore
SplineSet
271 -6 m 256,0,1
 230 -6 230 -6 194 5 c 128,-1,2
 158 16 158 16 132 40.5 c 128,-1,3
 106 65 106 65 91 104.5 c 128,-1,4
 76 144 76 144 76 200 c 2,5,-1
 76 525 l 2,6,7
 76 581 76 581 91 620.5 c 128,-1,8
 106 660 106 660 132 684.5 c 128,-1,9
 158 709 158 709 194 720 c 128,-1,10
 230 731 230 731 271 731 c 256,11,12
 312 731 312 731 348 720 c 128,-1,13
 384 709 384 709 410.5 684.5 c 128,-1,14
 437 660 437 660 452 620.5 c 128,-1,15
 467 581 467 581 467 525 c 2,16,-1
 467 200 l 2,17,18
 467 144 467 144 452 104.5 c 128,-1,19
 437 65 437 65 410.5 40.5 c 128,-1,20
 384 16 384 16 348 5 c 128,-1,21
 312 -6 312 -6 271 -6 c 256,0,1
431 525 m 2,22,23
 431 613 431 613 388.5 654 c 128,-1,24
 346 695 346 695 271 695 c 256,25,26
 196 695 196 695 154 654 c 128,-1,27
 112 613 112 613 112 525 c 2,28,-1
 112 200 l 2,29,30
 112 112 112 112 154 71 c 128,-1,31
 196 30 196 30 271 30 c 256,32,33
 346 30 346 30 388.5 71 c 128,-1,34
 431 112 431 112 431 200 c 2,35,-1
 431 525 l 2,22,23
340 912 m 0,36,37
 357 912 357 912 367 917 c 128,-1,38
 377 922 377 922 383.5 928 c 128,-1,39
 390 934 390 934 394.5 939 c 128,-1,40
 399 944 399 944 405 944 c 0,41,42
 410 944 410 944 414.5 940 c 128,-1,43
 419 936 419 936 419 929 c 0,44,45
 419 917 419 917 410.5 908 c 128,-1,46
 402 899 402 899 389 892 c 128,-1,47
 376 885 376 885 361.5 881.5 c 128,-1,48
 347 878 347 878 335 878 c 0,49,50
 317 878 317 878 302.5 884 c 128,-1,51
 288 890 288 890 273.5 896.5 c 128,-1,52
 259 903 259 903 243 909 c 128,-1,53
 227 915 227 915 206 915 c 0,54,55
 190 915 190 915 179 909.5 c 128,-1,56
 168 904 168 904 160.5 897.5 c 128,-1,57
 153 891 153 891 147.5 885.5 c 128,-1,58
 142 880 142 880 137 880 c 0,59,60
 124 880 124 880 124 897 c 0,61,62
 124 907 124 907 133 916 c 128,-1,63
 142 925 142 925 155 932.5 c 128,-1,64
 168 940 168 940 183.5 944.5 c 128,-1,65
 199 949 199 949 213 949 c 0,66,67
 231 949 231 949 246 943 c 128,-1,68
 261 937 261 937 275.5 930.5 c 128,-1,69
 290 924 290 924 305.5 918 c 128,-1,70
 321 912 321 912 340 912 c 0,36,37
EndSplineSet
EndChar
StartChar: Odieresis
Encoding: 214 214 79
Width: 543
Flags: W
LayerCount: 2
Back
Fore
SplineSet
271 -6 m 256,0,1
 230 -6 230 -6 194 5 c 128,-1,2
 158 16 158 16 132 40.5 c 128,-1,3
 106 65 106 65 91 104.5 c 128,-1,4
 76 144 76 144 76 200 c 2,5,-1
 76 525 l 2,6,7
 76 581 76 581 91 620.5 c 128,-1,8
 106 660 106 660 132 684.5 c 128,-1,9
 158 709 158 709 194 720 c 128,-1,10
 230 731 230 731 271 731 c 256,11,12
 312 731 312 731 348 720 c 128,-1,13
 384 709 384 709 410.5 684.5 c 128,-1,14
 437 660 437 660 452 620.5 c 128,-1,15
 467 581 467 581 467 525 c 2,16,-1
 467 200 l 2,17,18
 467 144 467 144 452 104.5 c 128,-1,19
 437 65 437 65 410.5 40.5 c 128,-1,20
 384 16 384 16 348 5 c 128,-1,21
 312 -6 312 -6 271 -6 c 256,0,1
431 525 m 2,22,23
 431 613 431 613 388.5 654 c 128,-1,24
 346 695 346 695 271 695 c 256,25,26
 196 695 196 695 154 654 c 128,-1,27
 112 613 112 613 112 525 c 2,28,-1
 112 200 l 2,29,30
 112 112 112 112 154 71 c 128,-1,31
 196 30 196 30 271 30 c 256,32,33
 346 30 346 30 388.5 71 c 128,-1,34
 431 112 431 112 431 200 c 2,35,-1
 431 525 l 2,22,23
216 918 m 0,36,37
 229 918 229 918 237 910 c 128,-1,38
 245 902 245 902 245 889 c 256,39,40
 245 876 245 876 237 867.5 c 128,-1,41
 229 859 229 859 216 859 c 0,42,43
 202 859 202 859 194 867.5 c 128,-1,44
 186 876 186 876 186 889 c 256,45,46
 186 902 186 902 194 910 c 128,-1,47
 202 918 202 918 216 918 c 0,36,37
327 918 m 0,48,49
 340 918 340 918 348 910 c 128,-1,50
 356 902 356 902 356 889 c 256,51,52
 356 876 356 876 348 867.5 c 128,-1,53
 340 859 340 859 327 859 c 0,54,55
 313 859 313 859 305 867.5 c 128,-1,56
 297 876 297 876 297 889 c 256,57,58
 297 902 297 902 305 910 c 128,-1,59
 313 918 313 918 327 918 c 0,48,49
EndSplineSet
EndChar
StartChar: multiply
Encoding: 215 215 279
Width: 393
Flags: W
LayerCount: 2
Back
Fore
SplineSet
327 162 m 0,0,1
 327 156 327 156 322.5 150.5 c 128,-1,2
 318 145 318 145 310 145 c 0,3,4
 303 145 303 145 298 150 c 2,5,-1
 196 251 l 1,6,-1
 95 150 l 2,7,8
 90 145 90 145 83 145 c 256,9,10
 76 145 76 145 71 150 c 128,-1,11
 66 155 66 155 66 162 c 256,12,13
 66 169 66 169 71 174 c 2,14,-1
 172 275 l 1,15,-1
 71 376 l 2,16,17
 66 381 66 381 66 389 c 0,18,19
 66 396 66 396 71 401 c 128,-1,20
 76 406 76 406 83 406 c 0,21,22
 91 406 91 406 96 401 c 2,23,-1
 196 300 l 1,24,-1
 297 401 l 2,25,26
 302 406 302 406 310 406 c 0,27,28
 317 406 317 406 322 401 c 128,-1,29
 327 396 327 396 327 389 c 0,30,31
 327 381 327 381 322 376 c 2,32,-1
 221 275 l 1,33,-1
 322 174 l 2,34,35
 327 169 327 169 327 162 c 0,0,1
EndSplineSet
EndChar
StartChar: Oslash
Encoding: 216 216 84
Width: 543
Flags: W
LayerCount: 2
Back
Fore
SplineSet
436 653 m 1,0,1
 450 629 450 629 458.5 597.5 c 128,-1,2
 467 566 467 566 467 525 c 2,3,-1
 467 200 l 2,4,5
 467 144 467 144 452 104.5 c 128,-1,6
 437 65 437 65 410.5 40.5 c 128,-1,7
 384 16 384 16 348 5 c 128,-1,8
 312 -6 312 -6 271 -6 c 0,9,10
 226 -6 226 -6 187.5 7 c 128,-1,11
 149 20 149 20 123 50 c 1,12,-1
 92 -9 l 2,13,14
 86 -20 86 -20 75 -20 c 0,15,16
 69 -20 69 -20 64 -16 c 128,-1,17
 59 -12 59 -12 59 -5 c 0,18,19
 59 1 59 1 61 4 c 2,20,-1
 101 81 l 1,21,22
 76 129 76 129 76 200 c 2,23,-1
 76 525 l 2,24,25
 76 581 76 581 91 620.5 c 128,-1,26
 106 660 106 660 132 684.5 c 128,-1,27
 158 709 158 709 194 720 c 128,-1,28
 230 731 230 731 271 731 c 0,29,30
 313 731 313 731 349 719.5 c 128,-1,31
 385 708 385 708 412 682 c 1,32,-1
 452 760 l 2,33,34
 456 768 456 768 465 768 c 0,35,36
 471 768 471 768 477 762.5 c 128,-1,37
 483 757 483 757 483 749 c 0,38,39
 483 744 483 744 480 738 c 2,40,-1
 436 653 l 1,0,1
431 525 m 2,41,42
 431 578 431 578 415 613 c 1,43,-1
 141 86 l 1,44,45
 161 57 161 57 194 43.5 c 128,-1,46
 227 30 227 30 271 30 c 0,47,48
 346 30 346 30 388.5 71 c 128,-1,49
 431 112 431 112 431 200 c 2,50,-1
 431 525 l 2,41,42
112 200 m 2,51,52
 112 157 112 157 123 124 c 1,53,-1
 394 647 l 1,54,55
 352 695 352 695 271 695 c 0,56,57
 196 695 196 695 154 654 c 128,-1,58
 112 613 112 613 112 525 c 2,59,-1
 112 200 l 2,51,52
EndSplineSet
EndChar
StartChar: Ugrave
Encoding: 217 217 109
Width: 549
Flags: W
LayerCount: 2
Back
Fore
SplineSet
79 714 m 2,0,1
 79 723 79 723 84.5 727 c 128,-1,2
 90 731 90 731 97 731 c 256,3,4
 104 731 104 731 109.5 727 c 128,-1,5
 115 723 115 723 115 714 c 2,6,-1
 115 200 l 2,7,8
 115 112 115 112 157 71 c 128,-1,9
 199 30 199 30 274 30 c 256,10,11
 349 30 349 30 391.5 71 c 128,-1,12
 434 112 434 112 434 200 c 2,13,-1
 434 714 l 2,14,15
 434 723 434 723 439.5 727 c 128,-1,16
 445 731 445 731 452 731 c 256,17,18
 459 731 459 731 464.5 727 c 128,-1,19
 470 723 470 723 470 714 c 2,20,-1
 470 200 l 2,21,22
 470 144 470 144 455 104.5 c 128,-1,23
 440 65 440 65 413.5 40.5 c 128,-1,24
 387 16 387 16 351 5 c 128,-1,25
 315 -6 315 -6 274 -6 c 256,26,27
 233 -6 233 -6 197 5 c 128,-1,28
 161 16 161 16 135 40.5 c 128,-1,29
 109 65 109 65 94 104.5 c 128,-1,30
 79 144 79 144 79 200 c 2,31,-1
 79 714 l 2,0,1
218 917 m 2,32,33
 208 923 208 923 208 935 c 0,34,35
 208 942 208 942 212 947.5 c 128,-1,36
 216 953 216 953 224 953 c 0,37,38
 227 953 227 953 231 951 c 2,39,-1
 333 891 l 2,40,41
 341 887 341 887 341 878 c 0,42,43
 341 870 341 870 335.5 865 c 128,-1,44
 330 860 330 860 322 860 c 0,45,46
 317 860 317 860 313 863 c 2,47,-1
 218 917 l 2,32,33
EndSplineSet
EndChar
StartChar: Uacute
Encoding: 218 218 105
Width: 549
Flags: W
LayerCount: 2
Back
Fore
SplineSet
79 714 m 2,0,1
 79 723 79 723 84.5 727 c 128,-1,2
 90 731 90 731 97 731 c 256,3,4
 104 731 104 731 109.5 727 c 128,-1,5
 115 723 115 723 115 714 c 2,6,-1
 115 200 l 2,7,8
 115 112 115 112 157 71 c 128,-1,9
 199 30 199 30 274 30 c 256,10,11
 349 30 349 30 391.5 71 c 128,-1,12
 434 112 434 112 434 200 c 2,13,-1
 434 714 l 2,14,15
 434 723 434 723 439.5 727 c 128,-1,16
 445 731 445 731 452 731 c 256,17,18
 459 731 459 731 464.5 727 c 128,-1,19
 470 723 470 723 470 714 c 2,20,-1
 470 200 l 2,21,22
 470 144 470 144 455 104.5 c 128,-1,23
 440 65 440 65 413.5 40.5 c 128,-1,24
 387 16 387 16 351 5 c 128,-1,25
 315 -6 315 -6 274 -6 c 256,26,27
 233 -6 233 -6 197 5 c 128,-1,28
 161 16 161 16 135 40.5 c 128,-1,29
 109 65 109 65 94 104.5 c 128,-1,30
 79 144 79 144 79 200 c 2,31,-1
 79 714 l 2,0,1
236 863 m 2,32,33
 231 860 231 860 227 860 c 0,34,35
 219 860 219 860 213.5 865 c 128,-1,36
 208 870 208 870 208 878 c 0,37,38
 208 887 208 887 216 891 c 2,39,-1
 318 951 l 2,40,41
 322 953 322 953 325 953 c 0,42,43
 333 953 333 953 337 947.5 c 128,-1,44
 341 942 341 942 341 935 c 0,45,46
 341 923 341 923 331 917 c 2,47,-1
 236 863 l 2,32,33
EndSplineSet
EndChar
StartChar: Ucircumflex
Encoding: 219 219 107
Width: 549
Flags: W
LayerCount: 2
Back
Fore
SplineSet
79 714 m 2,0,1
 79 723 79 723 84.5 727 c 128,-1,2
 90 731 90 731 97 731 c 256,3,4
 104 731 104 731 109.5 727 c 128,-1,5
 115 723 115 723 115 714 c 2,6,-1
 115 200 l 2,7,8
 115 112 115 112 157 71 c 128,-1,9
 199 30 199 30 274 30 c 256,10,11
 349 30 349 30 391.5 71 c 128,-1,12
 434 112 434 112 434 200 c 2,13,-1
 434 714 l 2,14,15
 434 723 434 723 439.5 727 c 128,-1,16
 445 731 445 731 452 731 c 256,17,18
 459 731 459 731 464.5 727 c 128,-1,19
 470 723 470 723 470 714 c 2,20,-1
 470 200 l 2,21,22
 470 144 470 144 455 104.5 c 128,-1,23
 440 65 440 65 413.5 40.5 c 128,-1,24
 387 16 387 16 351 5 c 128,-1,25
 315 -6 315 -6 274 -6 c 256,26,27
 233 -6 233 -6 197 5 c 128,-1,28
 161 16 161 16 135 40.5 c 128,-1,29
 109 65 109 65 94 104.5 c 128,-1,30
 79 144 79 144 79 200 c 2,31,-1
 79 714 l 2,0,1
170 862 m 2,32,33
 168 861 168 861 166 860 c 128,-1,34
 164 859 164 859 162 859 c 0,35,36
 155 859 155 859 149.5 864.5 c 128,-1,37
 144 870 144 870 144 878 c 0,38,39
 144 887 144 887 153 892 c 2,40,-1
 257 948 l 2,41,42
 265 953 265 953 274 953 c 256,43,44
 283 953 283 953 291 948 c 2,45,-1
 395 893 l 2,46,47
 404 888 404 888 404 876 c 0,48,49
 404 869 404 869 399 864.5 c 128,-1,50
 394 860 394 860 387 860 c 0,51,52
 385 860 385 860 382.5 861 c 128,-1,53
 380 862 380 862 378 863 c 2,54,-1
 274 918 l 1,55,-1
 170 862 l 2,32,33
EndSplineSet
EndChar
StartChar: Udieresis
Encoding: 220 220 108
Width: 549
Flags: W
LayerCount: 2
Back
Fore
SplineSet
79 714 m 2,0,1
 79 723 79 723 84.5 727 c 128,-1,2
 90 731 90 731 97 731 c 256,3,4
 104 731 104 731 109.5 727 c 128,-1,5
 115 723 115 723 115 714 c 2,6,-1
 115 200 l 2,7,8
 115 112 115 112 157 71 c 128,-1,9
 199 30 199 30 274 30 c 256,10,11
 349 30 349 30 391.5 71 c 128,-1,12
 434 112 434 112 434 200 c 2,13,-1
 434 714 l 2,14,15
 434 723 434 723 439.5 727 c 128,-1,16
 445 731 445 731 452 731 c 256,17,18
 459 731 459 731 464.5 727 c 128,-1,19
 470 723 470 723 470 714 c 2,20,-1
 470 200 l 2,21,22
 470 144 470 144 455 104.5 c 128,-1,23
 440 65 440 65 413.5 40.5 c 128,-1,24
 387 16 387 16 351 5 c 128,-1,25
 315 -6 315 -6 274 -6 c 256,26,27
 233 -6 233 -6 197 5 c 128,-1,28
 161 16 161 16 135 40.5 c 128,-1,29
 109 65 109 65 94 104.5 c 128,-1,30
 79 144 79 144 79 200 c 2,31,-1
 79 714 l 2,0,1
219 918 m 0,32,33
 232 918 232 918 240 910 c 128,-1,34
 248 902 248 902 248 889 c 256,35,36
 248 876 248 876 240 867.5 c 128,-1,37
 232 859 232 859 219 859 c 0,38,39
 205 859 205 859 197 867.5 c 128,-1,40
 189 876 189 876 189 889 c 256,41,42
 189 902 189 902 197 910 c 128,-1,43
 205 918 205 918 219 918 c 0,32,33
330 918 m 0,44,45
 343 918 343 918 351 910 c 128,-1,46
 359 902 359 902 359 889 c 256,47,48
 359 876 359 876 351 867.5 c 128,-1,49
 343 859 343 859 330 859 c 0,50,51
 316 859 316 859 308 867.5 c 128,-1,52
 300 876 300 876 300 889 c 256,53,54
 300 902 300 902 308 910 c 128,-1,55
 316 918 316 918 330 918 c 0,44,45
EndSplineSet
EndChar
StartChar: Thorn
Encoding: 222 222 103
Width: 483
Flags: W
LayerCount: 2
Back
Fore
SplineSet
83 715 m 2,0,1
 83 723 83 723 88 727 c 128,-1,2
 93 731 93 731 100 731 c 0,3,4
 118 731 118 731 118 714 c 2,5,-1
 118 542 l 1,6,7
 135 573 135 573 170 595.5 c 128,-1,8
 205 618 205 618 261 618 c 0,9,10
 294 618 294 618 324.5 609 c 128,-1,11
 355 600 355 600 379 581.5 c 128,-1,12
 403 563 403 563 417.5 536 c 128,-1,13
 432 509 432 509 432 473 c 2,14,-1
 432 281 l 2,15,16
 432 245 432 245 417 217.5 c 128,-1,17
 402 190 402 190 378.5 171.5 c 128,-1,18
 355 153 355 153 325.5 143.5 c 128,-1,19
 296 134 296 134 266 134 c 0,20,21
 242 134 242 134 218.5 139.5 c 128,-1,22
 195 145 195 145 174.5 155.5 c 128,-1,23
 154 166 154 166 139 180.5 c 128,-1,24
 124 195 124 195 118 212 c 1,25,-1
 118 18 l 2,26,27
 118 11 118 11 113 5.5 c 128,-1,28
 108 0 108 0 101 0 c 0,29,30
 93 0 93 0 88 5.5 c 128,-1,31
 83 11 83 11 83 18 c 2,32,-1
 83 715 l 2,0,1
263 169 m 0,33,34
 288 169 288 169 312 175.5 c 128,-1,35
 336 182 336 182 355 196 c 128,-1,36
 374 210 374 210 385.5 231 c 128,-1,37
 397 252 397 252 397 281 c 2,38,-1
 397 473 l 2,39,40
 397 501 397 501 385.5 522 c 128,-1,41
 374 543 374 543 355 556.5 c 128,-1,42
 336 570 336 570 312 576.5 c 128,-1,43
 288 583 288 583 263 583 c 0,44,45
 234 583 234 583 208 575 c 128,-1,46
 182 567 182 567 162 552.5 c 128,-1,47
 142 538 142 538 130 517.5 c 128,-1,48
 118 497 118 497 118 473 c 2,49,-1
 118 281 l 2,50,51
 118 261 118 261 129 241 c 128,-1,52
 140 221 140 221 159 205 c 128,-1,53
 178 189 178 189 204.5 179 c 128,-1,54
 231 169 231 169 263 169 c 0,33,34
EndSplineSet
EndChar
StartChar: germandbls
Encoding: 223 223 234
Width: 528
Flags: W
LayerCount: 2
Back
Fore
SplineSet
319 -20 m 0,0,1
 310 -20 310 -20 291.5 -18.5 c 128,-1,2
 273 -17 273 -17 255 -13 c 128,-1,3
 237 -9 237 -9 223.5 -2 c 128,-1,4
 210 5 210 5 210 16 c 0,5,6
 210 23 210 23 214.5 28 c 128,-1,7
 219 33 219 33 225 33 c 0,8,9
 230 33 230 33 236.5 29.5 c 128,-1,10
 243 26 243 26 252.5 22 c 128,-1,11
 262 18 262 18 276 14.5 c 128,-1,12
 290 11 290 11 309 11 c 0,13,14
 374 11 374 11 413 57.5 c 128,-1,15
 452 104 452 104 452 196 c 2,16,-1
 452 215 l 2,17,18
 452 241 452 241 444 271 c 128,-1,19
 436 301 436 301 416.5 326.5 c 128,-1,20
 397 352 397 352 364.5 370.5 c 128,-1,21
 332 389 332 389 284 392 c 0,22,23
 270 393 270 393 261.5 395 c 128,-1,24
 253 397 253 397 253 408 c 0,25,26
 253 420 253 420 262.5 423 c 128,-1,27
 272 426 272 426 285 427 c 0,28,29
 316 429 316 429 335.5 445 c 128,-1,30
 355 461 355 461 365 483.5 c 128,-1,31
 375 506 375 506 378.5 531 c 128,-1,32
 382 556 382 556 382 577 c 0,33,34
 382 650 382 650 351.5 691.5 c 128,-1,35
 321 733 321 733 259 733 c 0,36,37
 226 733 226 733 203 721 c 128,-1,38
 180 709 180 709 166.5 689 c 128,-1,39
 153 669 153 669 147 643.5 c 128,-1,40
 141 618 141 618 141 590 c 2,41,-1
 141 17 l 2,42,43
 141 9 141 9 135.5 4.5 c 128,-1,44
 130 0 130 0 122 0 c 0,45,46
 106 0 106 0 106 17 c 2,47,-1
 106 437 l 1,48,-1
 25 437 l 2,49,50
 8 437 8 437 8 454 c 0,51,52
 8 462 8 462 12.5 467 c 128,-1,53
 17 472 17 472 25 472 c 2,54,-1
 106 472 l 1,55,-1
 106 590 l 2,56,57
 106 626 106 626 114.5 658.5 c 128,-1,58
 123 691 123 691 141.5 715 c 128,-1,59
 160 739 160 739 189 753.5 c 128,-1,60
 218 768 218 768 259 768 c 0,61,62
 293 768 293 768 322 757.5 c 128,-1,63
 351 747 351 747 372 725 c 128,-1,64
 393 703 393 703 405 669 c 128,-1,65
 417 635 417 635 417 589 c 0,66,67
 417 562 417 562 412.5 534 c 128,-1,68
 408 506 408 506 399 482 c 128,-1,69
 390 458 390 458 376 439.5 c 128,-1,70
 362 421 362 421 344 413 c 1,71,72
 368 408 368 408 393 390.5 c 128,-1,73
 418 373 418 373 438.5 347 c 128,-1,74
 459 321 459 321 471.5 287 c 128,-1,75
 484 253 484 253 484 215 c 2,76,-1
 484 196 l 2,77,78
 484 140 484 140 469.5 99 c 128,-1,79
 455 58 455 58 432 31.5 c 128,-1,80
 409 5 409 5 379.5 -7.5 c 128,-1,81
 350 -20 350 -20 319 -20 c 0,0,1
EndSplineSet
EndChar
StartChar: aacute
Encoding: 225 225 133
Width: 423
Flags: W
LayerCount: 2
Back
Fore
SplineSet
194 478 m 0,0,1
 240 478 240 478 271.5 462 c 128,-1,2
 303 446 303 446 322.5 419 c 128,-1,3
 342 392 342 392 350.5 357.5 c 128,-1,4
 359 323 359 323 359 286 c 2,5,-1
 359 18 l 2,6,7
 359 10 359 10 354.5 5 c 128,-1,8
 350 0 350 0 342 0 c 256,9,10
 334 0 334 0 329 5 c 128,-1,11
 324 10 324 10 324 18 c 2,12,-1
 324 70 l 1,13,14
 298 41 298 41 261 17.5 c 128,-1,15
 224 -6 224 -6 174 -6 c 0,16,17
 145 -6 145 -6 119.5 2 c 128,-1,18
 94 10 94 10 75 26.5 c 128,-1,19
 56 43 56 43 45.5 67.5 c 128,-1,20
 35 92 35 92 35 126 c 0,21,22
 35 166 35 166 52 191.5 c 128,-1,23
 69 217 69 217 99.5 232 c 128,-1,24
 130 247 130 247 173 252.5 c 128,-1,25
 216 258 216 258 268 258 c 2,26,-1
 324 258 l 1,27,-1
 324 286 l 2,28,29
 324 314 324 314 316.5 342 c 128,-1,30
 309 370 309 370 293.5 392.5 c 128,-1,31
 278 415 278 415 253 429 c 128,-1,32
 228 443 228 443 192 443 c 0,33,34
 169 443 169 443 151.5 439 c 128,-1,35
 134 435 134 435 121.5 429.5 c 128,-1,36
 109 424 109 424 100.5 420 c 128,-1,37
 92 416 92 416 88 416 c 0,38,39
 80 416 80 416 75 423.5 c 128,-1,40
 70 431 70 431 70 436 c 0,41,42
 70 443 70 443 81 450.5 c 128,-1,43
 92 458 92 458 109.5 464 c 128,-1,44
 127 470 127 470 149 474 c 128,-1,45
 171 478 171 478 194 478 c 0,0,1
324 223 m 1,46,-1
 269 223 l 2,47,48
 230 223 230 223 194.5 220 c 128,-1,49
 159 217 159 217 131 207 c 128,-1,50
 103 197 103 197 86.5 178 c 128,-1,51
 70 159 70 159 70 126 c 0,52,53
 70 75 70 75 99.5 52 c 128,-1,54
 129 29 129 29 173 29 c 0,55,56
 201 29 201 29 228 40 c 128,-1,57
 255 51 255 51 276.5 67.5 c 128,-1,58
 298 84 298 84 311 103.5 c 128,-1,59
 324 123 324 123 324 139 c 2,60,-1
 324 223 l 1,46,-1
158 604 m 2,61,62
 153 601 153 601 149 601 c 0,63,64
 141 601 141 601 135.5 606 c 128,-1,65
 130 611 130 611 130 619 c 0,66,67
 130 628 130 628 138 632 c 2,68,-1
 240 692 l 2,69,70
 244 694 244 694 247 694 c 0,71,72
 255 694 255 694 259 688.5 c 128,-1,73
 263 683 263 683 263 676 c 0,74,75
 263 664 263 664 253 658 c 2,76,-1
 158 604 l 2,61,62
EndSplineSet
EndChar
StartChar: acircumflex
Encoding: 226 226 135
Width: 423
Flags: W
LayerCount: 2
Back
Fore
SplineSet
97 603 m 2,0,1
 95 602 95 602 93 601 c 128,-1,2
 91 600 91 600 89 600 c 0,3,4
 82 600 82 600 76.5 605.5 c 128,-1,5
 71 611 71 611 71 619 c 0,6,7
 71 628 71 628 80 633 c 2,8,-1
 184 689 l 2,9,10
 192 694 192 694 201 694 c 256,11,12
 210 694 210 694 218 689 c 2,13,-1
 322 634 l 2,14,15
 331 629 331 629 331 617 c 0,16,17
 331 610 331 610 326 605.5 c 128,-1,18
 321 601 321 601 314 601 c 0,19,20
 312 601 312 601 309.5 602 c 128,-1,21
 307 603 307 603 305 604 c 2,22,-1
 201 659 l 1,23,-1
 97 603 l 2,0,1
194 478 m 0,24,25
 240 478 240 478 271.5 462 c 128,-1,26
 303 446 303 446 322.5 419 c 128,-1,27
 342 392 342 392 350.5 357.5 c 128,-1,28
 359 323 359 323 359 286 c 2,29,-1
 359 18 l 2,30,31
 359 10 359 10 354.5 5 c 128,-1,32
 350 0 350 0 342 0 c 256,33,34
 334 0 334 0 329 5 c 128,-1,35
 324 10 324 10 324 18 c 2,36,-1
 324 70 l 1,37,38
 298 41 298 41 261 17.5 c 128,-1,39
 224 -6 224 -6 174 -6 c 0,40,41
 145 -6 145 -6 119.5 2 c 128,-1,42
 94 10 94 10 75 26.5 c 128,-1,43
 56 43 56 43 45.5 67.5 c 128,-1,44
 35 92 35 92 35 126 c 0,45,46
 35 166 35 166 52 191.5 c 128,-1,47
 69 217 69 217 99.5 232 c 128,-1,48
 130 247 130 247 173 252.5 c 128,-1,49
 216 258 216 258 268 258 c 2,50,-1
 324 258 l 1,51,-1
 324 286 l 2,52,53
 324 314 324 314 316.5 342 c 128,-1,54
 309 370 309 370 293.5 392.5 c 128,-1,55
 278 415 278 415 253 429 c 128,-1,56
 228 443 228 443 192 443 c 0,57,58
 169 443 169 443 151.5 439 c 128,-1,59
 134 435 134 435 121.5 429.5 c 128,-1,60
 109 424 109 424 100.5 420 c 128,-1,61
 92 416 92 416 88 416 c 0,62,63
 80 416 80 416 75 423.5 c 128,-1,64
 70 431 70 431 70 436 c 0,65,66
 70 443 70 443 81 450.5 c 128,-1,67
 92 458 92 458 109.5 464 c 128,-1,68
 127 470 127 470 149 474 c 128,-1,69
 171 478 171 478 194 478 c 0,24,25
324 223 m 1,70,-1
 269 223 l 2,71,72
 230 223 230 223 194.5 220 c 128,-1,73
 159 217 159 217 131 207 c 128,-1,74
 103 197 103 197 86.5 178 c 128,-1,75
 70 159 70 159 70 126 c 0,76,77
 70 75 70 75 99.5 52 c 128,-1,78
 129 29 129 29 173 29 c 0,79,80
 201 29 201 29 228 40 c 128,-1,81
 255 51 255 51 276.5 67.5 c 128,-1,82
 298 84 298 84 311 103.5 c 128,-1,83
 324 123 324 123 324 139 c 2,84,-1
 324 223 l 1,70,-1
EndSplineSet
EndChar
StartChar: atilde
Encoding: 227 227 154
Width: 423
Flags: W
LayerCount: 2
Back
Fore
SplineSet
265 653 m 0,0,1
 282 653 282 653 292 658 c 128,-1,2
 302 663 302 663 308.5 669 c 128,-1,3
 315 675 315 675 319.5 680 c 128,-1,4
 324 685 324 685 330 685 c 0,5,6
 335 685 335 685 339.5 681 c 128,-1,7
 344 677 344 677 344 670 c 0,8,9
 344 658 344 658 335.5 649 c 128,-1,10
 327 640 327 640 314 633 c 128,-1,11
 301 626 301 626 286.5 622.5 c 128,-1,12
 272 619 272 619 260 619 c 0,13,14
 242 619 242 619 227.5 625 c 128,-1,15
 213 631 213 631 198.5 637.5 c 128,-1,16
 184 644 184 644 168 650 c 128,-1,17
 152 656 152 656 131 656 c 0,18,19
 115 656 115 656 104 650.5 c 128,-1,20
 93 645 93 645 85.5 638.5 c 128,-1,21
 78 632 78 632 72.5 626.5 c 128,-1,22
 67 621 67 621 62 621 c 0,23,24
 49 621 49 621 49 638 c 0,25,26
 49 648 49 648 58 657 c 128,-1,27
 67 666 67 666 80 673.5 c 128,-1,28
 93 681 93 681 108.5 685.5 c 128,-1,29
 124 690 124 690 138 690 c 0,30,31
 156 690 156 690 171 684 c 128,-1,32
 186 678 186 678 200.5 671.5 c 128,-1,33
 215 665 215 665 230.5 659 c 128,-1,34
 246 653 246 653 265 653 c 0,0,1
194 478 m 0,35,36
 240 478 240 478 271.5 462 c 128,-1,37
 303 446 303 446 322.5 419 c 128,-1,38
 342 392 342 392 350.5 357.5 c 128,-1,39
 359 323 359 323 359 286 c 2,40,-1
 359 18 l 2,41,42
 359 10 359 10 354.5 5 c 128,-1,43
 350 0 350 0 342 0 c 256,44,45
 334 0 334 0 329 5 c 128,-1,46
 324 10 324 10 324 18 c 2,47,-1
 324 70 l 1,48,49
 298 41 298 41 261 17.5 c 128,-1,50
 224 -6 224 -6 174 -6 c 0,51,52
 145 -6 145 -6 119.5 2 c 128,-1,53
 94 10 94 10 75 26.5 c 128,-1,54
 56 43 56 43 45.5 67.5 c 128,-1,55
 35 92 35 92 35 126 c 0,56,57
 35 166 35 166 52 191.5 c 128,-1,58
 69 217 69 217 99.5 232 c 128,-1,59
 130 247 130 247 173 252.5 c 128,-1,60
 216 258 216 258 268 258 c 2,61,-1
 324 258 l 1,62,-1
 324 286 l 2,63,64
 324 314 324 314 316.5 342 c 128,-1,65
 309 370 309 370 293.5 392.5 c 128,-1,66
 278 415 278 415 253 429 c 128,-1,67
 228 443 228 443 192 443 c 0,68,69
 169 443 169 443 151.5 439 c 128,-1,70
 134 435 134 435 121.5 429.5 c 128,-1,71
 109 424 109 424 100.5 420 c 128,-1,72
 92 416 92 416 88 416 c 0,73,74
 80 416 80 416 75 423.5 c 128,-1,75
 70 431 70 431 70 436 c 0,76,77
 70 443 70 443 81 450.5 c 128,-1,78
 92 458 92 458 109.5 464 c 128,-1,79
 127 470 127 470 149 474 c 128,-1,80
 171 478 171 478 194 478 c 0,35,36
324 223 m 1,81,-1
 269 223 l 2,82,83
 230 223 230 223 194.5 220 c 128,-1,84
 159 217 159 217 131 207 c 128,-1,85
 103 197 103 197 86.5 178 c 128,-1,86
 70 159 70 159 70 126 c 0,87,88
 70 75 70 75 99.5 52 c 128,-1,89
 129 29 129 29 173 29 c 0,90,91
 201 29 201 29 228 40 c 128,-1,92
 255 51 255 51 276.5 67.5 c 128,-1,93
 298 84 298 84 311 103.5 c 128,-1,94
 324 123 324 123 324 139 c 2,95,-1
 324 223 l 1,81,-1
EndSplineSet
EndChar
StartChar: adieresis
Encoding: 228 228 137
Width: 423
Flags: W
LayerCount: 2
Back
Fore
SplineSet
142 659 m 0,0,1
 155 659 155 659 163 651 c 128,-1,2
 171 643 171 643 171 630 c 256,3,4
 171 617 171 617 163 608.5 c 128,-1,5
 155 600 155 600 142 600 c 0,6,7
 128 600 128 600 120 608.5 c 128,-1,8
 112 617 112 617 112 630 c 256,9,10
 112 643 112 643 120 651 c 128,-1,11
 128 659 128 659 142 659 c 0,0,1
253 659 m 0,12,13
 266 659 266 659 274 651 c 128,-1,14
 282 643 282 643 282 630 c 256,15,16
 282 617 282 617 274 608.5 c 128,-1,17
 266 600 266 600 253 600 c 0,18,19
 239 600 239 600 231 608.5 c 128,-1,20
 223 617 223 617 223 630 c 256,21,22
 223 643 223 643 231 651 c 128,-1,23
 239 659 239 659 253 659 c 0,12,13
194 478 m 0,24,25
 240 478 240 478 271.5 462 c 128,-1,26
 303 446 303 446 322.5 419 c 128,-1,27
 342 392 342 392 350.5 357.5 c 128,-1,28
 359 323 359 323 359 286 c 2,29,-1
 359 18 l 2,30,31
 359 10 359 10 354.5 5 c 128,-1,32
 350 0 350 0 342 0 c 256,33,34
 334 0 334 0 329 5 c 128,-1,35
 324 10 324 10 324 18 c 2,36,-1
 324 70 l 1,37,38
 298 41 298 41 261 17.5 c 128,-1,39
 224 -6 224 -6 174 -6 c 0,40,41
 145 -6 145 -6 119.5 2 c 128,-1,42
 94 10 94 10 75 26.5 c 128,-1,43
 56 43 56 43 45.5 67.5 c 128,-1,44
 35 92 35 92 35 126 c 0,45,46
 35 166 35 166 52 191.5 c 128,-1,47
 69 217 69 217 99.5 232 c 128,-1,48
 130 247 130 247 173 252.5 c 128,-1,49
 216 258 216 258 268 258 c 2,50,-1
 324 258 l 1,51,-1
 324 286 l 2,52,53
 324 314 324 314 316.5 342 c 128,-1,54
 309 370 309 370 293.5 392.5 c 128,-1,55
 278 415 278 415 253 429 c 128,-1,56
 228 443 228 443 192 443 c 0,57,58
 169 443 169 443 151.5 439 c 128,-1,59
 134 435 134 435 121.5 429.5 c 128,-1,60
 109 424 109 424 100.5 420 c 128,-1,61
 92 416 92 416 88 416 c 0,62,63
 80 416 80 416 75 423.5 c 128,-1,64
 70 431 70 431 70 436 c 0,65,66
 70 443 70 443 81 450.5 c 128,-1,67
 92 458 92 458 109.5 464 c 128,-1,68
 127 470 127 470 149 474 c 128,-1,69
 171 478 171 478 194 478 c 0,24,25
324 223 m 1,70,-1
 269 223 l 2,71,72
 230 223 230 223 194.5 220 c 128,-1,73
 159 217 159 217 131 207 c 128,-1,74
 103 197 103 197 86.5 178 c 128,-1,75
 70 159 70 159 70 126 c 0,76,77
 70 75 70 75 99.5 52 c 128,-1,78
 129 29 129 29 173 29 c 0,79,80
 201 29 201 29 228 40 c 128,-1,81
 255 51 255 51 276.5 67.5 c 128,-1,82
 298 84 298 84 311 103.5 c 128,-1,83
 324 123 324 123 324 139 c 2,84,-1
 324 223 l 1,70,-1
EndSplineSet
EndChar
StartChar: aring
Encoding: 229 229 145
Width: 423
Flags: W
LayerCount: 2
Back
Fore
SplineSet
197 768 m 0,0,1
 215 768 215 768 231 760.5 c 128,-1,2
 247 753 247 753 259.5 740.5 c 128,-1,3
 272 728 272 728 279.5 711.5 c 128,-1,4
 287 695 287 695 287 677 c 256,5,6
 287 659 287 659 279.5 642 c 128,-1,7
 272 625 272 625 259.5 612 c 128,-1,8
 247 599 247 599 231 591.5 c 128,-1,9
 215 584 215 584 197 584 c 0,10,11
 178 584 178 584 161.5 591.5 c 128,-1,12
 145 599 145 599 133 612 c 128,-1,13
 121 625 121 625 114 642 c 128,-1,14
 107 659 107 659 107 677 c 256,15,16
 107 695 107 695 114 711 c 128,-1,17
 121 727 121 727 133 740 c 128,-1,18
 145 753 145 753 161.5 760.5 c 128,-1,19
 178 768 178 768 197 768 c 0,0,1
262 677 m 0,20,21
 262 689 262 689 257 700.5 c 128,-1,22
 252 712 252 712 243 721 c 128,-1,23
 234 730 234 730 222 736 c 128,-1,24
 210 742 210 742 197 742 c 0,25,26
 183 742 183 742 171 736 c 128,-1,27
 159 730 159 730 150 721 c 128,-1,28
 141 712 141 712 136 700.5 c 128,-1,29
 131 689 131 689 131 677 c 0,30,31
 131 664 131 664 136 651.5 c 128,-1,32
 141 639 141 639 150 629 c 128,-1,33
 159 619 159 619 171 613 c 128,-1,34
 183 607 183 607 197 607 c 0,35,36
 210 607 210 607 222 613 c 128,-1,37
 234 619 234 619 243 629 c 128,-1,38
 252 639 252 639 257 651.5 c 128,-1,39
 262 664 262 664 262 677 c 0,20,21
194 478 m 0,40,41
 240 478 240 478 271.5 462 c 128,-1,42
 303 446 303 446 322.5 419 c 128,-1,43
 342 392 342 392 350.5 357.5 c 128,-1,44
 359 323 359 323 359 286 c 2,45,-1
 359 18 l 2,46,47
 359 10 359 10 354.5 5 c 128,-1,48
 350 0 350 0 342 0 c 256,49,50
 334 0 334 0 329 5 c 128,-1,51
 324 10 324 10 324 18 c 2,52,-1
 324 70 l 1,53,54
 298 41 298 41 261 17.5 c 128,-1,55
 224 -6 224 -6 174 -6 c 0,56,57
 145 -6 145 -6 119.5 2 c 128,-1,58
 94 10 94 10 75 26.5 c 128,-1,59
 56 43 56 43 45.5 67.5 c 128,-1,60
 35 92 35 92 35 126 c 0,61,62
 35 166 35 166 52 191.5 c 128,-1,63
 69 217 69 217 99.5 232 c 128,-1,64
 130 247 130 247 173 252.5 c 128,-1,65
 216 258 216 258 268 258 c 2,66,-1
 324 258 l 1,67,-1
 324 286 l 2,68,69
 324 314 324 314 316.5 342 c 128,-1,70
 309 370 309 370 293.5 392.5 c 128,-1,71
 278 415 278 415 253 429 c 128,-1,72
 228 443 228 443 192 443 c 0,73,74
 169 443 169 443 151.5 439 c 128,-1,75
 134 435 134 435 121.5 429.5 c 128,-1,76
 109 424 109 424 100.5 420 c 128,-1,77
 92 416 92 416 88 416 c 0,78,79
 80 416 80 416 75 423.5 c 128,-1,80
 70 431 70 431 70 436 c 0,81,82
 70 443 70 443 81 450.5 c 128,-1,83
 92 458 92 458 109.5 464 c 128,-1,84
 127 470 127 470 149 474 c 128,-1,85
 171 478 171 478 194 478 c 0,40,41
324 223 m 1,86,-1
 269 223 l 2,87,88
 230 223 230 223 194.5 220 c 128,-1,89
 159 217 159 217 131 207 c 128,-1,90
 103 197 103 197 86.5 178 c 128,-1,91
 70 159 70 159 70 126 c 0,92,93
 70 75 70 75 99.5 52 c 128,-1,94
 129 29 129 29 173 29 c 0,95,96
 201 29 201 29 228 40 c 128,-1,97
 255 51 255 51 276.5 67.5 c 128,-1,98
 298 84 298 84 311 103.5 c 128,-1,99
 324 123 324 123 324 139 c 2,100,-1
 324 223 l 1,86,-1
EndSplineSet
EndChar
StartChar: ccedilla
Encoding: 231 231 171
Width: 402
Flags: W
LayerCount: 2
Back
Fore
SplineSet
372 53 m 0,0,1
 372 45 372 45 363.5 36 c 128,-1,2
 355 27 355 27 339.5 18 c 128,-1,3
 324 9 324 9 301 2.5 c 128,-1,4
 278 -4 278 -4 249 -5 c 1,5,-1
 235 -65 l 1,6,7
 286 -67 286 -67 307.5 -88 c 128,-1,8
 329 -109 329 -109 329 -135 c 0,9,10
 329 -163 329 -163 307.5 -185 c 128,-1,11
 286 -207 286 -207 247 -207 c 0,12,13
 238 -207 238 -207 225.5 -205.5 c 128,-1,14
 213 -204 213 -204 201.5 -201 c 128,-1,15
 190 -198 190 -198 181.5 -193.5 c 128,-1,16
 173 -189 173 -189 173 -183 c 0,17,18
 173 -178 173 -178 176.5 -171.5 c 128,-1,19
 180 -165 180 -165 185 -165 c 256,20,21
 190 -165 190 -165 203 -171.5 c 128,-1,22
 216 -178 216 -178 241 -178 c 0,23,24
 273 -178 273 -178 284.5 -165.5 c 128,-1,25
 296 -153 296 -153 296 -137 c 0,26,27
 296 -114 296 -114 277 -104 c 128,-1,28
 258 -94 258 -94 226 -92 c 2,29,-1
 197 -90 l 1,30,-1
 217 -5 l 1,31,32
 175 -3 175 -3 144 12 c 128,-1,33
 113 27 113 27 92.5 51 c 128,-1,34
 72 75 72 75 62 107 c 128,-1,35
 52 139 52 139 52 176 c 2,36,-1
 52 296 l 2,37,38
 52 334 52 334 63 367.5 c 128,-1,39
 74 401 74 401 96.5 425.5 c 128,-1,40
 119 450 119 450 153.5 464 c 128,-1,41
 188 478 188 478 235 478 c 0,42,43
 265 478 265 478 289 471.5 c 128,-1,44
 313 465 313 465 330.5 456 c 128,-1,45
 348 447 348 447 357 437 c 128,-1,46
 366 427 366 427 366 419 c 0,47,48
 366 412 366 412 360.5 407 c 128,-1,49
 355 402 355 402 348 402 c 0,50,51
 342 402 342 402 334.5 408.5 c 128,-1,52
 327 415 327 415 315 422.5 c 128,-1,53
 303 430 303 430 284 436.5 c 128,-1,54
 265 443 265 443 235 443 c 0,55,56
 163 443 163 443 125 404 c 128,-1,57
 87 365 87 365 87 296 c 2,58,-1
 87 176 l 2,59,60
 87 107 87 107 124.5 68 c 128,-1,61
 162 29 162 29 236 29 c 0,62,63
 267 29 267 29 287 35.5 c 128,-1,64
 307 42 307 42 320 49.5 c 128,-1,65
 333 57 333 57 340.5 63.5 c 128,-1,66
 348 70 348 70 355 70 c 256,67,68
 362 70 362 70 367 65 c 128,-1,69
 372 60 372 60 372 53 c 0,0,1
EndSplineSet
EndChar
StartChar: egrave
Encoding: 232 232 201
Width: 445
Flags: W
LayerCount: 2
Back
Fore
SplineSet
229 478 m 0,0,1
 264 478 264 478 296 464.5 c 128,-1,2
 328 451 328 451 352.5 427 c 128,-1,3
 377 403 377 403 391.5 370 c 128,-1,4
 406 337 406 337 406 298 c 0,5,6
 406 271 406 271 399 255.5 c 128,-1,7
 392 240 392 240 380.5 233 c 128,-1,8
 369 226 369 226 354 224.5 c 128,-1,9
 339 223 339 223 323 223 c 2,10,-1
 86 223 l 1,11,-1
 86 176 l 2,12,13
 86 142 86 142 98.5 114.5 c 128,-1,14
 111 87 111 87 133.5 68 c 128,-1,15
 156 49 156 49 187 39 c 128,-1,16
 218 29 218 29 255 29 c 0,17,18
 286 29 286 29 306 35.5 c 128,-1,19
 326 42 326 42 338.5 49.5 c 128,-1,20
 351 57 351 57 358.5 63.5 c 128,-1,21
 366 70 366 70 373 70 c 256,22,23
 380 70 380 70 385.5 64 c 128,-1,24
 391 58 391 58 391 52 c 0,25,26
 391 45 391 45 381.5 35 c 128,-1,27
 372 25 372 25 354 16 c 128,-1,28
 336 7 336 7 310.5 0.5 c 128,-1,29
 285 -6 285 -6 253 -6 c 0,30,31
 209 -6 209 -6 172 7 c 128,-1,32
 135 20 135 20 108 44 c 128,-1,33
 81 68 81 68 66 101.5 c 128,-1,34
 51 135 51 135 51 176 c 2,35,-1
 51 301 l 2,36,37
 51 337 51 337 65 369 c 128,-1,38
 79 401 79 401 103.5 425.5 c 128,-1,39
 128 450 128 450 160.5 464 c 128,-1,40
 193 478 193 478 229 478 c 0,0,1
311 258 m 2,41,42
 348 258 348 258 359.5 265 c 128,-1,43
 371 272 371 272 371 295 c 0,44,45
 371 322 371 322 361 348.5 c 128,-1,46
 351 375 351 375 332.5 396 c 128,-1,47
 314 417 314 417 287.5 430 c 128,-1,48
 261 443 261 443 229 443 c 0,49,50
 199 443 199 443 172.5 431.5 c 128,-1,51
 146 420 146 420 127 400.5 c 128,-1,52
 108 381 108 381 97 355 c 128,-1,53
 86 329 86 329 86 301 c 2,54,-1
 86 258 l 1,55,-1
 311 258 l 2,41,42
172 658 m 2,56,57
 162 664 162 664 162 676 c 0,58,59
 162 683 162 683 166 688.5 c 128,-1,60
 170 694 170 694 178 694 c 0,61,62
 181 694 181 694 185 692 c 2,63,-1
 287 632 l 2,64,65
 295 628 295 628 295 619 c 0,66,67
 295 611 295 611 289.5 606 c 128,-1,68
 284 601 284 601 276 601 c 0,69,70
 271 601 271 601 267 604 c 2,71,-1
 172 658 l 2,56,57
EndSplineSet
EndChar
StartChar: edieresis
Encoding: 235 235 199
Width: 445
Flags: W
LayerCount: 2
Back
Fore
SplineSet
229 478 m 0,0,1
 264 478 264 478 296 464.5 c 128,-1,2
 328 451 328 451 352.5 427 c 128,-1,3
 377 403 377 403 391.5 370 c 128,-1,4
 406 337 406 337 406 298 c 0,5,6
 406 271 406 271 399 255.5 c 128,-1,7
 392 240 392 240 380.5 233 c 128,-1,8
 369 226 369 226 354 224.5 c 128,-1,9
 339 223 339 223 323 223 c 2,10,-1
 86 223 l 1,11,-1
 86 176 l 2,12,13
 86 142 86 142 98.5 114.5 c 128,-1,14
 111 87 111 87 133.5 68 c 128,-1,15
 156 49 156 49 187 39 c 128,-1,16
 218 29 218 29 255 29 c 0,17,18
 286 29 286 29 306 35.5 c 128,-1,19
 326 42 326 42 338.5 49.5 c 128,-1,20
 351 57 351 57 358.5 63.5 c 128,-1,21
 366 70 366 70 373 70 c 256,22,23
 380 70 380 70 385.5 64 c 128,-1,24
 391 58 391 58 391 52 c 0,25,26
 391 45 391 45 381.5 35 c 128,-1,27
 372 25 372 25 354 16 c 128,-1,28
 336 7 336 7 310.5 0.5 c 128,-1,29
 285 -6 285 -6 253 -6 c 0,30,31
 209 -6 209 -6 172 7 c 128,-1,32
 135 20 135 20 108 44 c 128,-1,33
 81 68 81 68 66 101.5 c 128,-1,34
 51 135 51 135 51 176 c 2,35,-1
 51 301 l 2,36,37
 51 337 51 337 65 369 c 128,-1,38
 79 401 79 401 103.5 425.5 c 128,-1,39
 128 450 128 450 160.5 464 c 128,-1,40
 193 478 193 478 229 478 c 0,0,1
311 258 m 2,41,42
 348 258 348 258 359.5 265 c 128,-1,43
 371 272 371 272 371 295 c 0,44,45
 371 322 371 322 361 348.5 c 128,-1,46
 351 375 351 375 332.5 396 c 128,-1,47
 314 417 314 417 287.5 430 c 128,-1,48
 261 443 261 443 229 443 c 0,49,50
 199 443 199 443 172.5 431.5 c 128,-1,51
 146 420 146 420 127 400.5 c 128,-1,52
 108 381 108 381 97 355 c 128,-1,53
 86 329 86 329 86 301 c 2,54,-1
 86 258 l 1,55,-1
 311 258 l 2,41,42
173 659 m 0,56,57
 186 659 186 659 194 651 c 128,-1,58
 202 643 202 643 202 630 c 256,59,60
 202 617 202 617 194 608.5 c 128,-1,61
 186 600 186 600 173 600 c 0,62,63
 159 600 159 600 151 608.5 c 128,-1,64
 143 617 143 617 143 630 c 256,65,66
 143 643 143 643 151 651 c 128,-1,67
 159 659 159 659 173 659 c 0,56,57
284 659 m 0,68,69
 297 659 297 659 305 651 c 128,-1,70
 313 643 313 643 313 630 c 256,71,72
 313 617 313 617 305 608.5 c 128,-1,73
 297 600 297 600 284 600 c 0,74,75
 270 600 270 600 262 608.5 c 128,-1,76
 254 617 254 617 254 630 c 256,77,78
 254 643 254 643 262 651 c 128,-1,79
 270 659 270 659 284 659 c 0,68,69
EndSplineSet
EndChar
StartChar: igrave
Encoding: 236 236 252
Width: 171
Flags: W
LayerCount: 2
Back
Fore
SplineSet
85 472 m 0,0,1
 93 472 93 472 98 467.5 c 128,-1,2
 103 463 103 463 103 455 c 2,3,-1
 103 18 l 2,4,5
 103 11 103 11 98 5.5 c 128,-1,6
 93 0 93 0 85 0 c 0,7,8
 78 0 78 0 73 5.5 c 128,-1,9
 68 11 68 11 68 18 c 2,10,-1
 68 455 l 2,11,12
 68 463 68 463 73 467.5 c 128,-1,13
 78 472 78 472 85 472 c 0,0,1
28 658 m 2,14,15
 18 664 18 664 18 676 c 0,16,17
 18 683 18 683 22 688.5 c 128,-1,18
 26 694 26 694 34 694 c 0,19,20
 37 694 37 694 41 692 c 2,21,-1
 143 632 l 2,22,23
 151 628 151 628 151 619 c 0,24,25
 151 611 151 611 145.5 606 c 128,-1,26
 140 601 140 601 132 601 c 0,27,28
 127 601 127 601 123 604 c 2,29,-1
 28 658 l 2,14,15
EndSplineSet
EndChar
StartChar: iacute
Encoding: 237 237 248
Width: 171
Flags: W
LayerCount: 2
Back
Fore
SplineSet
85 472 m 0,0,1
 93 472 93 472 98 467.5 c 128,-1,2
 103 463 103 463 103 455 c 2,3,-1
 103 18 l 2,4,5
 103 11 103 11 98 5.5 c 128,-1,6
 93 0 93 0 85 0 c 0,7,8
 78 0 78 0 73 5.5 c 128,-1,9
 68 11 68 11 68 18 c 2,10,-1
 68 455 l 2,11,12
 68 463 68 463 73 467.5 c 128,-1,13
 78 472 78 472 85 472 c 0,0,1
46 604 m 2,14,15
 41 601 41 601 37 601 c 0,16,17
 29 601 29 601 23.5 606 c 128,-1,18
 18 611 18 611 18 619 c 0,19,20
 18 628 18 628 26 632 c 2,21,-1
 128 692 l 2,22,23
 132 694 132 694 135 694 c 0,24,25
 143 694 143 694 147 688.5 c 128,-1,26
 151 683 151 683 151 676 c 0,27,28
 151 664 151 664 141 658 c 2,29,-1
 46 604 l 2,14,15
EndSplineSet
EndChar
StartChar: icircumflex
Encoding: 238 238 250
Width: 171
Flags: W
LayerCount: 2
Back
Fore
SplineSet
85 472 m 0,0,1
 93 472 93 472 98 467.5 c 128,-1,2
 103 463 103 463 103 455 c 2,3,-1
 103 18 l 2,4,5
 103 11 103 11 98 5.5 c 128,-1,6
 93 0 93 0 85 0 c 0,7,8
 78 0 78 0 73 5.5 c 128,-1,9
 68 11 68 11 68 18 c 2,10,-1
 68 455 l 2,11,12
 68 463 68 463 73 467.5 c 128,-1,13
 78 472 78 472 85 472 c 0,0,1
-19 603 m 2,14,15
 -21 602 -21 602 -23 601 c 128,-1,16
 -25 600 -25 600 -27 600 c 0,17,18
 -34 600 -34 600 -39.5 605.5 c 128,-1,19
 -45 611 -45 611 -45 619 c 0,20,21
 -45 628 -45 628 -36 633 c 2,22,-1
 68 689 l 2,23,24
 76 694 76 694 85 694 c 256,25,26
 94 694 94 694 102 689 c 2,27,-1
 206 634 l 2,28,29
 215 629 215 629 215 617 c 0,30,31
 215 610 215 610 210 605.5 c 128,-1,32
 205 601 205 601 198 601 c 0,33,34
 196 601 196 601 193.5 602 c 128,-1,35
 191 603 191 603 189 604 c 2,36,-1
 85 659 l 1,37,-1
 -19 603 l 2,14,15
EndSplineSet
EndChar
StartChar: idieresis
Encoding: 239 239 251
Width: 171
Flags: W
LayerCount: 2
Back
Fore
SplineSet
85 472 m 0,0,1
 93 472 93 472 98 467.5 c 128,-1,2
 103 463 103 463 103 455 c 2,3,-1
 103 18 l 2,4,5
 103 11 103 11 98 5.5 c 128,-1,6
 93 0 93 0 85 0 c 0,7,8
 78 0 78 0 73 5.5 c 128,-1,9
 68 11 68 11 68 18 c 2,10,-1
 68 455 l 2,11,12
 68 463 68 463 73 467.5 c 128,-1,13
 78 472 78 472 85 472 c 0,0,1
31 659 m 0,14,15
 44 659 44 659 52 651 c 128,-1,16
 60 643 60 643 60 630 c 256,17,18
 60 617 60 617 52 608.5 c 128,-1,19
 44 600 44 600 31 600 c 0,20,21
 17 600 17 600 9 608.5 c 128,-1,22
 1 617 1 617 1 630 c 256,23,24
 1 643 1 643 9 651 c 128,-1,25
 17 659 17 659 31 659 c 0,14,15
142 659 m 0,26,27
 155 659 155 659 163 651 c 128,-1,28
 171 643 171 643 171 630 c 256,29,30
 171 617 171 617 163 608.5 c 128,-1,31
 155 600 155 600 142 600 c 0,32,33
 128 600 128 600 120 608.5 c 128,-1,34
 112 617 112 617 112 630 c 256,35,36
 112 643 112 643 120 651 c 128,-1,37
 128 659 128 659 142 659 c 0,26,27
EndSplineSet
EndChar
StartChar: eth
Encoding: 240 240 213
Width: 468
Flags: W
LayerCount: 2
Back
Fore
SplineSet
127 731 m 0,0,1
 121 731 121 731 118 736 c 128,-1,2
 115 741 115 741 115 748 c 0,3,4
 115 756 115 756 120 762 c 128,-1,5
 125 768 125 768 139 768 c 0,6,7
 174 768 174 768 216 747 c 128,-1,8
 258 726 258 726 296 683 c 1,9,-1
 376 729 l 2,10,11
 380 731 380 731 383 731 c 0,12,13
 390 731 390 731 395.5 726 c 128,-1,14
 401 721 401 721 401 714 c 0,15,16
 401 703 401 703 392 699 c 2,17,-1
 318 656 l 1,18,19
 356 605 356 605 380.5 533 c 128,-1,20
 405 461 405 461 405 365 c 2,21,-1
 405 176 l 2,22,23
 405 140 405 140 390.5 107.5 c 128,-1,24
 376 75 376 75 351.5 49.5 c 128,-1,25
 327 24 327 24 295 9 c 128,-1,26
 263 -6 263 -6 227 -6 c 256,27,28
 191 -6 191 -6 159 9 c 128,-1,29
 127 24 127 24 103 49 c 128,-1,30
 79 74 79 74 64.5 107 c 128,-1,31
 50 140 50 140 50 176 c 2,32,-1
 50 298 l 2,33,34
 50 334 50 334 64 366.5 c 128,-1,35
 78 399 78 399 102 424 c 128,-1,36
 126 449 126 449 158.5 463.5 c 128,-1,37
 191 478 191 478 227 478 c 0,38,39
 248 478 248 478 271 472.5 c 128,-1,40
 294 467 294 467 313.5 456 c 128,-1,41
 333 445 333 445 348.5 429 c 128,-1,42
 364 413 364 413 370 392 c 1,43,44
 362 475 362 475 340 535.5 c 128,-1,45
 318 596 318 596 287 638 c 1,46,-1
 189 582 l 2,47,48
 184 579 184 579 180 579 c 0,49,50
 173 579 173 579 168 585 c 128,-1,51
 163 591 163 591 163 598 c 0,52,53
 163 607 163 607 172 612 c 2,54,-1
 264 665 l 1,55,56
 232 699 232 699 196 715 c 128,-1,57
 160 731 160 731 127 731 c 0,0,1
370 303 m 2,58,59
 370 330 370 330 358.5 355 c 128,-1,60
 347 380 347 380 327.5 399.5 c 128,-1,61
 308 419 308 419 282 431 c 128,-1,62
 256 443 256 443 227 443 c 0,63,64
 197 443 197 443 171 430.5 c 128,-1,65
 145 418 145 418 126 398 c 128,-1,66
 107 378 107 378 96 351.5 c 128,-1,67
 85 325 85 325 85 298 c 2,68,-1
 85 176 l 2,69,70
 85 148 85 148 96 121.5 c 128,-1,71
 107 95 107 95 126.5 74.5 c 128,-1,72
 146 54 146 54 171.5 41.5 c 128,-1,73
 197 29 197 29 227 29 c 256,74,75
 257 29 257 29 283 41.5 c 128,-1,76
 309 54 309 54 328.5 74.5 c 128,-1,77
 348 95 348 95 359 121.5 c 128,-1,78
 370 148 370 148 370 176 c 2,79,-1
 370 303 l 2,58,59
EndSplineSet
EndChar
StartChar: ntilde
Encoding: 241 241 289
Width: 481
Flags: W
LayerCount: 2
Back
Fore
SplineSet
306 653 m 0,0,1
 323 653 323 653 333 658 c 128,-1,2
 343 663 343 663 349.5 669 c 128,-1,3
 356 675 356 675 360.5 680 c 128,-1,4
 365 685 365 685 371 685 c 0,5,6
 376 685 376 685 380.5 681 c 128,-1,7
 385 677 385 677 385 670 c 0,8,9
 385 658 385 658 376.5 649 c 128,-1,10
 368 640 368 640 355 633 c 128,-1,11
 342 626 342 626 327.5 622.5 c 128,-1,12
 313 619 313 619 301 619 c 0,13,14
 283 619 283 619 268.5 625 c 128,-1,15
 254 631 254 631 239.5 637.5 c 128,-1,16
 225 644 225 644 209 650 c 128,-1,17
 193 656 193 656 172 656 c 0,18,19
 156 656 156 656 145 650.5 c 128,-1,20
 134 645 134 645 126.5 638.5 c 128,-1,21
 119 632 119 632 113.5 626.5 c 128,-1,22
 108 621 108 621 103 621 c 0,23,24
 90 621 90 621 90 638 c 0,25,26
 90 648 90 648 99 657 c 128,-1,27
 108 666 108 666 121 673.5 c 128,-1,28
 134 681 134 681 149.5 685.5 c 128,-1,29
 165 690 165 690 179 690 c 0,30,31
 197 690 197 690 212 684 c 128,-1,32
 227 678 227 678 241.5 671.5 c 128,-1,33
 256 665 256 665 271.5 659 c 128,-1,34
 287 653 287 653 306 653 c 0,0,1
103 18 m 2,35,36
 103 11 103 11 98 5.5 c 128,-1,37
 93 0 93 0 85 0 c 256,38,39
 77 0 77 0 72.5 5.5 c 128,-1,40
 68 11 68 11 68 18 c 2,41,-1
 68 455 l 2,42,43
 68 472 68 472 85 472 c 0,44,45
 93 472 93 472 98 467.5 c 128,-1,46
 103 463 103 463 103 455 c 2,47,-1
 103 402 l 1,48,49
 120 431 120 431 153 454.5 c 128,-1,50
 186 478 186 478 237 478 c 0,51,52
 274 478 274 478 306.5 464 c 128,-1,53
 339 450 339 450 363.5 425.5 c 128,-1,54
 388 401 388 401 402.5 368 c 128,-1,55
 417 335 417 335 417 298 c 2,56,-1
 417 18 l 2,57,58
 417 9 417 9 411.5 4.5 c 128,-1,59
 406 0 406 0 399 0 c 0,60,61
 393 0 393 0 387.5 4.5 c 128,-1,62
 382 9 382 9 382 18 c 2,63,-1
 382 298 l 2,64,65
 382 325 382 325 371 351.5 c 128,-1,66
 360 378 360 378 340.5 398 c 128,-1,67
 321 418 321 418 295 430.5 c 128,-1,68
 269 443 269 443 240 443 c 0,69,70
 214 443 214 443 189.5 433 c 128,-1,71
 165 423 165 423 146 404.5 c 128,-1,72
 127 386 127 386 115 359 c 128,-1,73
 103 332 103 332 103 298 c 2,74,-1
 103 18 l 2,35,36
EndSplineSet
EndChar
StartChar: oacute
Encoding: 243 243 292
Width: 455
Flags: W
LayerCount: 2
Back
Fore
SplineSet
227 478 m 256,0,1
 263 478 263 478 295 464 c 128,-1,2
 327 450 327 450 351.5 425.5 c 128,-1,3
 376 401 376 401 390.5 368 c 128,-1,4
 405 335 405 335 405 298 c 2,5,-1
 405 176 l 2,6,7
 405 140 405 140 390.5 107.5 c 128,-1,8
 376 75 376 75 351.5 49.5 c 128,-1,9
 327 24 327 24 295 9 c 128,-1,10
 263 -6 263 -6 227 -6 c 256,11,12
 191 -6 191 -6 159 9 c 128,-1,13
 127 24 127 24 103 49 c 128,-1,14
 79 74 79 74 64.5 107 c 128,-1,15
 50 140 50 140 50 176 c 2,16,-1
 50 298 l 2,17,18
 50 334 50 334 64 366.5 c 128,-1,19
 78 399 78 399 102 424 c 128,-1,20
 126 449 126 449 158.5 463.5 c 128,-1,21
 191 478 191 478 227 478 c 256,0,1
370 298 m 2,22,23
 370 325 370 325 359 351.5 c 128,-1,24
 348 378 348 378 328.5 398 c 128,-1,25
 309 418 309 418 283 430.5 c 128,-1,26
 257 443 257 443 227 443 c 256,27,28
 197 443 197 443 171 430.5 c 128,-1,29
 145 418 145 418 126 398 c 128,-1,30
 107 378 107 378 96 351.5 c 128,-1,31
 85 325 85 325 85 298 c 2,32,-1
 85 176 l 2,33,34
 85 148 85 148 96 121.5 c 128,-1,35
 107 95 107 95 126.5 74.5 c 128,-1,36
 146 54 146 54 171.5 41.5 c 128,-1,37
 197 29 197 29 227 29 c 256,38,39
 257 29 257 29 283 41.5 c 128,-1,40
 309 54 309 54 328.5 74.5 c 128,-1,41
 348 95 348 95 359 121.5 c 128,-1,42
 370 148 370 148 370 176 c 2,43,-1
 370 298 l 2,22,23
189 604 m 2,44,45
 184 601 184 601 180 601 c 0,46,47
 172 601 172 601 166.5 606 c 128,-1,48
 161 611 161 611 161 619 c 0,49,50
 161 628 161 628 169 632 c 2,51,-1
 271 692 l 2,52,53
 275 694 275 694 278 694 c 0,54,55
 286 694 286 694 290 688.5 c 128,-1,56
 294 683 294 683 294 676 c 0,57,58
 294 664 294 664 284 658 c 2,59,-1
 189 604 l 2,44,45
EndSplineSet
EndChar
StartChar: ocircumflex
Encoding: 244 244 294
Width: 455
Flags: W
LayerCount: 2
Back
Fore
SplineSet
227 478 m 256,0,1
 263 478 263 478 295 464 c 128,-1,2
 327 450 327 450 351.5 425.5 c 128,-1,3
 376 401 376 401 390.5 368 c 128,-1,4
 405 335 405 335 405 298 c 2,5,-1
 405 176 l 2,6,7
 405 140 405 140 390.5 107.5 c 128,-1,8
 376 75 376 75 351.5 49.5 c 128,-1,9
 327 24 327 24 295 9 c 128,-1,10
 263 -6 263 -6 227 -6 c 256,11,12
 191 -6 191 -6 159 9 c 128,-1,13
 127 24 127 24 103 49 c 128,-1,14
 79 74 79 74 64.5 107 c 128,-1,15
 50 140 50 140 50 176 c 2,16,-1
 50 298 l 2,17,18
 50 334 50 334 64 366.5 c 128,-1,19
 78 399 78 399 102 424 c 128,-1,20
 126 449 126 449 158.5 463.5 c 128,-1,21
 191 478 191 478 227 478 c 256,0,1
370 298 m 2,22,23
 370 325 370 325 359 351.5 c 128,-1,24
 348 378 348 378 328.5 398 c 128,-1,25
 309 418 309 418 283 430.5 c 128,-1,26
 257 443 257 443 227 443 c 256,27,28
 197 443 197 443 171 430.5 c 128,-1,29
 145 418 145 418 126 398 c 128,-1,30
 107 378 107 378 96 351.5 c 128,-1,31
 85 325 85 325 85 298 c 2,32,-1
 85 176 l 2,33,34
 85 148 85 148 96 121.5 c 128,-1,35
 107 95 107 95 126.5 74.5 c 128,-1,36
 146 54 146 54 171.5 41.5 c 128,-1,37
 197 29 197 29 227 29 c 256,38,39
 257 29 257 29 283 41.5 c 128,-1,40
 309 54 309 54 328.5 74.5 c 128,-1,41
 348 95 348 95 359 121.5 c 128,-1,42
 370 148 370 148 370 176 c 2,43,-1
 370 298 l 2,22,23
123 603 m 2,44,45
 121 602 121 602 119 601 c 128,-1,46
 117 600 117 600 115 600 c 0,47,48
 108 600 108 600 102.5 605.5 c 128,-1,49
 97 611 97 611 97 619 c 0,50,51
 97 628 97 628 106 633 c 2,52,-1
 210 689 l 2,53,54
 218 694 218 694 227 694 c 256,55,56
 236 694 236 694 244 689 c 2,57,-1
 348 634 l 2,58,59
 357 629 357 629 357 617 c 0,60,61
 357 610 357 610 352 605.5 c 128,-1,62
 347 601 347 601 340 601 c 0,63,64
 338 601 338 601 335.5 602 c 128,-1,65
 333 603 333 603 331 604 c 2,66,-1
 227 659 l 1,67,-1
 123 603 l 2,44,45
EndSplineSet
EndChar
StartChar: otilde
Encoding: 245 245 313
Width: 455
Flags: W
LayerCount: 2
Back
Fore
SplineSet
227 478 m 256,0,1
 263 478 263 478 295 464 c 128,-1,2
 327 450 327 450 351.5 425.5 c 128,-1,3
 376 401 376 401 390.5 368 c 128,-1,4
 405 335 405 335 405 298 c 2,5,-1
 405 176 l 2,6,7
 405 140 405 140 390.5 107.5 c 128,-1,8
 376 75 376 75 351.5 49.5 c 128,-1,9
 327 24 327 24 295 9 c 128,-1,10
 263 -6 263 -6 227 -6 c 256,11,12
 191 -6 191 -6 159 9 c 128,-1,13
 127 24 127 24 103 49 c 128,-1,14
 79 74 79 74 64.5 107 c 128,-1,15
 50 140 50 140 50 176 c 2,16,-1
 50 298 l 2,17,18
 50 334 50 334 64 366.5 c 128,-1,19
 78 399 78 399 102 424 c 128,-1,20
 126 449 126 449 158.5 463.5 c 128,-1,21
 191 478 191 478 227 478 c 256,0,1
370 298 m 2,22,23
 370 325 370 325 359 351.5 c 128,-1,24
 348 378 348 378 328.5 398 c 128,-1,25
 309 418 309 418 283 430.5 c 128,-1,26
 257 443 257 443 227 443 c 256,27,28
 197 443 197 443 171 430.5 c 128,-1,29
 145 418 145 418 126 398 c 128,-1,30
 107 378 107 378 96 351.5 c 128,-1,31
 85 325 85 325 85 298 c 2,32,-1
 85 176 l 2,33,34
 85 148 85 148 96 121.5 c 128,-1,35
 107 95 107 95 126.5 74.5 c 128,-1,36
 146 54 146 54 171.5 41.5 c 128,-1,37
 197 29 197 29 227 29 c 256,38,39
 257 29 257 29 283 41.5 c 128,-1,40
 309 54 309 54 328.5 74.5 c 128,-1,41
 348 95 348 95 359 121.5 c 128,-1,42
 370 148 370 148 370 176 c 2,43,-1
 370 298 l 2,22,23
296 653 m 0,44,45
 313 653 313 653 323 658 c 128,-1,46
 333 663 333 663 339.5 669 c 128,-1,47
 346 675 346 675 350.5 680 c 128,-1,48
 355 685 355 685 361 685 c 0,49,50
 366 685 366 685 370.5 681 c 128,-1,51
 375 677 375 677 375 670 c 0,52,53
 375 658 375 658 366.5 649 c 128,-1,54
 358 640 358 640 345 633 c 128,-1,55
 332 626 332 626 317.5 622.5 c 128,-1,56
 303 619 303 619 291 619 c 0,57,58
 273 619 273 619 258.5 625 c 128,-1,59
 244 631 244 631 229.5 637.5 c 128,-1,60
 215 644 215 644 199 650 c 128,-1,61
 183 656 183 656 162 656 c 0,62,63
 146 656 146 656 135 650.5 c 128,-1,64
 124 645 124 645 116.5 638.5 c 128,-1,65
 109 632 109 632 103.5 626.5 c 128,-1,66
 98 621 98 621 93 621 c 0,67,68
 80 621 80 621 80 638 c 0,69,70
 80 648 80 648 89 657 c 128,-1,71
 98 666 98 666 111 673.5 c 128,-1,72
 124 681 124 681 139.5 685.5 c 128,-1,73
 155 690 155 690 169 690 c 0,74,75
 187 690 187 690 202 684 c 128,-1,76
 217 678 217 678 231.5 671.5 c 128,-1,77
 246 665 246 665 261.5 659 c 128,-1,78
 277 653 277 653 296 653 c 0,44,45
EndSplineSet
EndChar
